<svg width="24" height="24" viewBox="0 0 24 24" fill="none" xmlns="http://www.w3.org/2000/svg">
<g id="Frame" clip-path="url(#clip0_93_911)">
<g id="Group">
<path id="Vector" d="M5.77545 16.1727L8.41082 13.5374L9.77645 14.903L7.14113 17.5383L5.77545 16.1727Z" fill="#C4F3FF"/>
<path id="Vector_2" d="M6.79968 17.1969L9.43505 14.5615L10.4593 15.5857L7.82391 18.2211L6.79968 17.1969Z" fill="#8AE7FF"/>
<path id="Vector_3" d="M7.31425 18.7344L2.47301 23.5757C1.9072 24.1415 0.990033 24.1415 0.424271 23.5757L6.28988 16.3442L7.31425 18.7344Z" fill="#61CE5A"/>
<path id="Vector_4" d="M6.9728 17.0272L0.424277 23.5758C-0.141196 23.0103 -0.141534 22.0928 0.424277 21.527L5.26552 16.6858L6.9728 17.0272Z" fill="#94E368"/>
<path id="Vector_5" d="M8.33863 17.7102L7.31426 16.6858L6.28989 17.7102L7.31426 18.7345C7.59598 19.0163 8.05695 19.0163 8.33863 18.7345C8.62035 18.4529 8.62035 17.9919 8.33863 17.7102Z" fill="#3B88F5"/>
<path id="Vector_6" d="M7.31426 17.71C7.59598 17.4283 7.59598 16.9673 7.31426 16.6856L6.28989 15.6612C6.00817 15.3795 5.5472 15.3795 5.26552 15.6612C4.9838 15.943 4.9838 16.4039 5.26552 16.6856L6.28989 17.71C6.57161 17.9917 7.03254 17.9917 7.31426 17.71Z" fill="#28ABFA"/>
<path id="Vector_7" d="M14.8973 18.2052C19.9246 18.2052 24 14.1299 24 9.10262C24 4.07538 19.9246 0 14.8973 0C9.8701 0 5.79472 4.07538 5.79472 9.10262C5.79472 14.1299 9.8701 18.2052 14.8973 18.2052Z" fill="#3B88F5"/>
<path id="Vector_8" d="M14.8973 1.44873V16.7566C19.1245 16.7566 22.5513 13.3298 22.5513 9.10265C22.5513 4.87551 19.1245 1.44873 14.8973 1.44873Z" fill="#C4F3FF"/>
<path id="Vector_9" d="M21.1026 9.10265C21.1026 4.87551 18.3244 1.44873 14.8973 1.44873C10.6702 1.44873 7.24341 4.87551 7.24341 9.10265C7.24341 13.3298 10.6702 16.7566 14.8973 16.7566C18.3244 16.7566 21.1026 13.3298 21.1026 9.10265Z" fill="white"/>
<path id="Vector_10" d="M18.5674 8.01611H17.1187V10.1892H18.5674C19.1664 10.1892 19.6539 9.70176 19.6539 9.10263C19.6539 8.5035 19.1665 8.01611 18.5674 8.01611Z" fill="#28ABFA"/>
<path id="Vector_11" d="M18.2052 9.10273C18.2052 8.5036 17.7177 8.01621 17.1187 8.01621H15.9839V5.43271C15.9839 4.83358 15.4964 4.34619 14.8973 4.34619C14.2982 4.34619 13.8108 4.83358 13.8108 5.43271V8.01621H11.2273C10.6282 8.01621 10.1408 8.5036 10.1408 9.10273C10.1408 9.70186 10.6282 10.1892 11.2273 10.1892H13.8108V12.7727C13.8108 13.3719 14.2982 13.8593 14.8973 13.8593C15.4964 13.8593 15.9839 13.3719 15.9839 12.7727V10.1892H17.1187C17.7178 10.1892 18.2052 9.70186 18.2052 9.10273Z" fill="#14CFFF"/>
</g>
</g>
<defs>
<clipPath id="clip0_93_911">
<rect width="24" height="24" fill="white"/>
</clipPath>
</defs>
</svg>
