<svg width="60" height="60" viewBox="0 0 60 60" fill="none" xmlns="http://www.w3.org/2000/svg">
<g clip-path="url(#clip0_97_2079)">
<path d="M8.58504 43.8854C8.35194 43.8854 8.12838 43.7928 7.96356 43.628C7.79873 43.4632 7.70613 43.2396 7.70613 43.0065V38.5705C7.70613 38.0291 7.49555 37.5202 7.11328 37.1374L4.00019 34.0202C3.8355 33.8553 3.74306 33.6317 3.74321 33.3986C3.74337 33.1655 3.8361 32.9421 4.00101 32.7773C4.08267 32.6958 4.17959 32.6311 4.28625 32.587C4.39291 32.5429 4.50721 32.5202 4.62263 32.5203C4.73805 32.5203 4.85232 32.5432 4.95892 32.5874C5.06552 32.6317 5.16236 32.6965 5.24391 32.7782L8.35699 35.8952C9.07078 36.6098 9.46383 37.56 9.46383 38.5705V43.0065C9.46384 43.1219 9.44112 43.2362 9.39697 43.3429C9.35281 43.4495 9.28808 43.5464 9.20648 43.628C9.12487 43.7096 9.02799 43.7744 8.92136 43.8185C8.81474 43.8627 8.70045 43.8854 8.58504 43.8854Z" fill="#685E68"/>
<path d="M5.10703 60C3.30867 60 1.8457 58.5357 1.8457 56.7358V3.82177C1.8457 3.27439 2.05863 2.7597 2.44559 2.3724L4.55766 0.257864C4.72239 0.0929656 4.94587 0.00025407 5.17896 0.000122211C5.41204 -9.64808e-06 5.63563 0.092449 5.80055 0.257161C5.88222 0.338722 5.94703 0.435572 5.99127 0.542181C6.03552 0.64879 6.05833 0.76307 6.05841 0.878495C6.05848 0.99392 6.03582 1.10823 5.99172 1.2149C5.94762 1.32156 5.88293 1.4185 5.80137 1.50017L3.68918 3.61482C3.66192 3.64195 3.64031 3.67423 3.62561 3.70977C3.6109 3.74532 3.60339 3.78342 3.60352 3.82189V56.7358C3.60352 57.5664 4.27805 58.2422 5.10703 58.2422C5.93602 58.2422 6.61055 57.5664 6.61055 56.7358V50.2148C6.61055 48.4149 8.07352 46.9505 9.87187 46.9505L54.7045 46.9701C57.382 46.9701 59.5605 49.1508 59.5605 51.8313C59.5605 54.5117 57.382 56.6924 54.7043 56.6924H51.7396C51.2541 56.6924 50.8607 56.2989 50.8607 55.8135C50.8607 55.3281 51.2541 54.9346 51.7396 54.9346H54.7043C56.4128 54.9346 57.8027 53.5424 57.8027 51.8313C57.8027 50.1201 56.4128 48.7279 54.7043 48.7279L9.87164 48.7083C9.04301 48.7083 8.36848 49.3842 8.36848 50.2148V56.7358C8.36836 58.5357 6.90539 60 5.10703 60Z" fill="#D2CFE9"/>
<path d="M49.0349 20.464L39.4505 16.9422H39.8516C40.6685 16.9422 41.3692 16.3024 41.3842 15.4846C41.3994 14.6515 40.7295 13.9712 39.9008 13.9712H26.751C25.9342 13.9712 25.2334 14.611 25.2184 15.4289C25.2032 16.262 25.8731 16.9421 26.7018 16.9421H27.1521L17.5677 20.4638C15.9374 21.0629 14.8536 22.6171 14.8536 24.3559V50.0114C14.8536 51.3617 15.947 52.4565 17.2957 52.4565H49.3071C50.6558 52.4565 51.7492 51.3617 51.7492 50.0114V24.356C51.7491 22.6171 50.6653 21.063 49.0349 20.464Z" fill="#FFE177"/>
<path d="M49.0349 20.464L39.4505 16.9423H39.8498C40.6677 16.9423 41.3691 16.3024 41.3841 15.4848C41.3994 14.6516 40.7295 13.9713 39.9007 13.9713H36.3851C37.2483 13.9713 37.9393 14.7095 37.8629 15.5898C37.8145 16.1469 37.448 16.6019 36.9566 16.8137L37.0263 17.3434L45.5191 20.464C47.1495 21.063 48.2332 22.6172 48.2332 24.356V50.0115C48.2332 51.3619 47.1398 52.4566 45.7911 52.4566H49.3068C50.6555 52.4566 51.7488 51.3619 51.7488 50.0115V24.356C51.7491 22.6171 50.6653 21.063 49.0349 20.464Z" fill="#FFD15B"/>
<path d="M40.7313 11.8368C40.5774 11.8369 40.4261 11.7967 40.2926 11.7199C40.1592 11.6432 40.0482 11.5328 39.9709 11.3997L37.4082 6.99447C37.1634 6.57751 36.7083 6.31666 36.2223 6.31666H30.3803C29.8943 6.31666 29.4393 6.57751 29.1928 6.9974L26.5787 11.4061C26.4588 11.6045 26.2654 11.7475 26.0405 11.804C25.8157 11.8604 25.5776 11.8257 25.3782 11.7075C25.1788 11.5893 25.0342 11.3971 24.9759 11.1727C24.9175 10.9483 24.9502 10.71 25.0668 10.5096L27.6787 6.10443C28.2374 5.15251 29.2732 4.55896 30.3803 4.55896H36.2223C37.3291 4.55896 38.3652 5.1524 38.9258 6.10771L41.4902 10.5158C41.5679 10.6493 41.6091 10.801 41.6095 10.9554C41.6099 11.1099 41.5696 11.2618 41.4927 11.3957C41.4157 11.5296 41.3048 11.6409 41.1712 11.7184C41.0375 11.7958 40.8858 11.8366 40.7313 11.8368Z" fill="#685E68"/>
<path d="M41.462 13.9713H25.1406C24.4581 13.9713 23.9048 13.4173 23.9048 12.7339V11.6499C23.9048 10.3426 24.9633 9.28284 26.2689 9.28284H40.3337C41.6393 9.28284 42.6977 10.3426 42.6977 11.6499V12.7339C42.6977 13.4173 42.1445 13.9713 41.462 13.9713Z" fill="#685E68"/>
<path d="M40.3337 9.28284H36.8181C38.1237 9.28284 39.1821 10.3426 39.1821 11.6499V12.7339C39.1821 13.4172 38.6289 13.9713 37.9464 13.9713H41.462C42.1445 13.9713 42.6977 13.4173 42.6977 12.7339V11.6499C42.6977 10.3427 41.6394 9.28284 40.3337 9.28284Z" fill="#554E56"/>
<path d="M33.3013 47.7964C39.7087 47.7964 44.9029 42.6022 44.9029 36.1948C44.9029 29.7875 39.7087 24.5933 33.3013 24.5933C26.8939 24.5933 21.6997 29.7875 21.6997 36.1948C21.6997 42.6022 26.8939 47.7964 33.3013 47.7964Z" fill="#F9F7F8"/>
<path d="M42.1264 27.3698C39.7691 25.0126 36.635 23.7144 33.3013 23.7144C29.9675 23.7144 26.8336 25.0126 24.4762 27.3698C19.6102 32.2359 19.6102 40.1537 24.4762 45.0199C26.8335 47.3771 29.9675 48.6753 33.3013 48.6753C36.635 48.6753 39.769 47.3771 42.1264 45.0199C46.9925 40.1538 46.9925 32.236 42.1264 27.3698ZM40.8833 43.7769C38.8582 45.8021 36.1654 46.9174 33.3013 46.9174C30.7323 46.9174 28.303 46.0176 26.3678 44.3712L27.3377 43.4013C27.5014 43.2362 27.5929 43.013 27.5924 42.7806C27.5919 42.5481 27.4993 42.3254 27.335 42.161C27.1706 41.9967 26.9478 41.9041 26.7154 41.9036C26.483 41.9031 26.2598 41.9947 26.0947 42.1584L25.1254 43.1278C21.5518 38.9194 21.7479 32.584 25.7194 28.6127C27.7445 26.5874 30.4372 25.4722 33.3013 25.4722C35.8703 25.4722 38.2997 26.3719 40.2348 28.0183L39.265 28.9883C39.1833 29.0699 39.1186 29.1668 39.0744 29.2734C39.0303 29.38 39.0075 29.4943 39.0075 29.6097C39.0075 29.7252 39.0303 29.8394 39.0745 29.9461C39.1187 30.0527 39.1834 30.1496 39.2651 30.2312C39.4366 30.4028 39.6616 30.4886 39.8865 30.4886C40.1114 30.4886 40.3364 30.4028 40.5081 30.2312L41.4773 29.2618C45.0507 33.4702 44.8547 39.8056 40.8833 43.7769Z" fill="#FE76A8"/>
<path d="M33.0053 33.1631C32.8793 33.1633 32.7547 33.1363 32.6401 33.084C32.5254 33.0317 32.4234 32.9553 32.3409 32.86L31.5681 31.9689C31.4925 31.8817 31.4348 31.7805 31.3983 31.671C31.3618 31.5615 31.3472 31.4459 31.3554 31.3308C31.3636 31.2156 31.3943 31.1032 31.446 31C31.4976 30.8968 31.569 30.8047 31.6562 30.7291C31.7434 30.6535 31.8446 30.5958 31.9541 30.5593C32.0636 30.5228 32.1793 30.5082 32.2944 30.5164C32.4095 30.5246 32.5219 30.5553 32.6251 30.607C32.7284 30.6586 32.8204 30.73 32.8961 30.8172L33.6689 31.7083C33.7793 31.8356 33.8508 31.9919 33.8748 32.1587C33.8989 32.3255 33.8745 32.4956 33.8046 32.6489C33.7346 32.8022 33.6221 32.9322 33.4804 33.0234C33.3387 33.1145 33.1738 33.163 33.0053 33.1631Z" fill="#FFC344"/>
<path d="M33.5332 33.1631C33.3647 33.163 33.1998 33.1145 33.0581 33.0234C32.9164 32.9322 32.8038 32.8022 32.7339 32.6489C32.664 32.4956 32.6396 32.3255 32.6636 32.1587C32.6877 31.9919 32.7592 31.8356 32.8696 31.7083L33.6424 30.8172C33.7951 30.6411 34.0116 30.5329 34.2441 30.5164C34.4766 30.4998 34.7062 30.5764 34.8823 30.7291C35.0584 30.8818 35.1666 31.0982 35.1831 31.3308C35.1996 31.5633 35.1231 31.7928 34.9704 31.9689L34.1975 32.86C34.1151 32.9553 34.0131 33.0317 33.8984 33.084C33.7838 33.1363 33.6592 33.1633 33.5332 33.1631Z" fill="#FFC344"/>
<path d="M38.4916 37.0728H36.1713C35.6858 37.0728 35.2924 36.6792 35.2924 36.1938C35.2924 35.7085 35.6858 35.3149 36.1713 35.3149H38.4916C38.7247 35.3149 38.9483 35.4075 39.1131 35.5724C39.2779 35.7372 39.3705 35.9607 39.3705 36.1938C39.3705 36.4269 39.2779 36.6505 39.1131 36.8153C38.9483 36.9802 38.7247 37.0728 38.4916 37.0728Z" fill="#FFC344"/>
<path d="M35.1199 34.726C34.955 34.5613 34.8623 34.3379 34.8621 34.1048C34.862 33.8717 34.9544 33.6481 35.1191 33.4832L35.9208 32.6804C36.0707 32.531 36.1896 32.3534 36.2705 32.1578C36.3514 31.9622 36.3927 31.7526 36.3921 31.5409C36.3921 31.0555 36.7855 30.662 37.271 30.662C37.7565 30.662 38.1499 31.0555 38.1499 31.5409C38.1499 32.4404 37.8 33.2862 37.1645 33.9225L35.15 35.938C34.9785 36.1099 35.2915 34.8974 35.1199 34.726ZM37.2711 41.8755C37.038 41.8755 36.8145 41.7829 36.6497 41.6181C36.4848 41.4533 36.3922 41.2297 36.3922 40.9966C36.3922 40.4027 36.1612 39.8443 35.742 39.4244L35.2982 38.9802C35.1335 38.8153 35.041 38.5917 35.0412 38.3586C35.0413 38.1255 35.1341 37.902 35.299 37.7373C35.6423 37.3943 34.5961 35.7919 34.9392 36.1352L36.9858 38.1823C37.7366 38.9343 38.1502 39.9336 38.1502 40.9966C38.1501 41.2297 38.0575 41.4533 37.8926 41.6181C37.7278 41.7829 37.5042 41.8755 37.2711 41.8755ZM30.4313 37.0728H28.1109C27.6254 37.0728 27.232 36.6793 27.232 36.1939C27.232 35.7085 27.6254 35.315 28.1109 35.315H30.4313C30.6644 35.315 30.8879 35.4076 31.0527 35.5725C31.2176 35.7373 31.3102 35.9608 31.3102 36.1939C31.3102 36.427 31.2176 36.6506 31.0527 36.8154C30.8879 36.9802 30.6644 37.0728 30.4313 37.0728Z" fill="#FFC344"/>
<path d="M31.073 35.5585L29.438 33.9224C28.8155 33.299 28.4668 32.4745 28.453 31.5952C28.4455 31.1163 28.7987 30.6925 29.2768 30.6636C29.3969 30.6561 29.5172 30.6733 29.6302 30.7142C29.7433 30.7551 29.8469 30.8188 29.9344 30.9013C30.0219 30.9838 30.0915 31.0833 30.139 31.1938C30.1865 31.3043 30.2107 31.4234 30.2104 31.5436C30.2102 31.7548 30.2518 31.9639 30.3327 32.159C30.4135 32.3541 30.5321 32.5313 30.6817 32.6804L31.4664 33.4661C31.7325 33.7326 31.8157 34.2288 31.6199 34.5506C31.4446 34.8388 31.2446 35.7304 31.073 35.5585ZM29.3316 41.8755C29.0985 41.8755 28.8749 41.7829 28.7101 41.6181C28.5453 41.4532 28.4527 41.2297 28.4527 40.9966C28.4527 39.9336 28.8661 38.9342 29.617 38.1823L31.1257 36.6732C31.4688 36.3298 30.9605 37.3941 31.3038 37.7374C31.4687 37.9021 31.5615 38.1255 31.5616 38.3586C31.5618 38.5917 31.4693 38.8153 31.3046 38.9802L30.8609 39.4246C30.654 39.6307 30.49 39.8757 30.3784 40.1456C30.2668 40.4154 30.2098 40.7047 30.2106 40.9967C30.2105 41.2298 30.1179 41.4533 29.953 41.6181C29.7882 41.7829 29.5647 41.8755 29.3316 41.8755Z" fill="#FFC344"/>
<path d="M33.3013 40.1924C34.8466 40.1924 36.0993 38.4358 36.0993 36.2688C36.0993 34.1018 34.8466 32.3451 33.3013 32.3451C31.756 32.3451 30.5033 34.1018 30.5033 36.2688C30.5033 38.4358 31.756 40.1924 33.3013 40.1924Z" fill="#FFE177"/>
<path d="M4.23293 32.8712H1.26844V27.8099C1.26844 26.9901 1.93207 26.3257 2.75074 26.3257C3.56941 26.3257 4.23305 26.9901 4.23305 27.8099V32.8712H4.23293Z" fill="#685E68"/>
<path d="M2.75074 46.5761C1.47434 46.5761 0.439453 45.5414 0.439453 44.2648V33.2302C0.439453 31.9538 1.47422 30.9189 2.75063 30.9189C4.02703 30.9189 5.0618 31.9537 5.0618 33.2302V44.2648C5.06191 45.5414 4.02715 46.5761 2.75074 46.5761Z" fill="#FE76A8"/>
<path d="M49.3055 59.1022H17.2971C15.9476 59.1022 14.8535 58.0082 14.8535 56.6587V54.9001C14.8535 53.5506 15.9476 52.4565 17.2971 52.4565H49.3055C50.655 52.4565 51.7491 53.5506 51.7491 54.9001V56.6587C51.7491 58.0082 50.655 59.1022 49.3055 59.1022Z" fill="#685E68"/>
<path d="M22.4295 59.1023V56.2418C22.4295 55.7564 22.0361 55.3629 21.5505 55.3629C21.065 55.3629 20.6716 55.7564 20.6716 56.2418V59.1023H22.4295ZM28.3048 59.1023V56.2418C28.3048 55.7564 27.9114 55.3629 27.4259 55.3629C26.9404 55.3629 26.547 55.7564 26.547 56.2418V59.1023H28.3048ZM34.1802 59.1023V56.2418C34.1802 55.7564 33.7868 55.3629 33.3013 55.3629C32.8158 55.3629 32.4224 55.7564 32.4224 56.2418V59.1023H34.1802ZM40.0556 59.1023V56.2418C40.0556 55.7564 39.6622 55.3629 39.1767 55.3629C38.6912 55.3629 38.2978 55.7564 38.2978 56.2418V59.1023H40.0556ZM45.9309 59.1023V56.2418C45.9309 55.7564 45.5375 55.3629 45.052 55.3629C44.5665 55.3629 44.1731 55.7564 44.1731 56.2418V59.1023H45.9309Z" fill="#554E56"/>
<path d="M33.5293 16.0633H26.7016C26.2161 16.0633 25.8227 16.4568 25.8227 16.9422C25.8227 17.4276 26.2161 17.8211 26.7016 17.8211H33.5293C34.0148 17.8211 34.4082 17.4276 34.4082 16.9422C34.4082 16.4568 34.0148 16.0633 33.5293 16.0633ZM39.8516 16.0633C39.8516 16.0633 38.0046 16.0514 37.5622 16.0637C37.3313 16.0701 37.1122 16.1671 36.9523 16.3338C36.7924 16.5005 36.7045 16.7234 36.7077 16.9544C36.7109 17.1854 36.8049 17.4058 36.9693 17.568C37.1338 17.7302 37.3555 17.8211 37.5865 17.8211H39.8516C40.3371 17.8211 40.7305 17.4276 40.7305 16.9422C40.7305 16.4568 40.3371 16.0633 39.8516 16.0633Z" fill="#685E68"/>
</g>
<defs>
<clipPath id="clip0_97_2079">
<rect width="60" height="60" fill="white"/>
</clipPath>
</defs>
</svg>
