<svg width="60" height="60" viewBox="0 0 60 60" fill="none" xmlns="http://www.w3.org/2000/svg">
<g clip-path="url(#clip0_97_1940)">
<path d="M47.458 24.2919C47.2249 24.2919 47.0014 24.1993 46.8365 24.0345C46.6717 23.8697 46.5791 23.6461 46.5791 23.413V18.8734C46.5791 18.6403 46.6717 18.4167 46.8365 18.2519C47.0014 18.0871 47.2249 17.9945 47.458 17.9945C47.6911 17.9945 47.9147 18.0871 48.0795 18.2519C48.2443 18.4167 48.3369 18.6403 48.3369 18.8734V23.413C48.3369 23.6461 48.2443 23.8697 48.0795 24.0345C47.9147 24.1993 47.6911 24.2919 47.458 24.2919ZM13.7755 5.76586C13.5424 5.76586 13.3189 5.67326 13.154 5.50843C12.9892 5.34361 12.8966 5.12005 12.8966 4.88695V0.878906C12.8966 0.645806 12.9892 0.422253 13.154 0.257426C13.3189 0.0925988 13.5424 0 13.7755 0C14.0086 0 14.2322 0.0925988 14.397 0.257426C14.5618 0.422253 14.6544 0.645806 14.6544 0.878906V4.88695C14.6544 5.12005 14.5618 5.34361 14.397 5.50843C14.2322 5.67326 14.0086 5.76586 13.7755 5.76586ZM18.3752 5.76586C18.1421 5.76586 17.9186 5.67326 17.7538 5.50843C17.5889 5.34361 17.4963 5.12005 17.4963 4.88695V2.16258C17.4963 1.92948 17.5889 1.70592 17.7538 1.5411C17.9186 1.37627 18.1421 1.28367 18.3752 1.28367C18.6083 1.28367 18.8319 1.37627 18.9967 1.5411C19.1615 1.70592 19.2541 1.92948 19.2541 2.16258V4.88707C19.2541 5.12015 19.1615 5.34367 18.9967 5.50847C18.8319 5.67328 18.6083 5.76586 18.3752 5.76586ZM52.0577 24.2919C51.8246 24.2919 51.6011 24.1993 51.4363 24.0345C51.2714 23.8697 51.1788 23.6461 51.1788 23.413V20.3276C51.1788 20.0945 51.2714 19.8709 51.4363 19.7061C51.6011 19.5413 51.8246 19.4487 52.0577 19.4487C52.2908 19.4487 52.5144 19.5413 52.6792 19.7061C52.844 19.8709 52.9366 20.0945 52.9366 20.3276V23.413C52.9366 23.6461 52.844 23.8697 52.6792 24.0345C52.5144 24.1993 52.2908 24.2919 52.0577 24.2919Z" fill="#F3EAE6"/>
<path fill-rule="evenodd" clip-rule="evenodd" d="M55.4006 59.1211V24.1985C55.4006 23.7673 55.0463 23.413 54.615 23.413H43.5536L40.5282 41.6315L43.5536 59.1211H55.4006Z" fill="#B8ACAC"/>
<path d="M49.477 31.2382H43.5536C43.3205 31.2382 43.0969 31.1456 42.9321 30.9808C42.7672 30.816 42.6746 30.5924 42.6746 30.3593C42.6746 30.1262 42.7672 29.9027 42.9321 29.7378C43.0969 29.573 43.3205 29.4804 43.5536 29.4804H49.477C49.7101 29.4804 49.9337 29.573 50.0985 29.7378C50.2633 29.9027 50.3559 30.1262 50.3559 30.3593C50.3559 30.5924 50.2633 30.816 50.0985 30.9808C49.9337 31.1456 49.7101 31.2382 49.477 31.2382ZM49.477 37.5328H43.5536C43.3205 37.5328 43.0969 37.4402 42.9321 37.2754C42.7672 37.1106 42.6746 36.887 42.6746 36.6539C42.6746 36.4208 42.7672 36.1973 42.9321 36.0324C43.0969 35.8676 43.3205 35.775 43.5536 35.775H49.477C49.7101 35.775 49.9337 35.8676 50.0985 36.0324C50.2633 36.1973 50.3559 36.4208 50.3559 36.6539C50.3559 36.887 50.2633 37.1106 50.0985 37.2754C49.9337 37.4402 49.7101 37.5328 49.477 37.5328ZM49.477 43.8274H43.5536C43.3205 43.8274 43.0969 43.7348 42.9321 43.57C42.7672 43.4052 42.6746 43.1816 42.6746 42.9485C42.6746 42.7154 42.7672 42.4919 42.9321 42.3271C43.0969 42.1622 43.3205 42.0696 43.5536 42.0696H49.477C49.7101 42.0696 49.9337 42.1622 50.0985 42.3271C50.2633 42.4919 50.3559 42.7154 50.3559 42.9485C50.3559 43.1816 50.2633 43.4052 50.0985 43.57C49.9337 43.7348 49.7101 43.8274 49.477 43.8274ZM49.477 50.1253H43.5536C43.3205 50.1253 43.0969 50.0327 42.9321 49.8679C42.7672 49.7031 42.6746 49.4795 42.6746 49.2464C42.6746 49.0133 42.7672 48.7898 42.9321 48.6249C43.0969 48.4601 43.3205 48.3675 43.5536 48.3675H49.477C49.7101 48.3675 49.9337 48.4601 50.0985 48.6249C50.2633 48.7898 50.3559 49.0133 50.3559 49.2464C50.3559 49.4795 50.2633 49.7031 50.0985 49.8679C49.9337 50.0327 49.7101 50.1253 49.477 50.1253Z" fill="#F3EAE6"/>
<path fill-rule="evenodd" clip-rule="evenodd" d="M52.0143 24.1985V59.1211H55.4005V24.1985C55.4005 23.7673 55.0461 23.413 54.6149 23.413H51.2286C51.66 23.4129 52.0143 23.7673 52.0143 24.1985Z" fill="#9D9696"/>
<path fill-rule="evenodd" clip-rule="evenodd" d="M43.5536 59.1211V9.54026L25.9768 7.21362L10.6065 9.54026V49.6442L7.81863 54.6851L10.6065 59.121L43.5536 59.1211Z" fill="#F3EAE6"/>
<path fill-rule="evenodd" clip-rule="evenodd" d="M27.08 59.1211V45.6428L23.3896 43.8276L20.3309 45.6428V59.1211H27.08ZM33.8259 59.1211V45.6428L30.6268 43.8276L27.08 45.6428V59.1211H33.8259Z" fill="#6BD9E7"/>
<path fill-rule="evenodd" clip-rule="evenodd" d="M10.6065 9.54024H44.5296C44.6616 9.53994 44.7881 9.48736 44.8814 9.39403C44.9748 9.30069 45.0273 9.17419 45.0277 9.0422V5.38501C45.0273 5.25301 44.9748 5.12651 44.8814 5.03318C44.7881 4.93984 44.6616 4.88727 44.5296 4.88696H9.62707C9.35625 4.88696 9.13231 5.11091 9.13231 5.38501V9.04208C9.13231 9.31618 9.35625 9.54013 9.62707 9.54013H10.6065V9.54024Z" fill="#B8ACAC"/>
<path fill-rule="evenodd" clip-rule="evenodd" d="M16.9078 21.8919H20.6618C20.7539 21.8914 20.842 21.8546 20.9071 21.7895C20.9722 21.7244 21.009 21.6363 21.0095 21.5442V15.4168C21.009 15.3248 20.9722 15.2366 20.9071 15.1715C20.842 15.1064 20.7539 15.0696 20.6618 15.0692H16.9078C16.8621 15.0691 16.8169 15.0781 16.7747 15.0956C16.7325 15.113 16.6942 15.1386 16.6619 15.1709C16.6296 15.2032 16.604 15.2416 16.5865 15.2838C16.5691 15.326 16.5601 15.3712 16.5601 15.4168V21.5442C16.5601 21.5899 16.569 21.6351 16.5865 21.6773C16.6039 21.7195 16.6296 21.7579 16.6619 21.7902C16.6941 21.8225 16.7325 21.8481 16.7747 21.8656C16.8169 21.883 16.8621 21.892 16.9078 21.8919ZM29.2095 21.8919C29.3015 21.8914 29.3897 21.8546 29.4548 21.7895C29.5199 21.7244 29.5567 21.6363 29.5571 21.5442V15.4168C29.5567 15.3248 29.5199 15.2366 29.4548 15.1715C29.3897 15.1064 29.3015 15.0696 29.2095 15.0692H25.4555C25.3634 15.0696 25.2753 15.1064 25.2102 15.1715C25.1451 15.2366 25.1083 15.3248 25.1078 15.4168V21.5442C25.1083 21.6363 25.1451 21.7244 25.2102 21.7895C25.2753 21.8546 25.3634 21.8914 25.4555 21.8919H29.2095ZM34.003 21.8919H37.757C37.8491 21.8914 37.9372 21.8546 38.0023 21.7895C38.0674 21.7244 38.1042 21.6363 38.1047 21.5442V15.4168C38.1042 15.3248 38.0674 15.2366 38.0023 15.1715C37.9372 15.1064 37.8491 15.0696 37.757 15.0692H34.003C33.9109 15.0696 33.8228 15.1064 33.7577 15.1715C33.6926 15.2366 33.6558 15.3248 33.6553 15.4168V21.5442C33.6558 21.6363 33.6926 21.7244 33.7577 21.7895C33.8228 21.8546 33.9109 21.8914 34.003 21.8919ZM34.003 33.9897H37.757C37.8491 33.9892 37.9372 33.9524 38.0023 33.8873C38.0674 33.8222 38.1042 33.734 38.1047 33.642V27.5146C38.1042 27.4225 38.0674 27.3344 38.0023 27.2693C37.9372 27.2042 37.8491 27.1674 37.757 27.1669H34.003C33.9109 27.1674 33.8228 27.2042 33.7577 27.2693C33.6926 27.3344 33.6558 27.4225 33.6553 27.5146V33.642C33.6558 33.734 33.6926 33.8222 33.7577 33.8872C33.8228 33.9523 33.911 33.9891 34.003 33.9897ZM25.4554 33.9897H29.2093C29.3014 33.9892 29.3896 33.9524 29.4547 33.8873C29.5198 33.8222 29.5565 33.734 29.557 33.642V27.5146C29.5565 27.4225 29.5198 27.3344 29.4547 27.2693C29.3896 27.2042 29.3014 27.1674 29.2093 27.1669H25.4554C25.3633 27.1674 25.2751 27.2042 25.21 27.2693C25.1449 27.3344 25.1082 27.4225 25.1077 27.5146V33.642C25.1082 33.734 25.145 33.8221 25.2101 33.8872C25.2752 33.9523 25.3633 33.9891 25.4554 33.9897ZM21.0094 33.6421V27.5147C21.0089 27.4226 20.9721 27.3345 20.907 27.2694C20.8419 27.2043 20.7537 27.1675 20.6617 27.167H16.9078C16.8621 27.167 16.8169 27.1759 16.7747 27.1934C16.7325 27.2109 16.6942 27.2365 16.6619 27.2688C16.6296 27.3011 16.604 27.3394 16.5865 27.3816C16.5691 27.4238 16.5601 27.469 16.5601 27.5147V33.6421C16.5601 33.6878 16.5691 33.733 16.5865 33.7752C16.604 33.8174 16.6296 33.8557 16.6619 33.888C16.6942 33.9203 16.7325 33.9459 16.7747 33.9634C16.8169 33.9808 16.8621 33.9898 16.9078 33.9898H20.6618C20.7538 33.9892 20.8419 33.9524 20.907 33.8873C20.9721 33.8222 21.0089 33.7341 21.0094 33.6421Z" fill="#6BD9E7"/>
<path fill-rule="evenodd" clip-rule="evenodd" d="M10.6065 12.7226H40.3077V59.1211H43.5536V9.54022H10.6065V12.7226Z" fill="#E0D2CE"/>
<path fill-rule="evenodd" clip-rule="evenodd" d="M40.6921 5.38501V9.04196C40.6921 9.31606 40.4681 9.54001 40.1973 9.54001H44.5296C44.6616 9.5397 44.7881 9.48713 44.8814 9.39379C44.9748 9.30046 45.0273 9.17396 45.0277 9.04196V5.38501C45.0273 5.25301 44.9748 5.12651 44.8814 5.03318C44.7881 4.93984 44.6616 4.88727 44.5296 4.88696H40.1973C40.4681 4.88696 40.6921 5.11091 40.6921 5.38501Z" fill="#9D9696"/>
<path fill-rule="evenodd" clip-rule="evenodd" d="M37.991 15.1595L33.7523 21.785C33.8159 21.8518 33.9061 21.892 34.003 21.892H37.757C37.8491 21.8915 37.9372 21.8547 38.0023 21.7896C38.0674 21.7245 38.1042 21.6364 38.1047 21.5443V15.4169C38.1047 15.3166 38.0612 15.223 37.991 15.1595ZM29.4434 15.1595L25.2047 21.785C25.2682 21.8518 25.3552 21.892 25.4554 21.892H29.2093C29.3014 21.8915 29.3896 21.8547 29.4546 21.7896C29.5197 21.7245 29.5565 21.6364 29.557 21.5443V15.4169C29.557 15.3166 29.5137 15.223 29.4434 15.1595ZM20.8958 15.1595L16.6538 21.785C16.6866 21.8192 16.7261 21.8464 16.7697 21.8648C16.8134 21.8832 16.8604 21.8924 16.9078 21.892H20.6618C20.7539 21.8915 20.842 21.8547 20.9071 21.7896C20.9722 21.7245 21.009 21.6364 21.0095 21.5443V15.4169C21.0094 15.3166 20.9626 15.223 20.8958 15.1595ZM20.8958 27.2572L16.6538 33.8794C16.6864 33.914 16.7257 33.9417 16.7694 33.9607C16.8131 33.9796 16.8602 33.9895 16.9078 33.9896H20.6618C20.7539 33.9892 20.842 33.9524 20.9071 33.8873C20.9722 33.8222 21.009 33.734 21.0095 33.6419V27.5146C21.0094 27.411 20.9626 27.3207 20.8958 27.2572ZM29.4434 27.2572L25.2047 33.8794C25.2682 33.9463 25.3552 33.9896 25.4554 33.9896H29.2093C29.3014 33.9892 29.3896 33.9524 29.4546 33.8873C29.5197 33.8222 29.5565 33.734 29.557 33.6419V27.5146C29.557 27.411 29.5137 27.3207 29.4434 27.2572ZM37.991 27.2572L33.7523 33.8794C33.7845 33.9137 33.8233 33.9412 33.8664 33.9601C33.9095 33.9791 33.9559 33.9891 34.003 33.9896H37.757C37.8491 33.9892 37.9372 33.9524 38.0023 33.8873C38.0674 33.8222 38.1042 33.734 38.1047 33.6419V27.5146C38.1047 27.411 38.0612 27.3207 37.991 27.2572ZM27.08 45.6428L20.3309 59.1211H27.08V45.6428Z" fill="#00C7DD"/>
<path fill-rule="evenodd" clip-rule="evenodd" d="M33.8259 45.6428L27.08 59.1211H33.8259V45.6428Z" fill="#00C7DD"/>
<path fill-rule="evenodd" clip-rule="evenodd" d="M10.6065 59.1211V49.6442L8.48379 48.3137L6.36105 49.6442V59.1211H10.6065Z" fill="#D87E49"/>
<path fill-rule="evenodd" clip-rule="evenodd" d="M10.6065 49.6442C12.9599 48.6346 14.638 45.9938 14.638 42.895C14.638 39.7995 12.9599 37.1587 10.6065 36.1491C9.94465 35.8649 9.22922 35.7079 8.48379 35.7079C5.08406 35.7079 2.32957 38.927 2.32957 42.895C2.32957 45.9938 4.0077 48.6346 6.36106 49.6442C7.02293 49.9284 7.73836 50.0821 8.48379 50.0821C9.22922 50.0821 9.94465 49.9284 10.6065 49.6442Z" fill="#80D261"/>
<path fill-rule="evenodd" clip-rule="evenodd" d="M8.48379 50.0821V59.1211H10.6065V49.6442C9.93615 49.9332 9.21381 50.0822 8.48379 50.0821Z" fill="#C86D35"/>
<path fill-rule="evenodd" clip-rule="evenodd" d="M10.6065 38.2451C11.5191 39.4987 12.0674 41.1234 12.0674 42.895C12.0674 44.67 11.5192 46.2946 10.6065 47.5483C10.2422 48.0497 9.81762 48.4909 9.34957 48.8587C8.94845 49.1777 8.50664 49.4418 8.03578 49.6442C7.76397 49.7607 7.48342 49.8558 7.19672 49.9284C7.61809 50.0304 8.05011 50.0821 8.48367 50.0821C9.21369 50.0822 9.93604 49.9332 10.6064 49.6442C12.9598 48.6346 14.6379 45.9938 14.6379 42.895C14.6379 39.7995 12.9598 37.1587 10.6064 36.1491C9.94453 35.8649 9.2291 35.7079 8.48367 35.7079C8.04246 35.7079 7.61121 35.7647 7.2 35.865C7.48546 35.9381 7.76485 36.0331 8.03567 36.1492C9.04207 36.5803 9.92461 37.3091 10.6065 38.2451Z" fill="#4FC122"/>
<path d="M27.08 60C26.8469 60 26.6234 59.9074 26.4586 59.7426C26.2937 59.5777 26.2011 59.3542 26.2011 59.1211V45.6428C26.2011 45.4097 26.2937 45.1861 26.4586 45.0213C26.6234 44.8565 26.8469 44.7639 27.08 44.7639C27.3131 44.7639 27.5367 44.8565 27.7015 45.0213C27.8663 45.1861 27.9589 45.4097 27.9589 45.6428V59.1211C27.9589 59.3542 27.8663 59.5777 27.7015 59.7426C27.5367 59.9074 27.3131 60 27.08 60Z" fill="#F3EAE6"/>
<path fill-rule="evenodd" clip-rule="evenodd" d="M20.3309 45.6427H34.7118C34.9658 45.6427 35.1764 45.4322 35.1764 45.1747V41.7349C35.1764 41.4775 34.9658 41.2668 34.7118 41.2668H19.4483C19.3243 41.2672 19.2055 41.3166 19.1178 41.4043C19.0301 41.492 18.9806 41.6109 18.9803 41.7349V45.1747C18.9806 45.2987 19.0301 45.4175 19.1178 45.5052C19.2055 45.5929 19.3243 45.6424 19.4483 45.6427H20.3309Z" fill="#B8ACAC"/>
<path fill-rule="evenodd" clip-rule="evenodd" d="M32.004 41.735V45.1748C32.0037 45.2988 31.9542 45.4177 31.8665 45.5054C31.7788 45.5931 31.66 45.6425 31.536 45.6429H34.7116C34.9657 45.6429 35.1763 45.4323 35.1763 45.1748V41.735C35.1763 41.4777 34.9657 41.267 34.7116 41.267H31.536C31.66 41.2673 31.7789 41.3167 31.8666 41.4044C31.9543 41.4921 32.0037 41.611 32.004 41.735Z" fill="#9D9696"/>
<path d="M58.125 60H1.875C1.6419 60 1.41835 59.9074 1.25352 59.7426C1.08869 59.5777 0.996094 59.3542 0.996094 59.1211C0.996094 58.888 1.08869 58.6644 1.25352 58.4996C1.41835 58.3348 1.6419 58.2422 1.875 58.2422H58.125C58.3581 58.2422 58.5817 58.3348 58.7465 58.4996C58.9113 58.6644 59.0039 58.888 59.0039 59.1211C59.0039 59.3542 58.9113 59.5777 58.7465 59.7426C58.5817 59.9074 58.3581 60 58.125 60Z" fill="#746E6E"/>
</g>
<defs>
<clipPath id="clip0_97_1940">
<rect width="60" height="60" fill="white"/>
</clipPath>
</defs>
</svg>
