<svg width="60" height="60" viewBox="0 0 60 60" fill="none" xmlns="http://www.w3.org/2000/svg">
<g clip-path="url(#clip0_97_2007)">
<path d="M54.9477 14.9394C54.7146 14.9394 54.491 14.8468 54.3262 14.682C54.1614 14.5171 54.0688 14.2936 54.0688 14.0605V6.4433C54.0688 5.95779 54.4623 5.56439 54.9477 5.56439C55.4331 5.56439 55.8266 5.95779 55.8266 6.4433V14.0605C55.8266 14.2936 55.734 14.5171 55.5692 14.682C55.4044 14.8468 55.1808 14.9394 54.9477 14.9394ZM12.9622 18.558C12.7291 18.558 12.5056 18.4654 12.3407 18.3006C12.1759 18.1358 12.0833 17.9122 12.0833 17.6791V12.7933C12.083 12.669 12.0422 12.5482 11.9671 12.4492L9.09562 8.66728C8.95466 8.48163 8.89322 8.24758 8.92483 8.01662C8.95643 7.78567 9.07848 7.57672 9.26414 7.43576C9.4498 7.2948 9.68385 7.23336 9.9148 7.26496C10.1458 7.29656 10.3547 7.41862 10.4957 7.60427L13.3665 11.3854C13.6736 11.7907 13.8402 12.2849 13.8411 12.7933V17.6791C13.8411 17.9122 13.7485 18.1358 13.5837 18.3006C13.4189 18.4654 13.1953 18.558 12.9622 18.558ZM17.5402 46.2751H2.32758C1.04414 46.2751 0 45.231 0 43.9475V32.4933C0 31.2098 1.04414 30.1657 2.32758 30.1657H11.5134C11.6645 30.1655 11.8093 30.1054 11.9161 29.9986C12.0229 29.8918 12.083 29.747 12.0832 29.5959V25.4056C12.0832 24.9201 12.4767 24.5267 12.9621 24.5267C13.4475 24.5267 13.841 24.9201 13.841 25.4056V29.5959C13.841 30.8794 12.7969 31.9235 11.5134 31.9235H2.32758C2.17652 31.9237 2.03171 31.9838 1.9249 32.0906C1.81809 32.1974 1.758 32.3422 1.75781 32.4933V43.9475C1.75797 44.0986 1.81805 44.2434 1.92486 44.3502C2.03168 44.4571 2.17651 44.5171 2.32758 44.5173H17.54C18.0254 44.5173 18.4189 44.9107 18.4189 45.3962C18.4189 45.8817 18.0255 46.2751 17.5402 46.2751Z" fill="#EAF6FF"/>
<path d="M12.0883 27.1085H13.8349C14.0836 27.1085 14.322 27.0097 14.4978 26.8339C14.6737 26.6581 14.7724 26.4196 14.7724 26.171V17.1397C14.7724 16.8911 14.6737 16.6526 14.4978 16.4768C14.322 16.301 14.0836 16.2022 13.8349 16.2022H12.0883C11.8396 16.2022 11.6012 16.301 11.4253 16.4768C11.2495 16.6526 11.1508 16.8911 11.1508 17.1397V26.171C11.1508 26.4196 11.2495 26.6581 11.4253 26.8339C11.6012 27.0097 11.8396 27.1085 12.0883 27.1085Z" fill="#8D9CA8"/>
<path d="M15.9349 47.7336H21.566V43.0588H15.9349C15.7485 43.0588 15.5696 43.1329 15.4378 43.2647C15.3059 43.3966 15.2318 43.5754 15.2318 43.7619V47.0305C15.2318 47.217 15.3059 47.3958 15.4378 47.5277C15.5696 47.6595 15.7485 47.7336 15.9349 47.7336Z" fill="#7A8C98"/>
<path d="M41.5254 11.1079H37.5415V2.32324H41.5254V11.1079Z" fill="#EAF6FF"/>
<path d="M46.6359 0.9375V2.68477C46.6359 3.20156 46.2152 3.62227 45.6984 3.62227H33.3691C32.8512 3.62227 32.4316 3.20156 32.4316 2.68477V0.9375C32.4316 0.419531 32.8512 0 33.3691 0H45.6984C46.2152 0 46.6359 0.419531 46.6359 0.9375ZM48.7254 9.96797V13.4191H30.341V9.96797C30.341 9.32109 30.866 8.79609 31.5129 8.79609H47.5535C48.2004 8.79609 48.7254 9.32109 48.7254 9.96797Z" fill="#8D9CA8"/>
<path d="M46.6359 0.9375V2.68477C46.6359 3.20156 46.2152 3.62227 45.6984 3.62227H42.8859C43.4191 3.62227 43.8516 3.18984 43.8516 2.65547V0.965625C43.8516 0.432422 43.4191 0 42.8859 0H45.6984C46.2152 0 46.6359 0.419531 46.6359 0.9375ZM48.7254 9.96797V13.4191H45.9422V10.0031C45.9422 9.33633 45.4008 8.79609 44.734 8.79609H47.5535C48.2004 8.79609 48.7254 9.32109 48.7254 9.96797Z" fill="#7A8C98"/>
<path d="M60 15.7219V28.377L59.2894 33.8827L60 35.9824V52.1836L40.2601 53.4599L19.0664 52.1836V35.9824L20.8718 32.8173L19.0664 28.377V15.7219C19.0664 13.7637 20.6543 12.1746 22.6137 12.1746H56.4633C56.5207 12.1746 56.5781 12.1758 56.6356 12.1793C58.5094 12.2742 60 13.8246 60 15.7219Z" fill="#EB5569"/>
<path d="M60 16.1671L59.4268 32.8173L60 35.9824V52.6288L58.5498 53.9051L57.0996 52.6288V16.2737C57.0996 14.2557 55.4636 12.6198 53.4457 12.6198H56.4633C56.5207 12.6198 56.5781 12.621 56.6355 12.6245C58.5094 12.7194 60 14.2698 60 16.1671Z" fill="#E53950"/>
<path d="M60 52.1836V58.5516C60 59.352 59.352 60 58.5516 60H54.7816C54.3375 60 53.9191 59.7973 53.6449 59.4492L51.7406 57.0399C51.4652 56.6918 51.0469 56.4891 50.6039 56.4891H28.4637C28.0195 56.4891 27.6012 56.6918 27.327 57.0399L25.4227 59.4492C25.1473 59.7973 24.7289 60 24.2859 60H20.516C19.7156 60 19.0664 59.352 19.0664 58.5516V52.1836H60ZM19.0664 28.377V35.9824H60L59.0039 32.1795L60 28.377H19.0664ZM52.8984 8.32877H56.9967C57.1832 8.32877 57.362 8.25469 57.4939 8.12283C57.6258 7.99097 57.6998 7.81212 57.6998 7.62564V5.4101C57.6998 5.22361 57.6258 5.04477 57.4939 4.91291C57.362 4.78105 57.1832 4.70697 56.9967 4.70697H52.8984C52.712 4.70697 52.5331 4.78105 52.4013 4.91291C52.2694 5.04477 52.1953 5.22361 52.1953 5.4101V7.62552C52.1953 7.71787 52.2135 7.80931 52.2488 7.89464C52.2841 7.97996 52.3359 8.05748 52.4012 8.12278C52.4665 8.18809 52.544 8.23989 52.6293 8.27523C52.7147 8.31058 52.8061 8.32877 52.8984 8.32877Z" fill="#8D9CA8"/>
<path d="M49.4156 25.0429V39.3164C49.4156 40.8328 48.1863 42.0621 46.6699 42.0621H32.3965C30.8801 42.0621 29.6508 40.8328 29.6508 39.3164V25.0429C29.6508 23.5265 30.8801 22.2972 32.3965 22.2972H46.6699C48.1863 22.2972 49.4156 23.5265 49.4156 25.0429Z" fill="#EAF6FF"/>
<path d="M60 52.1848V58.5516C60 59.352 59.352 60 58.5516 60H55.65C56.4504 60 57.0996 59.352 57.0996 58.5516V52.1848H60ZM57.0996 28.377H60V35.9824H57.0996V28.377Z" fill="#7A8C98"/>
<path d="M49.4156 25.0429V39.3164C49.4156 40.8328 48.1863 42.0621 46.6699 42.0621H43.5656C45.1277 42.0621 46.3945 40.7953 46.3945 39.2332V25.125C46.3945 23.5629 45.1277 22.2972 43.5656 22.2972H46.6699C48.1863 22.2972 49.4156 23.5265 49.4156 25.0429Z" fill="#D8ECFE"/>
<path d="M39.5334 25.3408C35.7626 25.3408 32.6947 28.4086 32.6947 32.1794C32.6947 35.9503 35.7626 39.0181 39.5334 39.0181C43.3043 39.0181 46.3721 35.9502 46.3721 32.1794C46.372 28.4086 43.3043 25.3408 39.5334 25.3408ZM44.6142 32.1795C44.6151 33.2231 44.2926 34.2415 43.6911 35.0944L36.6184 28.0217C37.4442 27.441 38.4492 27.0987 39.5333 27.0987C42.335 27.0986 44.6142 29.3778 44.6142 32.1795ZM34.4525 32.1795C34.4525 31.0955 34.7948 30.0905 35.3755 29.2647L42.4482 36.3374C41.6224 36.9181 40.6174 37.2604 39.5334 37.2604C36.7317 37.2604 34.4525 34.9811 34.4525 32.1795Z" fill="#EB5569"/>
</g>
<defs>
<clipPath id="clip0_97_2007">
<rect width="60" height="60" fill="white"/>
</clipPath>
</defs>
</svg>
