<svg width="60" height="60" viewBox="0 0 60 60" fill="none" xmlns="http://www.w3.org/2000/svg">
<g clip-path="url(#clip0_97_1905)">
<path d="M47.0982 22.6298L37.563 22.0253L36.892 12.4174C36.8535 11.8754 36.3782 11.4735 35.8423 11.5052C35.7135 11.5141 35.5876 11.5484 35.4719 11.606C35.3563 11.6636 35.2531 11.7434 35.1683 11.8408C35.0835 11.9383 35.0187 12.0515 34.9777 12.174C34.9367 12.2966 34.9202 12.4259 34.9291 12.5548L35.6148 22.3735L37.3539 23.983L46.9732 24.5927C46.9943 24.5942 47.0155 24.5947 47.0366 24.5947C47.5514 24.5947 47.9844 24.1942 48.0171 23.6737C48.0517 23.1315 47.6398 22.6644 47.0982 22.6298Z" fill="#F6D190"/>
<path d="M35.9001 26.5661C37.5294 26.5661 38.8501 25.2453 38.8501 23.616C38.8501 21.9868 37.5294 20.666 35.9001 20.666C34.2708 20.666 32.9501 21.9868 32.9501 23.616C32.9501 25.2453 34.2708 26.5661 35.9001 26.5661Z" fill="#785353"/>
<path d="M29.8214 26.7667C29.5797 26.7664 29.3465 26.677 29.1664 26.5158C28.9862 26.3545 28.8717 26.1326 28.8448 25.8923L27.9824 18.1575C27.9229 17.6179 28.3108 17.1314 28.8514 17.0714C29.3873 17.0138 29.877 17.4003 29.9375 17.9395L30.7999 25.6743C30.8594 26.214 30.4715 26.7004 29.9309 26.7604C29.8945 26.7647 29.858 26.7668 29.8214 26.7667ZM41.4736 31.5482C41.4372 31.5482 41.4007 31.5463 41.3642 31.542L33.7615 30.6969C33.2218 30.6373 32.8329 30.1509 32.8924 29.6113C32.952 29.0716 33.4484 28.6836 33.9785 28.7427L41.5813 29.5878C42.121 29.6473 42.5099 30.1338 42.4503 30.6734C42.3946 31.1761 41.9683 31.5482 41.4736 31.5482ZM13.5951 33.0034C13.3799 33.0037 13.1705 32.9335 12.9991 32.8034C12.8277 32.6733 12.7037 32.4905 12.6462 32.2832C12.5886 32.0758 12.6007 31.8553 12.6805 31.6555C12.7603 31.4557 12.9035 31.2875 13.088 31.1769L18.7251 27.7952C19.2891 27.4562 19.9503 27.3157 20.6034 27.3961C21.2565 27.4764 21.864 27.7729 22.3291 28.2384L24.1296 30.0395C24.221 30.1307 24.2934 30.2391 24.3429 30.3584C24.3923 30.4777 24.4178 30.6056 24.4178 30.7347C24.4178 30.8638 24.3923 30.9917 24.3429 31.111C24.2934 31.2303 24.221 31.3386 24.1296 31.4299C24.0384 31.5213 23.93 31.5937 23.8107 31.6432C23.6914 31.6926 23.5635 31.718 23.4344 31.718C23.3053 31.718 23.1774 31.6926 23.0581 31.6432C22.9388 31.5937 22.8304 31.5213 22.7392 31.4299L20.9386 29.6294C20.7834 29.4745 20.5809 29.3758 20.3633 29.349C20.1457 29.3222 19.9254 29.3688 19.7372 29.4815L14.1002 32.8631C13.9477 32.955 13.7731 33.0035 13.5951 33.0034ZM27.5004 46.9106C27.3264 46.9104 27.1557 46.8641 27.0055 46.7764C26.8553 46.6886 26.731 46.5626 26.6454 46.4112C26.5598 46.2598 26.5158 46.0884 26.5181 45.9145C26.5203 45.7406 26.5686 45.5703 26.6581 45.4212L30.0403 39.7842C30.1531 39.5962 30.1998 39.3759 30.173 39.1583C30.1462 38.9407 30.0474 38.7383 29.8924 38.5833L28.1476 36.8384C28.0562 36.7472 27.9838 36.6388 27.9343 36.5195C27.8849 36.4002 27.8594 36.2723 27.8594 36.1432C27.8594 36.0141 27.8849 35.8862 27.9343 35.7669C27.9838 35.6476 28.0562 35.5392 28.1476 35.448C28.2388 35.3566 28.3472 35.2842 28.4665 35.2347C28.5858 35.1853 28.7137 35.1598 28.8428 35.1598C28.9719 35.1598 29.0998 35.1853 29.2191 35.2347C29.3384 35.2842 29.4467 35.3566 29.538 35.448L31.2829 37.1928C31.7485 37.6576 32.0451 38.2649 32.1255 38.9179C32.2059 39.5709 32.0655 40.232 31.7266 40.7959L28.3444 46.4333C28.257 46.5791 28.1333 46.6997 27.9854 46.7834C27.8374 46.867 27.6703 46.9109 27.5004 46.9106Z" fill="#F6D190"/>
<path d="M27.2906 27.4076C26.3288 28.2419 25.3323 29.1826 24.324 30.1908L18.5269 40.9945C20.447 42.9146 25.7393 40.7354 30.3476 36.1272C31.3873 35.0876 32.3025 34.0133 33.0752 32.9507L27.2906 27.4076Z" fill="#D19A6E"/>
<path d="M18.5271 40.9945L30.0027 29.5189L26.7815 26.2977C25.6504 27.1019 24.5027 28.0656 23.3942 29.1739C18.7861 33.7822 16.6069 39.0744 18.5271 40.9945Z" fill="#C38C66"/>
<path d="M33.224 32.74C35.7629 29.1686 36.6733 25.7648 35.215 24.3065C33.7568 22.8483 30.3531 23.7586 26.7816 26.2976L33.224 32.74Z" fill="#966A5B"/>
<path d="M30 0C22.084 0 14.8841 3.06601 9.52298 8.07513C3.66305 13.5504 0.667175 21.3474 0.667175 30.0001C0.667175 46.5685 13.4313 59.6429 29.9999 59.6429C38.6551 59.6429 46.4541 56.3349 51.9296 50.4719C56.936 45.1114 59.9999 37.9135 59.9999 30.0001C60 13.4315 46.5685 0 30 0ZM3.87096 30.0001C3.87096 23.1329 6.52389 16.8881 10.8561 12.2246L47.7755 49.144C43.112 53.4762 36.8672 56.1291 30 56.1291C15.5693 56.129 3.87096 44.4307 3.87096 30.0001ZM49.1439 47.7755L12.2245 10.8561C16.8879 6.52391 23.1327 3.87098 29.9999 3.87098C44.4306 3.87098 56.129 15.5694 56.129 30.0001C56.129 36.8673 53.4761 43.1121 49.1439 47.7755Z" fill="#FF8086"/>
<path d="M12.3077 10.7729C12.2944 10.7874 12.282 10.8026 12.2687 10.817C12.2831 10.8037 12.2983 10.7912 12.3127 10.778L12.3077 10.7729Z" fill="#FF8086"/>
<path d="M31.4516 58.5484C14.883 58.5484 1.45156 45.117 1.45156 28.5485C1.45156 20.6335 4.51483 13.4362 9.52288 8.07526C3.66176 13.5506 0 21.3465 0 30.0001C0 46.5685 13.4315 60.0001 30.0001 60.0001C38.6537 60.0001 46.4544 56.333 51.9298 50.4719C46.5688 55.4798 39.3666 58.5484 31.4516 58.5484Z" fill="#E5646E"/>
</g>
<defs>
<clipPath id="clip0_97_1905">
<rect width="60" height="60" fill="white"/>
</clipPath>
</defs>
</svg>
