<svg width="24" height="24" viewBox="0 0 24 24" fill="none" xmlns="http://www.w3.org/2000/svg">
<g clip-path="url(#clip0_93_644)">
<path d="M12 24C18.6274 24 24 18.6274 24 12C24 5.37258 18.6274 0 12 0C5.37258 0 0 5.37258 0 12C0 18.6274 5.37258 24 12 24Z" fill="#FF9E24"/>
<path d="M12 21.7251C17.371 21.7251 21.7251 17.371 21.7251 12C21.7251 6.62898 17.371 2.2749 12 2.2749C6.62897 2.2749 2.27489 6.62898 2.27489 12C2.27489 17.371 6.62897 21.7251 12 21.7251Z" fill="white"/>
<path d="M16.0617 9.22523C16.4171 8.86982 16.4171 8.29373 16.0617 7.93837C15.7063 7.58296 15.1302 7.58296 14.7748 7.93837L11.3246 11.3886L12.6114 12.6755L16.0617 9.22523Z" fill="#181818"/>
<path d="M11.4482 11.7475L6.32976 16.866C6.10767 17.0881 6.10767 17.4482 6.32976 17.6703C6.38252 17.7232 6.44521 17.7651 6.51422 17.7937C6.58323 17.8223 6.65721 17.837 6.7319 17.8369C6.87745 17.8369 7.02304 17.7813 7.13404 17.6703L12.2525 12.5518L11.4482 11.7475Z" fill="#EE3840"/>
<path d="M8.01872 6.73192C7.66331 6.37651 7.08722 6.37651 6.73186 6.73192C6.37645 7.08732 6.37645 7.66342 6.73186 8.01878L11.3886 12.6755L12.6754 11.3886L8.01872 6.73192Z" fill="#181818"/>
<path d="M12 13.4218C11.216 13.4218 10.5782 12.784 10.5782 12C10.5782 11.216 11.216 10.5782 12 10.5782C12.784 10.5782 13.4218 11.216 13.4218 12C13.4218 12.784 12.784 13.4218 12 13.4218Z" fill="#524E4D"/>
<path d="M5.40286 12.5687H4.54978C4.23567 12.5687 3.98105 12.3141 3.98105 12C3.98105 11.6859 4.23567 11.4313 4.54978 11.4313H5.40286C5.71697 11.4313 5.9716 11.6859 5.9716 12C5.9716 12.3141 5.71697 12.5687 5.40286 12.5687ZM12 5.97155C11.6859 5.97155 11.4313 5.71688 11.4313 5.40281V4.54978C11.4313 4.23572 11.6859 3.98105 12 3.98105C12.3141 3.98105 12.5687 4.23572 12.5687 4.54978V5.40286C12.5687 5.71688 12.3141 5.97155 12 5.97155ZM19.4502 12.5687H18.5971C18.283 12.5687 18.0284 12.3141 18.0284 12C18.0284 11.6859 18.283 11.4313 18.5971 11.4313H19.4502C19.7643 11.4313 20.019 11.6859 20.019 12C20.019 12.3141 19.7643 12.5687 19.4502 12.5687ZM12 20.019C11.6859 20.019 11.4313 19.7643 11.4313 19.4502V18.5971C11.4313 18.2831 11.6859 18.0284 12 18.0284C12.3141 18.0284 12.5687 18.2831 12.5687 18.5971V19.4502C12.5687 19.7643 12.3141 20.019 12 20.019Z" fill="#7A7674"/>
</g>
<defs>
<clipPath id="clip0_93_644">
<rect width="24" height="24" fill="white"/>
</clipPath>
</defs>
</svg>
