<svg width="33" height="33" viewBox="0 0 33 33" fill="none" xmlns="http://www.w3.org/2000/svg">
<g clip-path="url(#clip0_93_727)">
<path d="M27.0376 22.4361C26.3175 27.974 22.0141 32.0563 16.3255 32.1822C15.2143 32.2056 14.4101 31.9582 13.3649 31.6406C9.82436 30.565 7.32013 27.9378 6.31003 24.378C6.17948 23.9178 6.06264 23.4347 5.96002 22.9281C5.89855 22.6229 5.84607 22.3157 5.80452 22.0071C5.15272 17.2461 5.9589 12.8528 9.20823 9.54727C9.27888 9.47497 9.4005 9.52315 9.40294 9.62358C9.41032 9.95688 9.77103 9.48946 9.87767 10.0096C9.96569 10.4388 10.1043 10.9091 10.3212 11.3832C10.411 11.5798 10.5058 11.7584 10.603 11.9202C10.7914 12.2381 10.9862 12.4909 11.1591 12.6859C11.2505 12.7898 11.42 12.7454 11.4513 12.6111C11.5433 12.2101 11.9639 11.875 12.1233 11.4037C12.3761 10.6532 12.7293 9.84156 13.2277 9.05985C14.1146 7.66963 14.8412 7.41707 15.6175 6.4409C16.4148 5.43873 17.2336 4.41068 17.5522 1.20847C17.5666 1.06599 17.741 1.0028 17.842 1.10403C18.2309 1.49346 18.3637 1.01534 18.7148 1.44152C18.7908 1.53375 18.8659 1.62674 18.94 1.72046C18.9472 1.72875 18.9537 1.73705 18.9609 1.74598C21.4573 4.91191 22.9329 8.96086 23.1123 12.8541C23.1409 13.4603 23.2044 14.315 23.2398 14.7721C23.2513 14.9203 23.4184 15.0004 23.5411 14.9167C24.4136 14.4488 25.4487 13.6217 25.6199 12.6687C25.6398 12.5625 25.7834 12.5424 25.832 12.639C26.0661 13.1438 26.3399 12.857 26.5154 13.4124C27.2813 15.8347 27.4812 18.7645 27.0376 22.4361Z" fill="#F9AF38"/>
<path d="M16.2818 28.7714C20.4775 28.7231 23.8396 25.2826 23.7913 21.0869C23.7429 16.8912 20.3025 13.5291 16.1068 13.5774C11.9111 13.6258 8.54895 17.0662 8.59728 21.2619C8.64561 25.4576 12.0861 28.8197 16.2818 28.7714Z" fill="#F5FCFF"/>
<path d="M22.4344 25.5009C21.3164 27.114 19.5791 28.2964 17.4975 28.6591C13.3703 29.3776 9.42824 26.6051 8.70969 22.4778C8.19597 19.5293 9.46454 16.6754 11.7354 15.0246C10.6364 16.6091 10.1353 18.6093 10.4918 20.6542C11.2103 24.7815 15.1524 27.554 19.2796 26.8355C20.4583 26.63 21.527 26.1617 22.4344 25.5009Z" fill="#E0F5FC"/>
<path d="M17.0225 32.1464C16.7928 32.1652 16.5605 32.1769 16.3255 32.1822C15.2143 32.2059 14.1165 32.0447 13.0715 31.727C9.53087 30.6512 6.8249 27.7961 5.81474 24.2364C5.68386 23.7761 5.5669 23.2932 5.46446 22.7863C5.40299 22.4812 5.35051 22.174 5.30896 21.8653C4.65717 17.1043 6.28726 11.9255 9.53659 8.61998C9.60724 8.54769 9.72885 8.59587 9.7313 8.6963C9.73836 9.02979 9.77134 9.4892 9.8778 10.0096C7.44065 13.2729 6.28894 17.7173 6.85426 21.8475C6.89581 22.1562 6.94829 22.4634 7.00976 22.7685C7.11219 23.2754 7.22916 23.7583 7.36003 24.2186C8.3702 27.7783 11.0762 30.6334 14.6168 31.7092C15.3949 31.9456 16.2022 32.0954 17.0225 32.1464Z" fill="#F48931"/>
<path d="M12.5169 3.6998C12.2676 5.11004 11.4204 5.42748 11.0538 5.72548C11.0395 5.73709 11.0229 5.74549 11.0051 5.75011C10.9873 5.75474 10.9687 5.75548 10.9506 5.75228C10.9325 5.74909 10.9153 5.74204 10.9001 5.7316C10.885 5.72117 10.8722 5.7076 10.8628 5.69181C10.6204 5.28679 9.95878 4.50073 10.208 3.09061C10.2594 2.80005 10.2332 2.48758 10.3454 2.23276C10.7781 1.25082 11.5556 0.556438 11.8466 0.319844C11.8609 0.308238 11.8775 0.299837 11.8953 0.295213C11.9131 0.290588 11.9317 0.289848 11.9498 0.293041C11.9679 0.296235 11.9851 0.303287 12.0003 0.313721C12.0154 0.324155 12.0282 0.337725 12.0376 0.353512C12.2542 0.715433 12.8508 1.83182 12.7974 3.07141C12.7911 3.21908 12.5434 3.54984 12.5169 3.6998Z" fill="#DF646E"/>
<path d="M12.7491 3.51823C12.4994 4.9288 11.3618 5.95292 10.9949 6.25079C10.9343 6.30043 10.844 6.28409 10.8039 6.21693C10.5616 5.8121 9.84352 4.46226 10.0926 3.05234C10.1537 2.70712 10.2678 2.38511 10.4112 2.09175C10.4626 3.19361 10.9732 4.1453 11.1702 4.47402C11.1796 4.48986 11.1923 4.50348 11.2075 4.51396C11.2226 4.52443 11.2398 4.53152 11.2579 4.53474C11.2761 4.53795 11.2947 4.53722 11.3125 4.53258C11.3303 4.52795 11.3469 4.51952 11.3612 4.50788C11.6381 4.28317 12.3552 3.64383 12.7968 2.73656C12.8087 2.99078 12.7957 3.25367 12.7491 3.51823Z" fill="#DC4955"/>
<path d="M26.857 6.58453C26.8882 7.76725 26.2144 8.56393 25.9335 8.87233C25.9218 8.88523 25.9076 8.89562 25.8918 8.90288C25.8759 8.91013 25.8588 8.91411 25.8414 8.91455C25.824 8.915 25.8066 8.91191 25.7904 8.90548C25.7742 8.89905 25.7595 8.8894 25.7472 8.87712C25.4505 8.58335 24.7366 7.95663 24.7053 6.77372C24.6994 6.55194 24.5597 6.22494 24.6053 6.01835C24.8031 5.12315 25.3966 4.40423 25.6248 4.15367C25.6365 4.14078 25.6507 4.13039 25.6666 4.12313C25.6824 4.11588 25.6996 4.1119 25.717 4.11146C25.7344 4.11101 25.7517 4.11409 25.7679 4.12053C25.7841 4.12696 25.7988 4.13661 25.8112 4.14889C26.0505 4.38588 26.6741 5.06612 26.9226 5.94129C26.9822 6.15099 26.8509 6.35593 26.857 6.58453Z" fill="#DF646E"/>
<path d="M27.0264 6.60061C27.0574 7.7832 26.2237 8.80125 25.9426 9.10972C25.893 9.16374 25.8086 9.166 25.7559 9.11445C25.4595 8.82035 24.5725 7.84531 24.5408 6.66273C24.5338 6.39106 24.572 6.12853 24.6394 5.88111C24.8952 6.73656 25.5037 7.39992 25.7388 7.63354C25.7916 7.68509 25.8759 7.68283 25.9255 7.62881C26.1424 7.39127 26.6867 6.73267 26.9108 5.90131C26.9771 6.12271 27.0198 6.35727 27.0264 6.60061Z" fill="#DC4955"/>
<path d="M16.1427 16.7003C16.0792 16.701 16.0163 16.6892 15.9574 16.6657C15.8986 16.6421 15.8449 16.6071 15.7996 16.5628C15.7542 16.5185 15.718 16.4656 15.6931 16.4073C15.6681 16.349 15.6549 16.2863 15.6542 16.2229L15.6431 15.2571C15.64 14.9904 15.8537 14.7717 16.1204 14.7686C16.3872 14.7656 16.6058 14.9792 16.6089 15.246L16.62 16.2118C16.6215 16.3399 16.572 16.4633 16.4825 16.5549C16.393 16.6465 16.2707 16.6988 16.1427 16.7003ZM11.2427 21.7144L10.2769 21.7255C10.0101 21.7286 9.79151 21.515 9.78844 21.2482C9.78536 20.9815 9.99902 20.7628 10.2658 20.7597L11.2316 20.7486C11.4983 20.7455 11.717 20.9592 11.7201 21.226C11.7231 21.4927 11.5095 21.7114 11.2427 21.7144ZM16.268 27.5801C16.2046 27.5809 16.1416 27.5691 16.0828 27.5455C16.0239 27.5219 15.9702 27.487 15.9249 27.4426C15.8795 27.3983 15.8433 27.3455 15.8184 27.2872C15.7935 27.2289 15.7803 27.1662 15.7795 27.1028L15.7684 26.137C15.7653 25.8702 15.979 25.6516 16.2457 25.6485C16.5125 25.6454 16.7311 25.8591 16.7342 26.1258L16.7453 27.0917C16.7468 27.2197 16.6974 27.3431 16.6078 27.4347C16.5183 27.5264 16.3961 27.5786 16.268 27.5801Z" fill="#5F6C75"/>
<path d="M10.7578 21.7201L10.2768 21.7257C10.0102 21.7287 9.79139 21.5149 9.78832 21.2483C9.78525 20.9811 9.9991 20.7629 10.2657 20.7599L10.511 20.757C10.5727 21.0873 10.6557 21.409 10.7578 21.7201ZM16.7425 26.8467L16.7454 27.0913C16.7484 27.3585 16.5346 27.5767 16.268 27.5798C16.0014 27.5829 15.7826 27.3697 15.7795 27.1025L15.774 26.6208C16.0914 26.7178 16.415 26.7932 16.7425 26.8467Z" fill="#4E5A61"/>
<path d="M22.1226 21.5891L21.1568 21.6002C20.89 21.6033 20.6714 21.3896 20.6683 21.1229C20.6652 20.8561 20.8789 20.6375 21.1456 20.6344L22.1115 20.6233C22.3782 20.6202 22.5968 20.8339 22.5999 21.1006C22.603 21.3674 22.3893 21.586 22.1226 21.5891Z" fill="#5F6C75"/>
<path d="M15.509 20.9822C15.3854 20.9836 15.5067 20.7437 15.4113 20.6505L14.2591 19.9587L13.7595 19.4705C13.7141 19.4261 13.6779 19.3733 13.653 19.315C13.6281 19.2567 13.6148 19.194 13.6141 19.1306C13.6134 19.0672 13.6251 19.0043 13.6487 18.9454C13.6723 18.8865 13.7073 18.8329 13.7516 18.7875C13.7959 18.7421 13.8488 18.706 13.9071 18.681C13.9654 18.6561 14.0281 18.6429 14.0915 18.6421C14.1549 18.6414 14.2178 18.6532 14.2767 18.6768C14.3356 18.7004 14.3892 18.7353 14.4346 18.7796L14.9344 19.2682L15.4009 20.4698C15.5917 20.6563 16.0351 20.6461 15.8488 20.8369C15.8045 20.8823 15.7517 20.9185 15.6934 20.9435C15.6351 20.9684 15.5724 20.9816 15.509 20.9822ZM16.8748 20.9665C16.8114 20.9673 16.7484 20.9556 16.6895 20.932C16.6306 20.9084 16.577 20.8734 16.5317 20.829C16.3409 20.6425 16.5526 20.489 16.739 20.2982L17.4096 19.2396L19.5317 17.068C19.6212 16.9764 19.7435 16.9241 19.8715 16.9226C19.9996 16.9212 20.123 16.9706 20.2147 17.0601C20.3063 17.1497 20.3586 17.2719 20.36 17.4C20.3615 17.5281 20.312 17.6515 20.2225 17.7431L18.1007 19.9144L16.9891 20.6076C16.896 20.7031 16.9984 20.9651 16.8748 20.9665Z" fill="#F9AF38"/>
<path d="M26.515 13.4125C26.4834 13.4604 26.4503 13.5073 26.4158 13.5532C25.7594 14.4296 24.7198 14.9355 23.6249 14.9481L23.4598 14.95L23.4611 14.948C24.306 14.552 25.1806 13.2723 25.5651 12.2868C25.6573 12.1472 25.6445 11.5783 25.9004 11.8238C26.139 12.3376 26.3442 12.8715 26.515 13.4125ZM18.7147 1.44164C18.3209 3.92929 17.5563 5.36446 16.8593 6.24055C16.083 7.21672 15.3584 7.53996 14.4716 8.93018C13.9732 9.71189 13.62 10.5235 13.3672 11.274C13.3236 11.4029 13.2745 11.5698 13.2262 11.7441C13.1479 12.0266 12.9801 12.276 12.7479 12.4548C12.5157 12.6336 12.2316 12.7321 11.9386 12.7355L11.3112 12.7428L11.3118 12.7408C11.5516 12.6791 11.7132 11.3545 11.9336 10.9751C12.5064 9.02526 14.1282 7.48697 15.314 6.25835C16.1113 5.25618 16.9961 3.5234 17.3147 0.321184C17.3291 0.178702 17.5036 0.115517 17.6046 0.216743C17.9935 0.606365 18.364 1.01552 18.7147 1.44164Z" fill="#F48931"/>
<path d="M16.2053 22.1402C16.7387 22.1341 17.1662 21.6967 17.16 21.1633C17.1539 20.6299 16.7165 20.2025 16.1831 20.2086C15.6497 20.2147 15.2223 20.6521 15.2284 21.1855C15.2346 21.7189 15.6719 22.1464 16.2053 22.1402Z" fill="#F9AF38"/>
<path d="M15.849 20.8366C15.7555 20.9323 15.6324 20.9808 15.5088 20.9822C15.3851 20.9836 15.261 20.938 15.1659 20.8445L14.2593 19.9585C14.4326 19.6835 14.663 19.4477 14.9346 19.2681L15.8412 20.1541C15.8865 20.1984 15.9227 20.2511 15.9477 20.3094C15.9726 20.3677 15.9859 20.4303 15.9866 20.4937C15.9873 20.5571 15.9755 20.62 15.9519 20.6788C15.9283 20.7377 15.8934 20.7913 15.849 20.8366ZM18.1006 19.9143L17.2147 20.8209C17.1218 20.9166 16.9987 20.965 16.8751 20.9664C16.7514 20.9679 16.6273 20.9223 16.5315 20.8287C16.4862 20.7844 16.45 20.7317 16.425 20.6734C16.4001 20.6151 16.3868 20.5525 16.3861 20.4891C16.3854 20.4257 16.3972 20.3628 16.4208 20.304C16.4444 20.2451 16.4793 20.1915 16.5237 20.1462L17.4096 19.2396C17.6853 19.4129 17.9211 19.6433 18.1006 19.9143Z" fill="#F48931"/>
<path d="M16.2109 22.6231C15.4121 22.6323 14.7547 21.9899 14.7455 21.1911C14.7363 20.3923 15.3787 19.7349 16.1775 19.7257C16.9763 19.7165 17.6337 20.3589 17.6429 21.1577C17.6521 21.9565 17.0097 22.6139 16.2109 22.6231ZM16.1886 20.6915C15.9223 20.6946 15.7082 20.9137 15.7113 21.18C15.7144 21.4463 15.9335 21.6604 16.1998 21.6573C16.4661 21.6543 16.6802 21.4352 16.6771 21.1688C16.674 20.9025 16.455 20.6884 16.1886 20.6915Z" fill="#5F6C75"/>
</g>
<defs>
<clipPath id="clip0_93_727">
<rect width="32" height="32" fill="white" transform="translate(0 0.368607) rotate(-0.66)"/>
</clipPath>
</defs>
</svg>
