<svg width="54" height="54" viewBox="0 0 54 54" fill="none" xmlns="http://www.w3.org/2000/svg">
<g clip-path="url(#clip0_93_845)">
<path d="M54 23.1661C54 10.3718 43.5808 0 30.7282 0C17.8755 0 7.45632 10.3718 7.45632 23.1661C7.45632 35.9604 17.8755 46.3323 30.7282 46.3323C33.4258 46.3323 36.0154 45.8738 38.4247 45.0336L45.5244 48.4624V41.0478C50.7004 36.7988 54 30.366 54 23.1661Z" fill="#FF9E5E"/>
<path d="M30.7282 0C29.9953 0 29.2707 0.0354375 28.5551 0.101355C40.3887 1.19243 49.6539 11.1014 49.6539 23.1661C49.6539 35.031 40.1394 45.1114 28.5222 46.228C29.2485 46.296 29.9841 46.3322 30.7282 46.3322C33.4258 46.3322 36.0154 45.8737 38.4247 45.0335L45.5244 48.4623V41.0477C50.7004 36.7988 54 30.366 54 23.1661C54 10.3718 43.5808 0 30.7282 0Z" fill="#FA8D46"/>
<path d="M19.9587 26.9108C21.7713 26.9108 23.2408 25.4414 23.2408 23.6288C23.2408 21.8161 21.7713 20.3467 19.9587 20.3467C18.1461 20.3467 16.6766 21.8161 16.6766 23.6288C16.6766 25.4414 18.1461 26.9108 19.9587 26.9108Z" fill="#FFF7E8"/>
<path d="M30.7281 26.9108C32.5408 26.9108 34.0102 25.4414 34.0102 23.6288C34.0102 21.8161 32.5408 20.3467 30.7281 20.3467C28.9155 20.3467 27.446 21.8161 27.446 23.6288C27.446 25.4414 28.9155 26.9108 30.7281 26.9108Z" fill="#FFF7E8"/>
<path d="M41.4976 26.9108C43.3103 26.9108 44.7797 25.4414 44.7797 23.6288C44.7797 21.8161 43.3103 20.3467 41.4976 20.3467C39.685 20.3467 38.2155 21.8161 38.2155 23.6288C38.2155 25.4414 39.685 26.9108 41.4976 26.9108Z" fill="#FFF7E8"/>
<path d="M0 41.5291C0 35.2216 5.13654 30.1084 11.4728 30.1084C17.809 30.1084 22.9457 35.2216 22.9457 41.5291C22.9457 47.8366 17.8091 52.9499 11.4728 52.9499C10.1429 52.9499 8.86623 52.7239 7.67844 52.3096L4.17846 53.9999V50.3446C1.62675 48.2499 0 45.0786 0 41.5291Z" fill="#FFD88F"/>
<path d="M11.4728 30.1084C10.7298 30.1084 10.0035 30.1796 9.29981 30.3139C14.5969 31.325 18.5996 35.9613 18.5996 41.5292C18.5996 47.0951 14.5997 51.7301 9.3054 52.7434C10.0197 52.8803 10.7454 52.9495 11.4728 52.95C17.809 52.95 22.9457 47.8367 22.9457 41.5292C22.9457 35.2216 17.8091 30.1084 11.4728 30.1084Z" fill="#FFC963"/>
</g>
<defs>
<clipPath id="clip0_93_845">
<rect width="54" height="54" fill="white"/>
</clipPath>
</defs>
</svg>
