<svg width="54" height="54" viewBox="0 0 54 54" fill="none" xmlns="http://www.w3.org/2000/svg">
<g clip-path="url(#clip0_93_861)">
<path d="M40.988 10.1122C40.7386 9.52197 40.3208 9.01827 39.7868 8.66413C39.2527 8.30998 38.6261 8.1211 37.9854 8.12109H3.25956C1.45941 8.12109 0 9.5804 0 11.3807L20.7619 17.8998L41.5237 11.3807L40.988 10.1122Z" fill="#FFDF7D"/>
<path d="M53.5047 28.0249L50.7404 26.8464L40.9618 39.3041L54 34.4148V28.7745C54 28.6147 53.953 28.4585 53.865 28.3252C53.7769 28.192 53.6516 28.0875 53.5047 28.0249Z" fill="#FFAB37"/>
<path d="M47.4672 25.451L41.5237 11.3806H0V36.0446L9.77867 39.3042H19.5573L25.3702 34.4148L31.1831 39.3042H40.9618L50.7404 34.4148V26.8465L47.4672 25.451Z" fill="#FFCD37"/>
<path d="M39.3622 14.6401H34.4427V25.451H43.9287L39.3622 14.6401Z" fill="#4F575B"/>
<path d="M27.9235 14.6401L23.0342 26.9721L27.9235 39.3041H31.1831V14.6401H27.9235Z" fill="#FFDF7D"/>
<path d="M19.5573 14.6401V39.3041H27.9235V25.451L24.664 21.6753L27.9235 17.8997V14.6401H19.5573Z" fill="#FFEEBC"/>
<path d="M22.8169 17.8997H27.9235V25.451H22.8169V17.8997Z" fill="#FFCD37"/>
<path d="M9.77867 36.0447H0V38.4893C0 38.7055 0.0858542 38.9127 0.238676 39.0656C0.391497 39.2184 0.598767 39.3042 0.814889 39.3042H9.77867V36.0447Z" fill="#9DA9AD"/>
<path d="M54 34.4148H50.7404L47.4809 36.8595L50.7404 39.3041H53.1851C53.4012 39.3041 53.6085 39.2183 53.7613 39.0655C53.9141 38.9126 54 38.7054 54 38.4892V34.4148Z" fill="#838E92"/>
<path d="M40.9618 34.4148H50.7404V39.3041H40.9618V34.4148Z" fill="#9DA9AD"/>
<path d="M9.77867 45.8234C13.3791 45.8234 16.2978 42.9047 16.2978 39.3043C16.2978 35.7039 13.3791 32.7852 9.77867 32.7852C6.17826 32.7852 3.25955 35.7039 3.25955 39.3043C3.25955 42.9047 6.17826 45.8234 9.77867 45.8234Z" fill="#4F575B"/>
<path d="M40.9618 45.8234C44.5622 45.8234 47.4809 42.9047 47.4809 39.3043C47.4809 35.7039 44.5622 32.7852 40.9618 32.7852C37.3614 32.7852 34.4427 35.7039 34.4427 39.3043C34.4427 42.9047 37.3614 45.8234 40.9618 45.8234Z" fill="#4F575B"/>
<path d="M9.77868 42.5638C11.5789 42.5638 13.0382 41.1044 13.0382 39.3042C13.0382 37.504 11.5789 36.0447 9.77868 36.0447C7.97847 36.0447 6.51912 37.504 6.51912 39.3042C6.51912 41.1044 7.97847 42.5638 9.77868 42.5638Z" fill="white"/>
<path d="M40.9618 42.5638C42.762 42.5638 44.2213 41.1044 44.2213 39.3042C44.2213 37.504 42.762 36.0447 40.9618 36.0447C39.1616 36.0447 37.7022 37.504 37.7022 39.3042C37.7022 41.1044 39.1616 42.5638 40.9618 42.5638Z" fill="white"/>
</g>
<defs>
<clipPath id="clip0_93_861">
<rect width="54" height="54" fill="white"/>
</clipPath>
</defs>
</svg>
