<svg width="54" height="54" viewBox="0 0 54 54" fill="none" xmlns="http://www.w3.org/2000/svg">
<g clip-path="url(#clip0_93_884)">
<path d="M8.15221 46.5762V1.09751C8.15221 0.491379 8.64359 0 9.24982 0H44.7503C45.3564 0 45.8478 0.491379 45.8478 1.09751V46.5762C45.8478 47.1823 45.3564 47.6737 44.7503 47.6737H9.24982C8.64359 47.6738 8.15221 47.1824 8.15221 46.5762Z" fill="#F4FBFF"/>
<path d="M27 29.9347C21.498 29.9347 17.0218 34.4109 17.0218 39.9129C17.0218 43.0443 18.4722 45.8429 20.7361 47.6737H33.264C35.5278 45.8429 36.9783 43.0442 36.9783 39.9129C36.9782 34.4109 32.502 29.9347 27 29.9347ZM43.6304 0V47.6738H44.7503C45.3564 47.6738 45.8478 47.1824 45.8478 46.5763V1.09751C45.8478 0.491379 45.3564 0 44.7502 0H43.6304Z" fill="#DFEAEF"/>
<path d="M41.413 17.6698H12.587C12.3686 17.6698 12.1593 17.5831 12.0049 17.4287C11.8505 17.2743 11.7638 17.0649 11.7638 16.8466C11.7638 16.6283 11.8505 16.4189 12.0049 16.2645C12.1593 16.1102 12.3686 16.0234 12.587 16.0234H41.4129C41.8676 16.0234 42.2361 16.3919 42.2361 16.8466C42.2361 17.3013 41.8677 17.6698 41.413 17.6698ZM41.413 21.1011H12.587C12.3686 21.1011 12.1593 21.0144 12.0049 20.86C11.8505 20.7056 11.7638 20.4963 11.7638 20.2779C11.7638 20.0596 11.8505 19.8502 12.0049 19.6959C12.1593 19.5415 12.3686 19.4548 12.587 19.4548H41.4129C41.8676 19.4548 42.2361 19.8233 42.2361 20.2779C42.2361 20.7326 41.8677 21.1011 41.413 21.1011Z" fill="#808B95"/>
<path d="M18.1193 8.08781H35.8807C36.4868 8.08781 36.9782 7.59644 36.9782 6.99031V5.754C36.9782 5.14787 36.4868 4.65649 35.8807 4.65649H18.1193C17.5132 4.65649 17.0218 5.14787 17.0218 5.754V6.99031C17.0218 7.59644 17.5132 8.08781 18.1193 8.08781Z" fill="#90D8F9"/>
<path d="M41.413 24.4225H12.587C12.3686 24.4225 12.1593 24.3358 12.0049 24.1814C11.8505 24.0271 11.7638 23.8177 11.7638 23.5994C11.7638 23.381 11.8505 23.1717 12.0049 23.0173C12.1593 22.8629 12.3686 22.7762 12.587 22.7762H41.4129C41.8676 22.7762 42.2361 23.1447 42.2361 23.5994C42.2361 24.054 41.8677 24.4225 41.413 24.4225ZM23.4683 27.8539H12.587C12.3686 27.8539 12.1593 27.7671 12.0049 27.6128C11.8505 27.4584 11.7638 27.249 11.7638 27.0307C11.7638 26.8124 11.8505 26.603 12.0049 26.4486C12.1593 26.2942 12.3686 26.2075 12.587 26.2075H23.4683C23.6866 26.2075 23.896 26.2942 24.0504 26.4486C24.2047 26.603 24.2915 26.8124 24.2915 27.0307C24.2915 27.249 24.2047 27.4584 24.0504 27.6128C23.896 27.7671 23.6866 27.8539 23.4683 27.8539ZM41.413 28.6512H32.5434C32.0888 28.6512 31.7203 28.2827 31.7203 27.828C31.7203 27.3733 32.0888 27.0048 32.5434 27.0048H41.413C41.8677 27.0048 42.2362 27.3733 42.2362 27.828C42.2362 28.2827 41.8677 28.6512 41.413 28.6512ZM39.1957 31.9728H34.7608C34.3061 31.9728 33.9376 31.6043 33.9376 31.1497C33.9376 30.695 34.3061 30.3265 34.7608 30.3265H39.1957C39.6503 30.3265 40.0189 30.695 40.0189 31.1497C40.0189 31.6043 39.6503 31.9728 39.1957 31.9728ZM33.6521 14.2382H20.3479C20.1296 14.2382 19.9202 14.1514 19.7658 13.9971C19.6114 13.8427 19.5247 13.6333 19.5247 13.415C19.5247 13.1967 19.6114 12.9873 19.7658 12.8329C19.9202 12.6785 20.1296 12.5918 20.3479 12.5918H33.6521C34.1068 12.5918 34.4753 12.9603 34.4753 13.415C34.4753 13.8697 34.1068 14.2382 33.6521 14.2382Z" fill="#808B95"/>
<path d="M21.6783 45.2346V52.9014C21.6783 53.6846 22.475 54.2157 23.198 53.9145L26.5779 52.5062C26.7117 52.4504 26.8552 52.4218 27.0001 52.4218C27.145 52.4218 27.2884 52.4504 27.4222 52.5062L30.8021 53.9145C31.525 54.2157 32.3219 53.6846 32.3219 52.9014V45.2346H21.6783Z" fill="#E28086"/>
<path d="M21.6783 48.3497C23.2195 49.3254 25.0448 49.8911 27 49.8911C28.9552 49.8911 30.7804 49.3253 32.3217 48.3497V45.2346H21.6783V48.3497Z" fill="#DD636E"/>
<path d="M27 47.6737C31.2862 47.6737 34.7608 44.1991 34.7608 39.9129C34.7608 35.6267 31.2862 32.1521 27 32.1521C22.7138 32.1521 19.2392 35.6267 19.2392 39.9129C19.2392 44.1991 22.7138 47.6737 27 47.6737Z" fill="#F6E266"/>
<path d="M31.7187 33.7529C32.722 35.0606 33.3196 36.6959 33.3196 38.4716C33.3196 42.7577 29.8449 46.2324 25.5588 46.2324C23.7831 46.2324 22.1479 45.6348 20.8401 44.6315C22.2587 46.4806 24.4894 47.6737 27 47.6737C31.2861 47.6737 34.7608 44.1991 34.7608 39.9129C34.7608 37.4023 33.5676 35.1715 31.7187 33.7529Z" fill="#ECBE6B"/>
<path d="M27 44.3475C29.4492 44.3475 31.4348 42.362 31.4348 39.9128C31.4348 37.4635 29.4492 35.478 27 35.478C24.5508 35.478 22.5653 37.4635 22.5653 39.9128C22.5653 42.362 24.5508 44.3475 27 44.3475Z" fill="#EAB14D"/>
</g>
<defs>
<clipPath id="clip0_93_884">
<rect width="54" height="54" fill="white"/>
</clipPath>
</defs>
</svg>
