<svg width="46" height="46" viewBox="0 0 46 46" fill="none" xmlns="http://www.w3.org/2000/svg">
<g id="Frame" clip-path="url(#clip0_93_931)">
<g id="Group">
<path id="Vector" d="M45.9923 23C45.9923 10.2973 35.6967 0 22.9961 0C10.2958 0 0 10.2973 0 23C0 35.7027 10.2959 46 22.9961 46C35.6967 46 45.9923 35.7027 45.9923 23Z" fill="#66D15F"/>
<path id="Vector_2" d="M37.1971 4.90796C40.2707 8.81859 42.1041 13.7506 42.1041 19.111C42.1041 31.8137 31.8085 42.111 19.108 42.111C13.7485 42.111 8.81726 40.2773 4.90735 37.2028C9.1177 42.5596 15.6553 45.9999 22.9961 45.9999C35.6967 45.9999 45.9923 35.7026 45.9923 22.9999C45.9923 15.6576 42.5526 9.11903 37.1971 4.90796Z" fill="#53BC77"/>
<path id="Vector_3" d="M16.1659 32.5368V14.4867C16.1659 13.4194 17.3479 12.7762 18.2439 13.3559L32.1883 22.3811C33.0084 22.9118 33.0084 24.1117 32.1883 24.6426L18.2439 33.6676C17.3479 34.2475 16.1658 33.6041 16.1658 32.5368H16.1659Z" fill="#D4FFDF"/>
<path id="Vector_4" d="M32.1883 22.3809L18.2439 13.3557C17.3479 12.7759 16.1656 13.4192 16.1656 14.4865V15.2017L20.6939 18.3182C24.4508 20.9039 24.3786 26.4767 20.5563 28.9643L16.1656 31.8214V32.5366C16.1656 33.6039 17.3479 34.2472 18.2439 33.6674L32.1883 24.6424C33.0084 24.1118 33.0084 22.9119 32.1883 22.3808V22.3809Z" fill="#B1FFC5"/>
</g>
</g>
<defs>
<clipPath id="clip0_93_931">
<rect width="46" height="46" fill="white"/>
</clipPath>
</defs>
</svg>
