<svg width="24" height="24" viewBox="0 0 24 24" fill="none" xmlns="http://www.w3.org/2000/svg">
<g clip-path="url(#clip0_93_688)">
<path d="M11.6913 0.00707864C8.60016 0.11236 5.78053 1.42828 3.70964 3.49617C3.70964 3.49617 0.962531 7.10452 0.5655 11.1056C0.312843 13.6517 1.18462 16.0011 2.39808 18.0083L0.412781 22.8953L1.08473 23.5672L6.09375 21.6735C8.10094 22.887 10.3642 23.6602 12.9173 23.4908C15.8656 23.2952 20.5034 20.2908 20.5034 20.2908C22.5715 18.2199 23.8877 15.4001 23.993 12.3087C24.2278 5.41181 18.5882 -0.227765 11.6913 0.00707864Z" fill="#ECEAEC"/>
<path d="M3.17317 20.3149C3.05078 20.635 3.36494 20.9491 3.68509 20.8267L5.25442 20.2266C5.53617 20.119 5.83875 20.077 6.13917 20.1039C6.43958 20.1307 6.72991 20.2257 6.98809 20.3817C8.72913 21.434 10.7338 21.9193 12.7861 21.7818C17.7885 21.4498 21.8409 17.2591 22.012 12.2412C22.1065 9.4603 21.0778 6.84777 19.1146 4.88488C17.1516 2.92203 14.548 1.8928 11.7586 1.98824C6.74064 2.15914 2.55011 6.21149 2.21833 11.2139C2.08291 13.2534 2.55991 15.2459 3.59842 16.9791C3.91947 17.5149 3.9962 18.1619 3.77313 18.7454L3.17317 20.3149Z" fill="#77CC7D"/>
<path d="M4.49282 19.0832C4.39147 19.3482 4.65144 19.6082 4.91643 19.5069L4.97104 19.486C5.3654 19.3354 5.78893 19.2766 6.20942 19.3142C6.62991 19.3517 7.0363 19.4847 7.39771 19.7029C9.00093 20.6719 10.8484 21.1187 12.7331 20.9908C17.3348 20.6855 21.0623 16.8304 21.2195 12.2142C21.3066 9.65508 20.36 7.25124 18.5539 5.44575C16.7478 3.63928 14.3425 2.68749 11.7857 2.78077C7.16966 2.93794 3.31475 6.66525 3.00969 11.2664C2.88463 13.1437 3.32366 14.9781 4.27879 16.5714C4.73408 17.3324 4.82 18.2278 4.51377 19.0285L4.49282 19.0832Z" fill="#98DB7C"/>
<path d="M20.5018 20.2885C20.1909 19.9776 19.6941 19.9656 19.3629 20.2547C17.5892 21.8031 15.3307 22.805 12.8647 22.9687C10.5684 23.1218 8.32257 22.5784 6.37248 21.3997L6.37238 21.3997C6.26922 21.3372 6.15316 21.2992 6.03306 21.2884C5.91295 21.2776 5.79197 21.2944 5.67934 21.3375L2.45227 22.5714C1.81192 22.8162 1.18365 22.188 1.42848 21.5477L2.66251 18.3201C2.70551 18.2076 2.7223 18.0868 2.71161 17.9668C2.70091 17.8469 2.663 17.7309 2.60078 17.6278L2.60049 17.6273C1.42159 15.677 0.878822 13.4321 1.03173 11.1351C1.19527 8.66893 2.19742 6.41031 3.74598 4.63647C4.03515 4.30529 4.02245 3.80922 3.71157 3.49829L3.70965 3.49619C1.7311 5.47192 0.435853 8.13414 0.240197 11.0827C0.0708374 13.6358 0.708384 16.0302 1.92184 18.0374L0.0541499 22.9221C-0.190678 23.5624 0.437587 24.1907 1.07795 23.9459L5.9626 22.0782C7.96979 23.2916 10.3643 23.9292 12.9173 23.7598C15.8658 23.5642 18.5276 22.2694 20.5034 20.2909L20.5018 20.2885Z" fill="#DBD8DB"/>
<path d="M14.337 14.7089L14.1966 14.8493C13.8569 15.1891 13.3412 15.3022 12.9018 15.1077C12.0394 14.726 11.231 14.184 10.5235 13.4765C9.81605 12.769 9.27394 11.9606 8.89228 11.0982C8.6978 10.6588 8.81091 10.1432 9.1507 9.8034L9.29114 9.66297C9.4518 9.5025 9.56285 9.29916 9.61104 9.07727C9.65922 8.85537 9.6425 8.62429 9.56287 8.41164C9.34124 7.8194 9.17477 7.20796 9.06558 6.58511C8.95613 5.96157 8.17552 5.73264 7.72786 6.18029L6.8363 7.07186L6.45703 8.38187C6.62269 10.6729 7.5795 12.9171 9.33122 14.6688C11.0829 16.4205 13.3272 17.3773 15.6181 17.543L16.9279 17.1639L17.8197 16.2722C18.2673 15.8245 18.0384 15.0439 17.4149 14.9344C16.792 14.8252 16.1806 14.6588 15.5883 14.4371C15.3757 14.3575 15.1446 14.3408 14.9227 14.389C14.7008 14.4372 14.4975 14.5482 14.337 14.7089Z" fill="white"/>
<path d="M15.4088 17.7523C15.9706 17.793 16.5202 17.5716 16.9186 17.1733L16.9279 17.1639L16.8155 17.1658C14.1152 17.2104 11.601 16.1939 9.70352 14.2964C7.80607 12.3988 6.7871 9.8732 6.8343 7.18459L6.83623 7.07181L6.82666 7.08137C6.42837 7.47967 6.20702 8.02932 6.24762 8.59117C6.41327 10.8822 7.37009 13.1264 9.1218 14.8781C10.8736 16.6299 13.1178 17.5867 15.4088 17.7523Z" fill="#ECEAEC"/>
</g>
<defs>
<clipPath id="clip0_93_688">
<rect width="24" height="24" fill="white"/>
</clipPath>
</defs>
</svg>
