<svg xmlns="http://www.w3.org/2000/svg" version="1.1" xmlns:xlink="http://www.w3.org/1999/xlink" width="512" height="512" x="0" y="0" viewBox="0 0 32 32" style="enable-background:new 0 0 512 512" xml:space="preserve" class=""><g><path d="M5.646 26.354a.498.498 0 0 0 .708 0L16 16.706l9.646 9.646a.498.498 0 0 0 .707 0 .5.5 0 0 0 0-.707L16.707 16l9.646-9.646a.5.5 0 1 0-.707-.707L16 15.293 6.354 5.647a.5.5 0 1 0-.707.706L15.293 16l-9.646 9.646a.5.5 0 0 0 0 .707z" fill="#000000" opacity="1" data-original="#000000" class=""></path></g></svg>