<svg width="50" height="50" viewBox="0 0 50 50" fill="none" xmlns="http://www.w3.org/2000/svg">
<g clip-path="url(#clip0_93_632)">
<path d="M42.7136 24.4305C42.5756 24.4305 42.4402 24.3933 42.3217 24.3227C42.2031 24.2521 42.1059 24.1508 42.0402 24.0295C40.7863 21.7163 38.0299 20.6871 35.6281 21.6347C35.5346 21.6716 35.4348 21.6897 35.3343 21.688C35.2339 21.6863 35.1347 21.6648 35.0425 21.6248C34.9503 21.5848 34.867 21.527 34.7971 21.4547C34.7273 21.3824 34.6724 21.2971 34.6355 21.2036C34.5986 21.1102 34.5805 21.0104 34.5822 20.9099C34.5839 20.8094 34.6053 20.7103 34.6453 20.6181C34.6853 20.526 34.743 20.4426 34.8153 20.3727C34.8875 20.3029 34.9728 20.2479 35.0662 20.211C38.187 18.9793 41.7637 20.3071 43.3857 23.3002C43.4337 23.3886 43.4637 23.4855 43.4741 23.5855C43.4846 23.6855 43.4752 23.7865 43.4466 23.8829C43.418 23.9792 43.3706 24.069 43.3073 24.1471C43.2439 24.2251 43.1658 24.2899 43.0774 24.3378C42.9658 24.3985 42.8407 24.4303 42.7136 24.4305ZM34.0176 19.2337C33.8952 19.2339 33.7746 19.2047 33.6659 19.1486C33.5572 19.0925 33.4635 19.0112 33.3927 18.9114C33.1482 18.5669 33.2291 18.0889 33.5735 17.8444C35.6789 16.3494 36.3205 13.4777 35.0666 11.1645C35.0187 11.0761 34.9886 10.9792 34.9782 10.8792C34.9677 10.7792 34.9771 10.6782 35.0057 10.5818C35.0343 10.4854 35.0817 10.3957 35.145 10.3176C35.2083 10.2395 35.2864 10.1747 35.3748 10.1269C35.7464 9.92549 36.2106 10.0636 36.4124 10.4351C38.0345 13.4277 37.1952 17.1497 34.4601 19.0922C34.331 19.1844 34.1762 19.2339 34.0176 19.2337ZM33.1992 31.4407C32.9178 31.4407 32.6374 31.4129 32.3628 31.3564L30.801 31.0342C30.7025 31.0139 30.6091 30.9744 30.5259 30.9179C30.4428 30.8615 30.3715 30.7893 30.3163 30.7053C30.2611 30.6213 30.2229 30.5273 30.204 30.4286C30.1852 30.3299 30.1859 30.2284 30.2062 30.13C30.2472 29.9312 30.3655 29.7568 30.5351 29.6452C30.7046 29.5336 30.9115 29.4939 31.1103 29.5349L32.6721 29.8572C33.5011 30.0285 34.4589 29.7691 35.1727 29.1802C36.2511 28.2905 37.6659 27.9183 38.9564 28.1845L39.2956 28.2548C39.7095 28.3397 39.9758 28.7449 39.8903 29.1588C39.8493 29.3575 39.731 29.5318 39.5614 29.6434C39.3919 29.7549 39.185 29.7945 38.9862 29.7535L38.6475 29.6837C37.8182 29.5124 36.8603 29.7722 36.1465 30.3608C35.2978 31.0611 34.2407 31.4407 33.1992 31.4407ZM19.2444 40.7695C19.2341 40.7695 19.2241 40.7695 19.2139 40.7688C19.1134 40.765 19.0147 40.7413 18.9234 40.6993C18.8322 40.6573 18.75 40.5976 18.6818 40.5238C18.6136 40.45 18.5606 40.3635 18.5258 40.2692C18.491 40.1749 18.4752 40.0747 18.4792 39.9742C18.5471 38.2344 19.4908 36.6803 21.0041 35.8177C21.5175 35.5247 21.9483 35.1063 22.2561 34.6016C22.4409 34.2963 22.5779 33.9645 22.6623 33.6178C22.6856 33.5195 22.728 33.4269 22.7872 33.3451C22.8464 33.2634 22.9212 33.1941 23.0073 33.1414C23.0934 33.0887 23.1891 33.0535 23.2888 33.0379C23.3885 33.0223 23.4904 33.0266 23.5885 33.0506C23.6865 33.0745 23.7789 33.1176 23.8602 33.1773C23.9416 33.2371 24.0103 33.3124 24.0624 33.3988C24.1146 33.4853 24.1491 33.5812 24.164 33.681C24.1789 33.7809 24.1739 33.8827 24.1493 33.9806C24.028 34.4796 23.8306 34.9571 23.5642 35.3962C23.1214 36.1231 22.5014 36.7257 21.7621 37.1476C20.7115 37.7464 20.0558 38.8256 20.0085 40.0341C20.0008 40.2317 19.917 40.4186 19.7745 40.5557C19.6321 40.6928 19.4421 40.7695 19.2443 40.7695H19.2444ZM25.0008 40.4999C24.8382 40.4997 24.68 40.4478 24.5488 40.3517C24.4177 40.2557 24.3205 40.1204 24.2714 39.9654C23.7457 38.3053 24.1069 36.5234 25.2381 35.1986C25.6219 34.7491 25.8853 34.2095 26.0037 33.6304C26.0741 33.2805 26.0906 32.922 26.0525 32.5672C26.0418 32.4673 26.0509 32.3662 26.0792 32.2698C26.1075 32.1734 26.1546 32.0835 26.2177 32.0053C26.2808 31.9271 26.3586 31.8621 26.4469 31.814C26.5351 31.7658 26.6319 31.7356 26.7318 31.7249C26.8318 31.7142 26.9328 31.7232 27.0292 31.7516C27.1256 31.7799 27.2155 31.827 27.2937 31.8901C27.372 31.9532 27.437 32.0311 27.4851 32.1193C27.5332 32.2075 27.5635 32.3044 27.5741 32.4043C27.6292 32.9151 27.6054 33.4312 27.5036 33.9348C27.3334 34.7687 26.9542 35.5457 26.4016 36.1931C25.6164 37.1128 25.3654 38.3503 25.7305 39.5031C25.7669 39.6178 25.7757 39.7395 25.7562 39.8583C25.7368 39.977 25.6896 40.0895 25.6185 40.1866C25.5474 40.2838 25.4544 40.3627 25.3471 40.4172C25.2398 40.4716 25.1211 40.4999 25.0008 40.4999ZM19.6385 19.7205C19.5241 19.7207 19.4111 19.6953 19.3079 19.6459C19.2047 19.5966 19.1139 19.5247 19.0422 19.4355C18.818 19.1574 18.5525 18.9153 18.2549 18.7176C17.7619 18.3922 17.1946 18.1972 16.6058 18.1507C14.8689 18.0138 13.3533 17.0094 12.5515 15.4637C12.458 15.2835 12.4399 15.0735 12.5013 14.88C12.5626 14.6865 12.6982 14.5252 12.8784 14.4317C13.2534 14.2376 13.7153 14.3837 13.91 14.7587C14.4669 15.8321 15.5197 16.5299 16.7256 16.6249C17.5735 16.692 18.3905 16.9731 19.1002 17.4419C19.5287 17.7262 19.9109 18.0746 20.2335 18.475C20.4991 18.8038 20.4472 19.2855 20.1183 19.5512C19.9824 19.6608 19.8131 19.7206 19.6385 19.7204V19.7205ZM23.7168 17.6953C23.6212 17.6954 23.5264 17.6774 23.4375 17.6422C23.3439 17.6055 23.2585 17.5508 23.1861 17.4811C23.1137 17.4114 23.0557 17.3281 23.0155 17.236C22.9753 17.1439 22.9536 17.0448 22.9517 16.9443C22.9498 16.8438 22.9678 16.7439 23.0045 16.6504L23.5866 15.166C24.0681 13.9389 25.1522 12.9566 26.4862 12.5386C27.3689 12.2619 28.1093 11.6009 28.4184 10.8132L28.5446 10.4908C28.5813 10.3972 28.6361 10.3118 28.7058 10.2394C28.7756 10.167 28.8589 10.109 28.951 10.0688C29.0432 10.0286 29.1423 10.0069 29.2428 10.005C29.3433 10.0031 29.4432 10.0211 29.5368 10.0578C29.7257 10.1321 29.8775 10.2783 29.9586 10.4643C30.0398 10.6503 30.0439 10.861 29.9698 11.05L29.8436 11.372C29.3621 12.5992 28.2779 13.5814 26.9439 13.9995C26.0612 14.2758 25.3209 14.9372 25.0114 15.7249L24.4294 17.2093C24.3732 17.3525 24.2752 17.4755 24.148 17.5622C24.0209 17.6489 23.8706 17.6953 23.7167 17.6952L23.7168 17.6953ZM11.4365 22.5296C10.5491 22.5296 9.66455 22.2912 8.87031 21.817C8.69609 21.7129 8.57033 21.5439 8.52071 21.3471C8.47108 21.1503 8.50164 20.9418 8.60566 20.7676C8.70972 20.5933 8.87873 20.4676 9.07551 20.4179C9.2723 20.3683 9.48074 20.3989 9.65498 20.5029C10.6934 21.1228 11.9557 21.1628 13.0313 20.6089C13.7878 20.2202 14.6304 20.0296 15.4805 20.055C15.9944 20.0712 16.5027 20.1663 16.9876 20.3372C17.179 20.4046 17.3359 20.5453 17.4236 20.7283C17.5114 20.9113 17.5229 21.1216 17.4557 21.3131C17.3153 21.7121 16.8781 21.9215 16.4799 21.7812C16.1429 21.6625 15.7898 21.5963 15.4327 21.5847C14.8423 21.5668 14.2571 21.6994 13.7321 21.97C13.0055 22.3435 12.2201 22.5296 11.4365 22.5296Z" fill="#3A3D51"/>
<path d="M27.5162 32.6328C21.6328 35.8223 15.2806 35.6419 12.798 32.3582C12.6431 32.154 12.504 31.9383 12.3817 31.7131C12.2591 31.4884 12.1543 31.2543 12.0686 31.0131C10.6716 27.1408 13.9889 21.7205 19.8723 18.5307C26.1192 15.1439 32.896 15.5552 35.006 19.4488C37.1174 23.344 33.7643 29.2457 27.5162 32.6328Z" fill="#71C799"/>
<path d="M12.3818 31.7135C10.2707 27.8194 13.6246 21.917 19.8723 18.5303C26.1203 15.1436 32.8957 15.5557 35.0063 19.4496C34.2476 18.0496 28.5679 19.6595 22.3202 23.0461C16.0722 26.4328 11.6228 30.3135 12.3818 31.7135Z" fill="#33A39D"/>
<path d="M32.2094 29.1088C32.3486 26.6823 31.8291 24.1688 30.5736 21.8525C29.3178 19.5361 27.4952 17.7288 25.3861 16.5211C29.7001 15.6864 33.5163 16.7 35.0067 19.4492C36.4972 22.1984 35.2635 25.9499 32.2094 29.1088Z" fill="#65687F"/>
<path d="M25.386 16.5211C26.8612 17.3656 28.1952 18.5043 29.2938 19.9043C32.3376 18.8519 34.5523 18.6119 35.0063 19.4496L34.9972 19.4336C33.5011 16.6966 29.6917 15.6883 25.386 16.5211Z" fill="#3A3D51"/>
<path d="M32.5173 21.6694L12.7979 32.3582C12.643 32.154 12.5039 31.9383 12.3816 31.7131C12.259 31.4884 12.1542 31.2543 12.0685 31.0131L31.7878 20.3243C32.1601 20.1226 32.6243 20.2603 32.8254 20.6325C33.0275 21.0041 32.8888 21.4684 32.5173 21.6694Z" fill="#65687F"/>
<path d="M25 0C11.1927 0 0 11.1927 0 25C0 38.8073 11.1927 50 25 50C38.8073 50 50 38.8073 50 25C50 11.1927 38.8073 0 25 0ZM4.49678 25C4.49678 18.0512 7.95439 11.911 13.2419 8.20273L32.8141 43.9598C30.4055 44.9535 27.7672 45.5028 25 45.5028C13.6765 45.5032 4.49678 36.3235 4.49678 25ZM36.7573 41.7977L17.1855 6.04023C19.5938 5.04648 22.2328 4.49678 25 4.49678C36.3235 4.49678 45.5021 13.6765 45.5021 25C45.5021 31.9488 42.0448 38.0894 36.7573 41.7977Z" fill="#EE5662"/>
</g>
<defs>
<clipPath id="clip0_93_632">
<rect width="50" height="50" fill="white"/>
</clipPath>
</defs>
</svg>
