<svg width="42" height="25" viewBox="0 0 42 25" fill="none" xmlns="http://www.w3.org/2000/svg">
<path d="M41.6667 12.5C41.6667 19.359 36.0898 25 29.1667 25C22.3077 25 16.6667 19.359 16.6667 12.5C16.6667 5.64103 22.2436 0 29.1026 0C36.0898 0 41.6667 5.64103 41.6667 12.5Z" fill="#F9B50B"/>
<path d="M24.9359 12.5641C24.9359 11.6667 24.8077 10.7692 24.6795 9.9359H16.9872C17.0513 9.48718 17.1795 9.10256 17.3077 8.58974H24.1667C24.0385 8.14103 23.8462 7.69231 23.6538 7.24359H17.8205C18.0128 6.79487 18.2692 6.41026 18.5256 5.89744H22.9487C22.6923 5.44872 22.3718 5 21.9872 4.55128H19.5513C19.9359 4.10256 20.3205 3.71795 20.8333 3.26923C18.6538 1.21795 15.7051 0 12.4359 0C5.64103 0.192308 0 5.64103 0 12.5C0 19.359 5.57692 25 12.5 25C15.7692 25 18.6538 23.718 20.8974 21.7308C21.3462 21.3462 21.7308 20.8974 22.1795 20.3846H19.6154C19.2949 20 18.9744 19.5513 18.7179 19.1026H23.0769C23.3333 18.7179 23.5897 18.2692 23.7821 17.7564H17.9487C17.7564 17.3718 17.5641 16.9231 17.4359 16.4103H24.2949C24.6795 15.2564 24.9359 13.9744 24.9359 12.5641Z" fill="#C8191C"/>
<path d="M16.9231 15.7059L17.1154 14.552C17.0513 14.552 16.9231 14.6161 16.7949 14.6161C16.3462 14.6161 16.2821 14.3597 16.3462 14.2315L16.7308 11.9238H17.4359L17.6282 10.6418H16.9872L17.1154 9.87256H15.7693C15.7693 9.87256 15 14.2315 15 14.7444C15 15.5136 15.4487 15.8982 16.0898 15.8982C16.4744 15.8982 16.7949 15.77 16.9231 15.7059Z" fill="white"/>
<path d="M17.3717 13.5897C17.3717 15.4487 18.6538 15.8974 19.6794 15.8974C20.641 15.8974 21.0897 15.7051 21.0897 15.7051L21.3461 14.423C21.3461 14.423 20.641 14.7435 19.9359 14.7435C18.4615 14.7435 18.7179 13.6538 18.7179 13.6538H21.4102C21.4102 13.6538 21.6025 12.8204 21.6025 12.4358C21.6025 11.6025 21.1538 10.5128 19.6794 10.5128C18.3974 10.4487 17.3717 11.923 17.3717 13.5897ZM19.6794 11.6666C20.3846 11.6666 20.2564 12.4999 20.2564 12.564H18.782C18.8461 12.4999 18.9743 11.6666 19.6794 11.6666Z" fill="white"/>
<path d="M28.0769 15.7048L28.3334 14.2305C28.3334 14.2305 27.6923 14.551 27.1795 14.551C26.2821 14.551 25.8334 13.8459 25.8334 13.0125C25.8334 11.41 26.6026 10.5766 27.5641 10.5766C28.2051 10.5766 28.7821 10.9612 28.7821 10.9612L28.9744 9.55098C28.9744 9.55098 28.2051 9.23047 27.4359 9.23047C25.8975 9.23047 24.4231 10.5766 24.4231 13.0766C24.4231 14.7433 25.1923 15.833 26.7949 15.833C27.3718 15.8971 28.0769 15.7048 28.0769 15.7048Z" fill="white"/>
<path d="M9.67947 10.4478C8.78204 10.4478 8.07691 10.7042 8.07691 10.7042L7.8846 11.858C7.8846 11.858 8.46153 11.6016 9.35896 11.6016C9.80768 11.6016 10.1923 11.6657 10.1923 12.0503C10.1923 12.3067 10.1282 12.3708 10.1282 12.3708H9.55127C8.39742 12.3708 7.17947 12.8195 7.17947 14.358C7.17947 15.576 7.9487 15.8324 8.46153 15.8324C9.35896 15.8324 9.80768 15.2554 9.87178 15.2554L9.80768 15.7683H10.8974L11.4102 12.1144C11.4102 10.5119 10.1282 10.4478 9.67947 10.4478ZM9.93588 13.3965C9.93588 13.5888 9.80768 14.6785 9.03845 14.6785C8.65383 14.6785 8.52563 14.358 8.52563 14.1657C8.52563 13.8452 8.71794 13.3965 9.74358 13.3965C9.87178 13.3965 9.93588 13.3965 9.93588 13.3965Z" fill="white"/>
<path d="M12.6923 15.834C13.0128 15.834 14.6795 15.8981 14.6795 14.1032C14.6795 12.4365 13.0769 12.757 13.0769 12.116C13.0769 11.7955 13.3333 11.6673 13.782 11.6673C13.9743 11.6673 14.6795 11.7314 14.6795 11.7314L14.8718 10.5135C14.8718 10.5135 14.423 10.3853 13.5897 10.3853C12.6282 10.3853 11.6025 10.7699 11.6025 12.116C11.6025 13.6545 13.2692 13.5263 13.2692 14.1032C13.2692 14.4878 12.8205 14.5519 12.5 14.5519C11.923 14.5519 11.282 14.3596 11.282 14.3596L11.0897 15.5776C11.2179 15.7058 11.6025 15.834 12.6923 15.834Z" fill="white"/>
<path d="M39.1025 9.42236L38.8461 11.2172C38.8461 11.2172 38.3333 10.5762 37.564 10.5762C36.3461 10.5762 35.3204 12.0506 35.3204 13.7813C35.3204 14.8711 35.8333 15.9608 36.9871 15.9608C37.7563 15.9608 38.2692 15.448 38.2692 15.448L38.2051 15.8967H39.5512L40.5128 9.55057L39.1025 9.42236ZM38.4615 12.8839C38.4615 13.589 38.141 14.5506 37.3717 14.5506C36.923 14.5506 36.6666 14.166 36.6666 13.4608C36.6666 12.3711 37.1153 11.7301 37.7563 11.7301C38.2051 11.7942 38.4615 12.1147 38.4615 12.8839Z" fill="white"/>
<path d="M2.43591 15.7685L3.20514 11.0249L3.33335 15.7685H4.23079L5.96155 11.0249L5.25643 15.7685H6.66668L7.75643 9.42236H5.57694L4.23079 13.3326L4.16668 9.42236H2.24361L1.15386 15.7685H2.43591Z" fill="white"/>
<path d="M22.9487 15.7695C23.3333 13.59 23.3974 11.7951 24.359 12.1156C24.4872 11.2823 24.6795 10.8977 24.8077 10.5771H24.5513C23.9743 10.5771 23.4615 11.3464 23.4615 11.3464L23.5897 10.6413H22.3077L21.4743 15.7695H22.9487Z" fill="white"/>
<path d="M31.1538 10.4478C30.2564 10.4478 29.5513 10.7042 29.5513 10.7042L29.359 11.858C29.359 11.858 29.9359 11.6016 30.8333 11.6016C31.2821 11.6016 31.6667 11.6657 31.6667 12.0503C31.6667 12.3067 31.6026 12.3708 31.6026 12.3708H31.0256C29.8718 12.3708 28.6538 12.8195 28.6538 14.358C28.6538 15.576 29.4231 15.8324 29.9359 15.8324C30.8333 15.8324 31.2821 15.2554 31.3462 15.2554L31.2821 15.7683H32.5L33.0128 12.1144C33.0128 10.5119 31.6026 10.4478 31.1538 10.4478ZM31.4744 13.3965C31.4744 13.5888 31.3462 14.6785 30.5769 14.6785C30.1923 14.6785 30.0641 14.358 30.0641 14.1657C30.0641 13.8452 30.2564 13.3965 31.2821 13.3965C31.4103 13.3965 31.4103 13.3965 31.4744 13.3965Z" fill="white"/>
<path d="M34.0384 15.7695C34.4231 13.59 34.4872 11.7951 35.4487 12.1156C35.5769 11.2823 35.7692 10.8977 35.8974 10.5771H35.641C35.0641 10.5771 34.5513 11.3464 34.5513 11.3464L34.6795 10.6413H33.3974L32.5641 15.7695H34.0384Z" fill="white"/>
</svg>
