<svg width="63" height="19" viewBox="0 0 63 19" fill="none" xmlns="http://www.w3.org/2000/svg">
<path d="M56.2928 0.5H44.3564C45.0517 4.44834 48.876 8.16443 53.048 8.16443H62.5508C62.6667 7.81605 62.6667 7.2354 62.6667 6.88702C62.6667 3.40319 59.7695 0.5 56.2928 0.5Z" fill="url(#paint0_linear_98_2288)"/>
<path d="M45.3994 8.86133V18.4999H51.1938V13.3903H56.2929C59.0742 13.3903 61.5078 11.4161 62.3191 8.86133H45.3994Z" fill="#4FAD50"/>
<path d="M25.0032 0.5V18.3837H30.1022C30.1022 18.3837 31.377 18.3837 32.0723 17.1063C35.549 10.2547 36.5919 8.16443 36.5919 8.16443H37.2873V18.3837H43.0817V0.5H37.9826C37.9826 0.5 36.7078 0.616135 36.0125 1.77741C33.1153 7.69992 31.4929 10.7192 31.4929 10.7192H30.7975V0.5H25.0032Z" fill="#4FAD50"/>
<path d="M0.666672 18.4989V0.615234H6.46106C6.46106 0.615234 8.08351 0.615231 9.01061 3.17004C11.3284 9.90544 11.5602 10.8345 11.5602 10.8345C11.5602 10.8345 12.0237 9.20868 14.1097 3.17004C15.0368 0.615231 16.6592 0.615234 16.6592 0.615234H22.4536V18.4989H16.6592V8.8603H15.9639L12.719 18.4989H10.1695L6.92464 8.8603H6.22931V18.4989H0.666672Z" fill="#4FAD50"/>
<defs>
<linearGradient id="paint0_linear_98_2288" x1="44.3358" y1="4.38714" x2="62.6257" y2="4.38714" gradientUnits="userSpaceOnUse">
<stop stop-color="#27B1E6"/>
<stop offset="1" stop-color="#148ACA"/>
</linearGradient>
</defs>
</svg>
