<svg width="60" height="19" viewBox="0 0 60 19" fill="none" xmlns="http://www.w3.org/2000/svg">
<path d="M55.6988 0.756836H51.9898C50.8684 0.756836 50.0058 1.09969 49.4883 2.21398L42.4152 18.2425H47.4181C47.4181 18.2425 48.2807 16.0997 48.4532 15.5854C48.9708 15.5854 53.8874 15.5854 54.5775 15.5854C54.75 16.1854 55.1813 18.1568 55.1813 18.1568H59.6667L55.6988 0.756836ZM49.8333 11.9854C50.2646 10.9568 51.731 7.09969 51.731 7.09969C51.731 7.18541 52.1623 6.07112 52.3348 5.47112L52.6798 7.01398C52.6798 7.01398 53.6287 11.214 53.8012 12.0711H49.8333V11.9854Z" fill="#3362AB"/>
<path d="M42.7602 12.5C42.7602 16.1 39.4825 18.5 34.3933 18.5C32.2369 18.5 30.1667 18.0714 29.0453 17.5571L29.7354 13.6143L30.3392 13.8714C31.8918 14.5571 32.9269 14.8143 34.8246 14.8143C36.2047 14.8143 37.6711 14.3 37.6711 13.1C37.6711 12.3286 37.0673 11.8143 35.1696 10.9571C33.3582 10.1 30.943 8.72857 30.943 6.24286C30.943 2.81429 34.307 0.5 39.0512 0.5C40.8626 0.5 42.4152 0.842857 43.364 1.27143L42.674 5.04286L42.329 4.7C41.4664 4.35714 40.345 4.01429 38.7062 4.01429C36.8947 4.1 36.0322 4.87143 36.0322 5.55714C36.0322 6.32857 37.0673 6.92857 38.7062 7.7C41.4664 8.98571 42.7602 10.4429 42.7602 12.5Z" fill="#3362AB"/>
<path d="M0.666668 0.927818L0.752925 0.584961H8.17105C9.20614 0.584961 9.98246 0.927818 10.2412 2.0421L11.8801 9.75639C10.2412 5.6421 6.44591 2.29925 0.666668 0.927818Z" fill="#F9B50B"/>
<path d="M22.3173 0.757589L14.8129 18.1576H9.72369L5.41083 3.58616C8.51609 5.55759 11.1038 8.6433 12.0526 10.7862L12.5702 12.5862L17.2281 0.671875H22.3173V0.757589Z" fill="#3362AB"/>
<path d="M24.3012 0.671875H29.0453L26.0263 18.1576H21.2822L24.3012 0.671875Z" fill="#3362AB"/>
</svg>
