<svg width="24" height="24" viewBox="0 0 24 24" fill="none" xmlns="http://www.w3.org/2000/svg">
<path d="M21.3662 23.9841H2.63342C2.14264 23.9841 1.745 23.5864 1.745 23.0956V8.77112H22.2548V23.0956C22.2548 23.5864 21.8569 23.9841 21.3662 23.9841Z" fill="#FFC73B"/>
<path d="M1.745 8.77112H22.2548V11.7519H1.745V8.77112Z" fill="#EFB025"/>
<path d="M24 5.66361V9.35647C24 9.75093 23.6799 10.0704 23.2855 10.0704H0.713906C0.3195 10.0704 0 9.75093 0 9.35647V5.66366C0 5.26921 0.3195 4.94971 0.713906 4.94971H23.2855C23.6799 4.94971 24 5.26921 24 5.66361Z" fill="#FFC73B"/>
<path d="M11.1841 6.64747C11.0284 6.82873 10.8757 7.01259 10.7262 7.19896C10.1719 7.88882 9.66242 8.61351 9.20089 9.36857C9.05953 9.59989 8.9226 9.83388 8.79017 10.0704H3.92267C4.20717 9.425 4.51879 8.79187 4.8567 8.17274C5.47099 7.04651 6.17067 5.96901 6.94962 4.94971C7.13628 4.70532 7.32741 4.46437 7.5229 4.22699C7.64009 4.08378 7.75929 3.9426 7.88014 3.80197L9.21261 4.94971C9.28147 5.00867 9.35033 5.06835 9.419 5.1275C9.94339 5.57905 10.4678 6.03036 10.992 6.48247C11.0563 6.53703 11.12 6.59253 11.1841 6.64747ZM18.4466 10.0704H13.5788C13.4465 9.83377 13.3096 9.59977 13.1681 9.36857C12.7063 8.61363 12.1968 7.88896 11.6427 7.19896C11.4928 7.01266 11.34 6.82879 11.1841 6.64742C11.2483 6.59253 11.3121 6.53741 11.3764 6.48247C11.9012 6.03036 12.4256 5.57849 12.9498 5.1275C13.0186 5.06835 13.0875 5.00867 13.1563 4.94971C13.6006 4.56702 14.0449 4.18471 14.4888 3.80197C14.6096 3.94208 14.7286 4.08364 14.846 4.22661C15.0417 4.46397 15.2328 4.70504 15.4193 4.94971C16.1983 5.96909 16.8981 7.04658 17.5126 8.17274C17.8505 8.79187 18.1621 9.425 18.4466 10.0704Z" fill="#EFB025"/>
<path d="M11.9996 6.64783C11.8438 6.82896 11.691 7.01276 11.5415 7.19917C10.9873 7.88913 10.4778 8.61389 10.0162 9.36901C8.5496 11.7663 7.58344 14.4357 7.17592 17.2164C6.56087 16.4006 5.99326 15.518 5.48256 14.5743C4.58425 15.1602 3.70623 15.8304 2.86084 16.5844C3.29304 13.6364 4.24494 10.7884 5.67226 8.1729C6.43403 6.77624 7.32671 5.45508 8.33828 4.2272C8.45568 4.08414 8.57475 3.94246 8.69547 3.80219C9.20856 4.24403 9.72128 4.68587 10.2345 5.12772C10.7588 5.57922 11.2832 6.03058 11.8076 6.48269C11.8717 6.53725 11.9354 6.59275 11.9996 6.64783ZM21.1388 16.5844C20.2934 15.8304 19.4154 15.1602 18.5171 14.5743C18.0064 15.518 17.4388 16.4005 16.8237 17.2163C16.4163 14.4356 15.4501 11.7662 13.9834 9.36897C13.5217 8.61395 13.0122 7.8892 12.4581 7.19917C12.3083 7.01294 12.1554 6.82914 11.9997 6.64783C12.0637 6.59275 12.1275 6.53762 12.1917 6.48269C12.7165 6.03058 13.2409 5.5787 13.7653 5.12772C14.2784 4.68531 14.7917 4.24403 15.3041 3.80219C15.4249 3.94229 15.544 4.08385 15.6614 4.22683C16.6731 5.4548 17.566 6.77609 18.328 8.1729C19.7549 10.7885 20.7066 13.6364 21.1388 16.5844L21.1388 16.5844Z" fill="#FF4440"/>
<path d="M10.0891 6.64783H13.9107V10.0705H10.0891V6.64783Z" fill="#FF4440"/>
<path d="M18.3279 8.1729L13.9834 9.36896C13.5217 8.61394 13.0123 7.8892 12.4581 7.19917L12.1917 6.48268L11.9996 5.96593L13.7653 5.12771L15.6614 4.22678C16.6732 5.45477 17.566 6.77608 18.3279 8.1729Z" fill="#EA2F2F"/>
<path d="M11.9996 5.96591L11.8076 6.48266L11.5415 7.19914C10.9872 7.8891 10.4778 8.61386 10.0162 9.36899L5.67224 8.17288C6.43401 6.77621 7.32669 5.45505 8.33826 4.22717L10.2345 5.12764L11.9996 5.96591Z" fill="#EA2F2F"/>
<path d="M18.9335 0.166078L11.9998 3.45886L13.3317 7.04095L20.7325 5.00391C21.7004 4.73747 22.2321 3.69872 21.8822 2.75775L21.2714 1.1153C20.9216 0.174328 19.8404 -0.264609 18.9335 0.166078ZM5.06617 0.166078L11.9998 3.45886L10.6679 7.04095L3.26734 5.00391C2.29947 4.73747 1.76772 3.69872 2.11764 2.75775L2.72828 1.1153C3.0782 0.174328 4.15923 -0.264609 5.06617 0.166078Z" fill="#FF4440"/>
<path d="M13.6554 4.89843C13.5912 4.89854 13.528 4.88243 13.4717 4.85161C13.4153 4.82078 13.3677 4.77623 13.3332 4.72209C13.3061 4.67983 13.2877 4.63265 13.2789 4.58326C13.27 4.53387 13.2711 4.48322 13.2818 4.43421C13.2926 4.38521 13.3129 4.3388 13.3416 4.29765C13.3703 4.2565 13.4068 4.2214 13.4491 4.19437C13.5016 4.1609 14.7504 3.36618 16.1842 2.78629C18.251 1.95023 19.6313 1.99509 20.2861 2.9196C20.3151 2.96056 20.3358 3.00683 20.3469 3.05578C20.3581 3.10473 20.3595 3.1554 20.351 3.20488C20.3426 3.25437 20.3244 3.3017 20.2977 3.34418C20.2709 3.38665 20.236 3.42344 20.1951 3.45243C20.1541 3.48144 20.1079 3.5021 20.0589 3.51322C20.01 3.52435 19.9594 3.52573 19.9099 3.51728C19.8604 3.50883 19.8131 3.49072 19.7707 3.46398C19.7282 3.43724 19.6914 3.4024 19.6624 3.36145C18.7747 2.10829 15.0839 4.05688 13.8609 4.83838C13.7996 4.87763 13.7283 4.89847 13.6554 4.89843ZM10.3065 4.89843C10.2336 4.89847 10.1623 4.87763 10.101 4.83838C8.87803 4.05688 5.18719 2.10829 4.29952 3.3614C4.24092 3.44413 4.15186 3.50019 4.05192 3.51725C3.95199 3.53431 3.84937 3.51098 3.76664 3.45238C3.68395 3.39376 3.62793 3.3047 3.6109 3.20477C3.59387 3.10485 3.61724 3.00226 3.67585 2.91956C4.33064 1.99509 5.71069 1.95018 7.77778 2.78624C9.2115 3.36599 10.4603 4.16085 10.5128 4.19437C10.5981 4.24897 10.6583 4.33522 10.6801 4.43417C10.7019 4.53312 10.6835 4.63666 10.6289 4.72204C10.5943 4.77616 10.5466 4.82069 10.4903 4.85151C10.4339 4.88233 10.3707 4.8985 10.3065 4.89843Z" fill="#EA2F2F"/>
<path d="M13.0871 2.22763H10.9126C10.3174 2.22763 9.83496 2.71012 9.83496 3.30543V6.46452C9.83496 7.05983 10.3174 7.54227 10.9126 7.54227H13.0871C13.6822 7.54227 14.1647 7.05979 14.1647 6.46452V3.30543C14.1647 2.71012 13.6822 2.22763 13.0871 2.22763Z" fill="#EA2F2F"/>
<path d="M10.0891 10.0704H13.9107V23.9841H10.0891V10.0704Z" fill="#FF4440"/>
<path d="M10.0891 10.0704H13.9107V11.7519H10.0891V10.0704Z" fill="#EA2F2F"/>
</svg>
