<svg width="24" height="24" viewBox="0 0 24 24" fill="none" xmlns="http://www.w3.org/2000/svg">
<path d="M12 0C9.53268 0 6.71184 3.83222 6.71184 8.54236C6.71184 14.6282 11.6653 23.4907 11.8415 23.8653C11.8819 23.9512 11.9395 24 11.9999 24C12.057 24 12.1134 23.988 12.1655 23.9648C12.2176 23.9416 12.2643 23.9077 12.3024 23.8653C12.6389 23.4907 20.5423 14.6282 20.5423 8.54236C20.5424 3.83222 16.7104 0 12 0ZM12 13.017C9.52874 13.017 7.5254 11.0137 7.5254 8.54236C7.5254 6.07106 9.52874 4.06781 12 4.06781C14.4712 4.06781 16.4746 6.07111 16.4746 8.54241C16.4746 11.0137 14.4712 13.017 12 13.017Z" fill="#FF6469"/>
<path d="M11.8416 23.8654C11.6653 23.4907 6.71189 14.6282 6.71189 8.54241C6.71184 3.83222 9.53269 0 12 0C7.28963 0 3.45764 3.83222 3.45764 8.54236C3.45764 14.6282 11.361 23.4907 11.6975 23.8653C11.7357 23.9077 11.7823 23.9416 11.8344 23.9648C11.8865 23.988 11.943 24 12 24C11.9395 24 11.8819 23.9512 11.8416 23.8654Z" fill="#D2555F"/>
</svg>
