<svg width="24" height="24" viewBox="0 0 24 24" fill="none" xmlns="http://www.w3.org/2000/svg">
<g clip-path="url(#clip0_138_4474)">
<path d="M23.9972 8.68433V21.6961C23.9972 22.3637 23.7132 22.9647 23.2597 23.3853C22.8484 23.7668 22.2978 24 21.693 24H2.30381C1.69903 24 1.14844 23.7668 0.73753 23.3858C0.284156 22.9647 0 22.3637 0 21.6961V8.68433H23.9972Z" fill="#FEC970"/>
<path d="M23.9972 8.68432L14.7733 1.00396C13.1656 -0.334736 10.8316 -0.334736 9.2239 1.00396L0 8.68432H0.0001875L2.71874 10.9479L9.2239 16.3643C10.8318 17.7033 13.1658 17.7033 14.7731 16.3643L21.2789 10.9479L23.9974 8.68428" fill="#FBA028"/>
<path d="M21.2789 3.89118V10.9479L14.7731 16.3643C13.1658 17.7034 10.8318 17.7034 9.22392 16.3643L2.71875 10.9479V3.89118C2.71875 2.41992 3.91172 1.227 5.38331 1.227H18.6147C20.0863 1.227 21.2789 2.41992 21.2789 3.89118H21.2789Z" fill="#BFDADD"/>
<path d="M21.2789 3.89118V9.33159L14.7731 14.7483C13.1658 16.0871 10.8318 16.0871 9.22392 14.7483L2.71875 9.33159V3.89118C2.71875 2.41992 3.91172 1.227 5.38331 1.227H18.6147C20.0863 1.227 21.2789 2.41992 21.2789 3.89118H21.2789Z" fill="#E4F5F7"/>
<path d="M21.7605 22.5048C21.6747 22.5048 21.5916 22.4748 21.5257 22.4198L15.6687 17.5433C15.5939 17.481 15.5469 17.3915 15.538 17.2945C15.5292 17.1975 15.5592 17.1009 15.6215 17.0261C15.7513 16.8702 15.9829 16.849 16.1387 16.9788L21.9955 21.8551C22.0326 21.8859 22.0633 21.9238 22.0857 21.9665C22.1082 22.0091 22.122 22.0558 22.1264 22.1039C22.1308 22.1519 22.1257 22.2004 22.1114 22.2464C22.0971 22.2925 22.0738 22.3353 22.043 22.3723C22.0085 22.4138 21.9653 22.4472 21.9165 22.4701C21.8677 22.493 21.8144 22.5048 21.7605 22.5048ZM8.31684 17.553L3.50372 21.6643C2.84053 22.2308 3.13697 23.3135 3.99628 23.4629C5.37853 23.7032 6.9937 23.9727 7.428 24H2.30386C1.69908 24 1.14848 23.7669 0.737578 23.3858C0.284156 22.9647 0 22.3638 0 21.6963V8.68428H1.73911V17.5541C1.7558 19.3471 3.85786 20.3093 5.23589 19.1623L7.85855 16.9786C8.01708 16.847 8.25459 16.871 8.38294 17.035C8.50688 17.193 8.4712 17.4247 8.31684 17.553V17.553Z" fill="#FBA028"/>
<path d="M17.3855 10.5423H6.61145C6.56322 10.5423 6.51545 10.5328 6.47088 10.5143C6.42631 10.4959 6.38582 10.4688 6.35171 10.4347C6.3176 10.4006 6.29055 10.3601 6.27209 10.3155C6.25363 10.271 6.24413 10.2232 6.24414 10.175C6.24417 10.0775 6.28287 9.98413 6.35175 9.91525C6.42063 9.84637 6.51404 9.80767 6.61145 9.80764H17.3855C17.4829 9.80767 17.5764 9.84637 17.6452 9.91525C17.7141 9.98413 17.7528 10.0775 17.7528 10.175C17.7528 10.2232 17.7434 10.271 17.7249 10.3155C17.7064 10.3601 17.6794 10.4006 17.6453 10.4347C17.6112 10.4688 17.5707 10.4959 17.5261 10.5143C17.4815 10.5328 17.4338 10.5423 17.3855 10.5423ZM17.3855 12.6756H6.61145C6.40858 12.6756 6.24414 12.5112 6.24414 12.3083C6.24414 12.1055 6.40858 11.941 6.61145 11.941H17.3855C17.5885 11.941 17.7528 12.1055 17.7528 12.3083C17.7528 12.5112 17.5885 12.6756 17.3855 12.6756ZM17.3855 6.27594H6.61145C6.51404 6.27591 6.42063 6.23721 6.35175 6.16833C6.28287 6.09945 6.24417 6.00604 6.24414 5.90863C6.24413 5.86039 6.25363 5.81262 6.27209 5.76805C6.29055 5.72349 6.3176 5.68299 6.35171 5.64888C6.38582 5.61477 6.42631 5.58772 6.47088 5.56926C6.51545 5.5508 6.56322 5.54131 6.61145 5.54131H17.3855C17.4338 5.54131 17.4815 5.5508 17.5261 5.56926C17.5707 5.58772 17.6112 5.61477 17.6453 5.64888C17.6794 5.68299 17.7064 5.72349 17.7249 5.76805C17.7434 5.81262 17.7528 5.86039 17.7528 5.90863C17.7528 6.00604 17.7141 6.09945 17.6452 6.16833C17.5764 6.23721 17.4829 6.27591 17.3855 6.27594ZM17.3855 8.40913H6.61145C6.40858 8.40913 6.24414 8.24469 6.24414 8.04181C6.24414 7.83894 6.40858 7.6745 6.61145 7.6745H17.3855C17.5885 7.6745 17.7528 7.83889 17.7528 8.04181C17.7528 8.24474 17.5885 8.40913 17.3855 8.40913Z" fill="#4B5051"/>
</g>
<defs>
<clipPath id="clip0_138_4474">
<rect width="24" height="24" fill="white"/>
</clipPath>
</defs>
</svg>
