<svg width="24" height="24" viewBox="0 0 24 24" fill="none" xmlns="http://www.w3.org/2000/svg">
<g clip-path="url(#clip0_93_657)">
<path d="M23.996 12C23.996 5.37248 18.6244 0 11.998 0C5.37173 0 0 5.37248 0 12C0 18.6275 5.37178 24 11.998 24C18.6244 24 23.996 18.6275 23.996 12Z" fill="#66D15F"/>
<path d="M19.5511 2.67667C21.2241 4.73949 22.2274 7.36782 22.2274 10.231C22.2274 16.8584 16.8556 22.231 10.2294 22.231C7.36672 22.231 4.73877 21.2276 2.67627 19.5542C4.87611 22.2662 8.23424 24 11.998 24C18.6244 24 23.996 18.6275 23.996 12C23.996 8.23571 22.2625 4.87689 19.5511 2.67667Z" fill="#53BC77"/>
<path d="M15.3062 14.3692L14.0733 15.2977C13.8424 15.4717 13.5258 15.4812 13.2861 15.3193C11.5296 14.1321 10.2127 12.3829 9.55741 10.3663C9.46801 10.0913 9.56472 9.78975 9.79562 9.61579L11.0383 8.67993C11.0832 8.64627 11.1183 8.60135 11.1402 8.54974C11.1621 8.49813 11.17 8.44166 11.163 8.38603C11.1185 8.03686 11.0986 7.68499 11.1035 7.33303C11.1108 6.80709 10.7009 6.31696 10.1801 6.24351L9.09742 6.09098C7.80728 5.90901 6.8154 6.82471 6.89101 8.12568C6.95453 9.21516 7.17062 10.2903 7.53297 11.3197C8.33753 13.6058 9.8364 15.5966 11.8107 17.0017C12.6996 17.6345 13.6729 18.1393 14.7023 18.5013C15.9315 18.9338 17.0854 18.2334 17.2673 16.9429L17.4167 15.8826C17.4902 15.3603 17.1368 14.8101 16.6282 14.6714C16.2925 14.5799 15.9636 14.4652 15.6438 14.328C15.5889 14.3044 15.5288 14.2958 15.4694 14.3031C15.4101 14.3103 15.3538 14.3331 15.3062 14.3692Z" fill="#D4FFDF"/>
<path d="M8.91833 6.24352C9.43887 6.31697 9.84903 6.80715 9.84172 7.33304C9.83679 7.68882 9.85709 8.04038 9.90125 8.38604C9.9082 8.44169 9.9003 8.49819 9.87836 8.54981C9.85642 8.60143 9.82122 8.64632 9.77633 8.67994L8.53381 9.61557C8.3029 9.78975 8.2062 10.0913 8.29559 10.3663C8.9509 12.3827 10.2678 14.1319 12.0244 15.3191C12.2638 15.4812 12.5804 15.4715 12.8113 15.2976L13.0257 15.136C11.3996 13.9556 10.1801 12.2818 9.55737 10.3663C9.46798 10.0913 9.56469 9.78957 9.79578 9.61561L11.0383 8.67994C11.0832 8.64632 11.1184 8.60142 11.1403 8.5498C11.1622 8.49819 11.1701 8.44169 11.1632 8.38604C11.1185 8.03687 11.0985 7.68497 11.1035 7.33299C11.1108 6.80696 10.7008 6.31674 10.1801 6.24352L9.09739 6.0908C8.78173 6.04632 8.48417 6.06793 8.21558 6.14447L8.91833 6.24352ZM16.6281 14.6713C16.2925 14.5799 15.9636 14.4651 15.644 14.3278C15.589 14.3043 15.5288 14.2958 15.4695 14.3031C15.4101 14.3103 15.3538 14.3332 15.3061 14.3692L15.0366 14.5723C15.1453 14.6074 15.255 14.6411 15.3664 14.6713C15.875 14.8099 16.2284 15.3604 16.1548 15.8826L16.0054 16.9429C15.8939 17.7351 15.4156 18.3042 14.779 18.5263C15.9791 18.9036 17.0894 18.2066 17.2674 16.9429L17.4168 15.8826C17.4904 15.3603 17.137 14.8099 16.6281 14.6714V14.6713Z" fill="#B1FFC5"/>
</g>
<defs>
<clipPath id="clip0_93_657">
<rect width="24" height="24" fill="white"/>
</clipPath>
</defs>
</svg>
