<svg width="60" height="60" viewBox="0 0 60 60" fill="none" xmlns="http://www.w3.org/2000/svg">
<g clip-path="url(#clip0_93_402)">
<path d="M53.0204 24.5303V59.6242H6.97957V24.5303L30.1298 2.07318L53.0204 24.5303Z" fill="#E9EAEF"/>
<path d="M53.2654 7.34443V23.1012L45.4287 15.6379L41.7552 12.1395V7.34443C41.7552 6.41256 42.5106 5.65717 43.4425 5.65717H51.5782C52.51 5.65705 53.2654 6.41256 53.2654 7.34443Z" fill="#9EB1B7"/>
<path d="M45.4286 5.65704V15.6379L41.7551 12.1395V7.34443C41.7551 6.41255 42.5105 5.65716 43.4423 5.65716L45.4286 5.65704Z" fill="#879BA0"/>
<path d="M60 54.2191V59.624H32.2041V54.2191C32.2041 53.1427 33.0771 52.2709 34.1535 52.2709H58.0506C59.127 52.2709 60 53.1428 60 54.2191ZM9.74332 54.2191V59.624H0V54.2191C0 53.1427 0.871875 52.2709 1.94813 52.2709H7.79379C8.87145 52.2709 9.74332 53.1428 9.74332 54.2191Z" fill="#9CCE21"/>
<path d="M60 56.0559V59.624H32.2041V56.0559C32.2041 54.9795 33.0771 54.1077 34.1535 54.1077H58.0506C59.127 54.1076 60 54.9795 60 56.0559ZM9.74332 56.0559V59.624H0V56.0559C0 54.9795 0.871875 54.1077 1.94813 54.1077H7.79379C8.87145 54.1076 9.74332 54.9795 9.74332 56.0559Z" fill="#85C10D"/>
<path d="M53.0204 25.908V32.4675L30 10.488L6.97957 32.4675V25.908L28.1719 5.72476L30 4.02625L31.827 5.72476L53.0204 25.908Z" fill="#D2D4D8"/>
<path d="M29.9996 6.83757L3.78926 31.8616L0.124454 28.7848L28.1722 2.07343L29.9996 0.375732L31.8271 2.07343L59.8747 28.7848L56.2098 31.8616L29.9996 6.83757Z" fill="#EA4756"/>
<path d="M12.6122 33.3306H27.7958V59.6241H12.6122V33.3306Z" fill="#C97523"/>
<path d="M32.2041 33.3306H49.4951V48.5143H32.2041V33.3306Z" fill="#A0D9F2"/>
<path d="M32.2041 33.3306H49.4951V37.9445H32.2041V33.3306Z" fill="#C97523"/>
<path d="M24.804 47.3117H22.6C22.0927 47.3117 21.6816 46.9004 21.6816 46.3933C21.6816 45.8861 22.0927 45.4749 22.6 45.4749H24.804C25.3113 45.4749 25.7224 45.8861 25.7224 46.3933C25.7224 46.9004 25.3113 47.3117 24.804 47.3117Z" fill="#8E480E"/>
<path d="M30 25.8231C32.333 25.8231 34.2243 23.9318 34.2243 21.5988C34.2243 19.2658 32.333 17.3746 30 17.3746C27.667 17.3746 25.7757 19.2658 25.7757 21.5988C25.7757 23.9318 27.667 25.8231 30 25.8231Z" fill="#413740"/>
<path d="M27.7959 32.4126H12.6122C12.3686 32.4126 12.135 32.5094 11.9628 32.6816C11.7905 32.8538 11.6938 33.0874 11.6938 33.331V59.6245H13.5305V34.2493H26.8774V59.6244H28.7141V33.3309C28.7142 33.2103 28.6905 33.0909 28.6443 32.9794C28.5982 32.868 28.5306 32.7667 28.4453 32.6815C28.3601 32.5962 28.2588 32.5285 28.1474 32.4824C28.036 32.4363 27.9165 32.4126 27.7959 32.4126ZM49.4946 32.4126H32.2041C31.9605 32.4126 31.7269 32.5094 31.5547 32.6816C31.3824 32.8538 31.2857 33.0874 31.2857 33.331V48.5146C31.2857 48.7582 31.3824 48.9918 31.5547 49.164C31.7269 49.3363 31.9605 49.433 32.2041 49.433H49.4946C49.7382 49.433 49.9718 49.3363 50.144 49.164C50.3162 48.9918 50.413 48.7582 50.413 48.5146V33.3309C50.413 33.2103 50.3893 33.0908 50.3431 32.9794C50.297 32.868 50.2293 32.7668 50.144 32.6815C50.0588 32.5962 49.9575 32.5286 49.8461 32.4824C49.7346 32.4363 49.6152 32.4126 49.4946 32.4126ZM48.5762 34.2493V37.0264H33.1225V34.2493H48.5762ZM33.1225 47.5962V38.8632H48.5762V47.5962H33.1225Z" fill="#8E480E"/>
<path d="M30 26.7413C27.1643 26.7413 24.8573 24.4343 24.8573 21.5986C24.8573 18.7629 27.1643 16.4559 30 16.4559C32.8357 16.4559 35.1427 18.7628 35.1427 21.5986C35.1427 24.4342 32.8357 26.7413 30 26.7413ZM30 18.2927C28.1771 18.2927 26.6941 19.7757 26.6941 21.5986C26.6941 23.4215 28.1771 24.9045 30 24.9045C31.8229 24.9045 33.3059 23.4215 33.3059 21.5986C33.3059 19.7757 31.8229 18.2927 30 18.2927Z" fill="#EA4756"/>
</g>
<defs>
<clipPath id="clip0_93_402">
<rect width="60" height="60" fill="white"/>
</clipPath>
</defs>
</svg>
