<svg width="60" height="60" viewBox="0 0 60 60" fill="none" xmlns="http://www.w3.org/2000/svg">
<g clip-path="url(#clip0_97_1977)">
<path d="M25.6567 59.5538C25.5346 59.554 25.4137 59.529 25.3016 59.4804C25.1896 59.4319 25.0887 59.3608 25.0054 59.2715C23.3244 57.4762 20.9501 56.4466 18.4908 56.4466H3.98367C1.78711 56.4466 0 54.6595 0 52.4629C0 50.2664 1.78711 48.4792 3.98367 48.4792H20.9563C21.4489 48.4792 21.8482 48.8785 21.8482 49.3712C21.8482 49.8638 21.4489 50.2631 20.9563 50.2631H3.98367C2.77066 50.2631 1.78395 51.2498 1.78395 52.4628C1.78395 53.6758 2.77066 54.6625 3.98367 54.6625H18.4908C21.4417 54.6625 24.2907 55.898 26.3075 58.0521C26.3876 58.1376 26.4501 58.238 26.4913 58.3476C26.5326 58.4572 26.5518 58.5739 26.548 58.691C26.5441 58.8081 26.5172 58.9232 26.4689 59.0299C26.4205 59.1366 26.3516 59.2327 26.2661 59.3128C26.1011 59.4679 25.8831 59.5541 25.6567 59.5538Z" fill="#766D78"/>
<path d="M59.9877 48.6337C59.2962 43.3154 55.2784 38.9422 50.1956 37.3401V28.2964C50.1956 27.6815 49.5623 27.2676 49.0005 27.5175C45.1076 29.2491 43.8922 33.3379 43.5189 36.0079C43.5128 35.9966 43.5052 35.9864 43.4994 35.9748C40.8996 30.7668 35.5657 27.444 29.7001 27.444H12.302C6 27.444 0.891914 32.5519 0.891914 38.8529C0.891914 42.0045 2.16926 44.8564 4.23387 46.921C6.29848 48.9856 9.15035 50.263 12.302 50.263H58.5629C59.4323 50.2631 60.0996 49.496 59.9877 48.6337Z" fill="#8E8391"/>
<path d="M29.2982 42.8336V45.0766C29.2982 47.1246 28.4216 48.9727 27.0243 50.2631H23.2293C25.6661 49.7957 27.5142 47.6478 27.5142 45.0766V42.8336C27.5142 42.3412 27.9127 41.9417 28.4061 41.9417C28.6427 41.9417 28.8695 42.0357 29.0368 42.203C29.2041 42.3702 29.2981 42.5971 29.2982 42.8336Z" fill="#655E67"/>
<path d="M8.39637 46.9212C10.461 48.9858 13.3128 50.2631 16.4645 50.2631H12.302C9.15035 50.2631 6.29848 48.9858 4.23387 46.9212C2.16926 44.8565 0.891914 42.0047 0.891914 38.853C0.891914 32.5522 5.99988 27.4441 12.302 27.4441H16.4645C10.1625 27.4441 5.05441 32.5521 5.05441 38.853C5.05453 42.0047 6.33176 44.8565 8.39637 46.9212ZM50.1952 28.2969V29.7728C48.8118 31.436 48.14 33.4916 47.816 35.1898C47.6486 36.067 46.8709 36.6848 45.9778 36.6838H44.6473C44.1739 36.6838 43.7399 36.4246 43.5186 36.0095C43.8921 33.3395 45.1076 29.2495 49.0013 27.518C49.5625 27.2682 50.1952 27.682 50.1952 28.2969Z" fill="#766D78"/>
<path d="M52.1725 43.6768L53.0692 42.8437C53.4301 42.5084 53.451 41.9439 53.1156 41.5831C52.7802 41.2223 52.2162 41.2013 51.855 41.5367L50.8618 42.4593L49.8687 41.5367C49.7829 41.457 49.6822 41.3949 49.5724 41.3541C49.4626 41.3133 49.3458 41.2945 49.2288 41.2988C48.9924 41.3075 48.7691 41.4098 48.6081 41.5831C48.4471 41.7564 48.3615 41.9866 48.3702 42.223C48.3789 42.4594 48.4812 42.6827 48.6545 42.8437L49.5512 43.6768L48.6545 44.5099C48.5687 44.5896 48.4994 44.6854 48.4506 44.7919C48.4018 44.8984 48.3745 45.0135 48.3702 45.1306C48.3615 45.367 48.4471 45.5971 48.6081 45.7705C48.7691 45.9438 48.9924 46.046 49.2288 46.0547C49.4652 46.0634 49.6954 45.9779 49.8687 45.8169L50.8618 44.8942L51.855 45.8169C52.0289 45.9747 52.2579 46.0576 52.4925 46.0476C52.7271 46.0377 52.9483 45.9356 53.1081 45.7635C53.268 45.5915 53.3535 45.3634 53.3462 45.1287C53.3389 44.894 53.2394 44.6716 53.0692 44.5099L52.1725 43.6768Z" fill="#444145"/>
<path d="M34.0684 31.533V40.3493C34.0684 41.1235 33.1895 41.5707 32.5639 41.1152L26.6639 36.8266L20.872 32.6165L34.0137 28.1566L34.0684 31.533Z" fill="#D80A61"/>
<path d="M19.7384 38.139C30.147 38.139 38.5848 29.7012 38.5848 19.2926C38.5848 8.88395 30.147 0.446106 19.7384 0.446106C9.32975 0.446106 0.891914 8.88395 0.891914 19.2926C0.891914 29.7012 9.32975 38.139 19.7384 38.139Z" fill="#DD544F"/>
<path d="M21.8198 38.0253C21.1361 38.1015 20.4415 38.1395 19.7386 38.1395C9.32988 38.1395 0.891914 29.7015 0.891914 19.2928C0.891914 8.88407 9.33 0.446106 19.7386 0.446106C20.4415 0.446106 21.1361 0.484192 21.8198 0.560247C12.39 1.59618 5.05453 9.58697 5.05453 19.2928C5.05453 28.9986 12.39 36.9894 21.8198 38.0253Z" fill="#D80A61"/>
<path d="M32.7204 17.524C32.63 11.3148 26.7464 6.28838 19.5748 6.29377C12.4065 6.29904 6.66598 11.334 6.75633 17.5432C6.80484 20.8703 8.52668 24.4102 11.2182 26.9798C11.407 27.1602 11.558 27.3764 11.6624 27.6158C11.7668 27.8552 11.8225 28.113 11.8262 28.3741L11.8494 29.9641C11.8643 30.9879 12.8343 31.8165 14.0167 31.8156L25.8724 31.8068C27.0548 31.806 28.0041 30.9729 27.9892 29.9491L27.9663 28.3816C27.9626 28.1158 28.0127 27.852 28.1135 27.6061C28.2144 27.3602 28.3639 27.1372 28.5532 26.9505C31.1583 24.3784 32.7687 20.8427 32.7204 17.524Z" fill="#F6EFF0"/>
<path d="M17.3304 16.586C16.5843 18.476 14.6886 19.6181 13.1014 19.1359C11.5105 18.6505 10.8257 16.7236 11.5718 14.8336C12.3179 12.9404 14.2099 11.7984 15.8007 12.2838C17.3917 12.766 18.0766 14.6928 17.3304 16.586ZM26.4544 19.1259C24.8776 19.6105 22.9525 18.4713 22.1513 16.5824C21.35 14.6904 21.9789 12.7625 23.5556 12.278C25.1324 11.7902 27.0575 12.9294 27.8587 14.8214C28.6598 16.7103 28.031 18.6382 26.4544 19.1259ZM22.5543 24.8643L19.9511 19.7795C19.8622 19.606 19.6143 19.606 19.5255 19.7795L16.9226 24.8643C16.4152 25.8555 17.135 27.0329 18.2487 27.0329C18.9164 27.0329 19.4811 26.5936 19.6704 25.9882C19.6748 25.9735 19.6837 25.9607 19.696 25.9515C19.7082 25.9423 19.7231 25.9373 19.7384 25.9372C19.7699 25.9372 19.797 25.9581 19.8063 25.9882C19.9956 26.5935 20.5603 27.0329 21.228 27.0329C22.3417 27.0329 23.0617 25.8557 22.5543 24.8643Z" fill="#C8BEBC"/>
<path d="M18.0689 31.8137C16.901 31.8137 15.5583 31.8149 14.017 31.816C12.8337 31.816 11.8644 30.9883 11.8489 29.9644L11.8263 28.3742C11.8227 28.1132 11.767 27.8555 11.6627 27.6162C11.5584 27.3769 11.4074 27.1607 11.2186 26.9804C8.52727 24.4104 6.80508 20.8698 6.75633 17.5434C6.66598 11.3341 12.4066 6.29869 19.5745 6.29388C20.2869 6.29388 20.9862 6.34263 21.6689 6.43779C15.4965 7.30006 10.8369 11.9442 10.9189 17.5434C10.9677 20.8699 12.6898 24.4104 15.3812 26.9804C15.57 27.1607 15.721 27.3769 15.8253 27.6162C15.9297 27.8555 15.9853 28.1132 15.9889 28.3742L16.0116 29.9644C16.0269 30.9562 16.9366 31.7636 18.0689 31.8137Z" fill="#EBE0DA"/>
</g>
<defs>
<clipPath id="clip0_97_1977">
<rect width="60" height="60" fill="white"/>
</clipPath>
</defs>
</svg>
