<svg width="60" height="60" viewBox="0 0 60 60" fill="none" xmlns="http://www.w3.org/2000/svg">
<g clip-path="url(#clip0_97_2038)">
<path d="M27.446 19.0188C27.3047 19.0191 27.1653 18.9861 27.039 18.9227C26.9127 18.8593 26.803 18.7672 26.7188 18.6537C25.864 17.5043 24.5013 15.158 24.9785 12.3574C24.9985 12.2402 25.0414 12.1281 25.1047 12.0274C25.168 11.9268 25.2505 11.8396 25.3475 11.7708C25.4445 11.7021 25.5541 11.6531 25.67 11.6267C25.7859 11.6003 25.9059 11.597 26.0231 11.6169C26.1404 11.6369 26.2525 11.6798 26.3531 11.7431C26.4538 11.8064 26.541 11.8889 26.6097 11.9859C26.6785 12.0829 26.7275 12.1925 26.7539 12.3084C26.7803 12.4243 26.7836 12.5443 26.7636 12.6615C26.3995 14.7979 27.4896 16.6556 28.1718 17.573C28.2427 17.6684 28.2942 17.7768 28.3233 17.8921C28.3523 18.0074 28.3584 18.1273 28.3411 18.2449C28.3238 18.3626 28.2835 18.4757 28.2225 18.5777C28.1615 18.6798 28.081 18.7688 27.9856 18.8398C27.8298 18.9562 27.6405 19.019 27.446 19.0188Z" fill="#596C76"/>
<path d="M32.554 19.0188C32.3862 19.0188 32.2217 18.9721 32.0789 18.8839C31.9361 18.7958 31.8206 18.6697 31.7454 18.5197C31.6701 18.3698 31.6379 18.2018 31.6526 18.0347C31.6672 17.8675 31.728 17.7077 31.8282 17.5731C32.5105 16.6554 33.6011 14.7972 33.2364 12.662C33.1994 12.4268 33.2566 12.1865 33.3954 11.9931C33.5343 11.7998 33.7438 11.6689 33.9784 11.6288C34.2131 11.5887 34.4541 11.6426 34.6493 11.7789C34.8445 11.9152 34.9782 12.1229 35.0214 12.3571C35.4995 15.1567 34.1364 17.5037 33.2812 18.6537C33.1969 18.7671 33.0873 18.8592 32.961 18.9227C32.8347 18.9861 32.6953 19.019 32.554 19.0188Z" fill="#7A8C98"/>
<path d="M47.2086 41.033C47.0097 41.0331 46.8163 40.9674 46.6586 40.8462L43.2771 38.2554C43.141 38.1511 43.0373 38.0103 42.9781 37.8494C42.9188 37.6885 42.9065 37.514 42.9426 37.3464L43.7084 33.7833L39.5388 33.3265C39.3001 33.3003 39.0816 33.1804 38.9313 32.9931C38.781 32.8059 38.7112 32.5665 38.7374 32.3278C38.7635 32.0891 38.8835 31.8706 39.0707 31.7203C39.258 31.57 39.4974 31.5002 39.7361 31.5264L44.9031 32.0925C45.029 32.1064 45.1507 32.1465 45.2602 32.2103C45.3696 32.2741 45.4645 32.3601 45.5386 32.4629C45.6128 32.5657 45.6645 32.6828 45.6906 32.8068C45.7166 32.9308 45.7163 33.0589 45.6898 33.1828L44.8336 37.1665L47.7601 39.4086C47.9104 39.5238 48.0209 39.6831 48.0759 39.8643C48.1309 40.0454 48.1278 40.2393 48.0669 40.4186C48.006 40.5979 47.8905 40.7536 47.7366 40.8638C47.5826 40.974 47.398 41.0331 47.2086 41.033ZM41.9413 48.396C41.745 48.3961 41.554 48.3321 41.3973 48.2138L38.6822 46.1686C38.5867 46.0967 38.5064 46.0066 38.4459 45.9035C38.3854 45.8004 38.3459 45.6864 38.3297 45.5679C38.3136 45.4495 38.321 45.3291 38.3516 45.2135C38.3822 45.098 38.4355 44.9896 38.5082 44.8948L40.5879 42.1797L36.8488 40.0829C36.7451 40.0248 36.6539 39.9468 36.5803 39.8533C36.5067 39.7599 36.4523 39.6529 36.4201 39.5385C36.3879 39.424 36.3785 39.3043 36.3926 39.1863C36.4066 39.0682 36.4438 38.9541 36.5019 38.8504C36.5601 38.7466 36.6381 38.6554 36.7315 38.5819C36.8249 38.5083 36.9319 38.4539 37.0464 38.4216C37.1608 38.3894 37.2805 38.3801 37.3986 38.3941C37.5166 38.4082 37.6308 38.4453 37.7345 38.5035L42.3849 41.1111C42.4981 41.1746 42.5963 41.2616 42.673 41.3664C42.7496 41.4711 42.8028 41.5911 42.829 41.7183C42.8551 41.8454 42.8536 41.9766 42.8246 42.1031C42.7956 42.2296 42.7397 42.3484 42.6607 42.4514L40.5007 45.2713L42.4867 46.7672C42.5817 46.8387 42.6616 46.9283 42.722 47.0307C42.7824 47.1331 42.822 47.2465 42.8385 47.3642C42.8551 47.482 42.8483 47.6018 42.8186 47.7169C42.7888 47.8321 42.7367 47.9402 42.6652 48.0352C42.5808 48.1474 42.4715 48.2385 42.3459 48.3011C42.2202 48.3637 42.0817 48.3962 41.9413 48.396ZM38.2947 25.5308C38.0993 25.531 37.9091 25.4679 37.7525 25.3511C37.5959 25.2343 37.4813 25.07 37.4258 24.8827C37.3703 24.6954 37.3768 24.4951 37.4444 24.3118C37.5121 24.1285 37.6372 23.972 37.8011 23.8657L41.1871 21.6688L38.6981 16.5256C38.6013 16.3253 38.5815 16.0964 38.6426 15.8825C38.7036 15.6686 38.8413 15.4846 39.0293 15.3657L43.344 12.6386C43.5469 12.5143 43.7906 12.4749 44.0223 12.5289C44.254 12.5829 44.4552 12.7259 44.5823 12.927C44.7094 13.1281 44.7523 13.3712 44.7016 13.6036C44.6509 13.8361 44.5108 14.0393 44.3115 14.1693L40.6802 16.4645L43.1651 21.5991C43.2612 21.7976 43.2815 22.0245 43.2222 22.2369C43.1629 22.4494 43.028 22.6329 42.8429 22.753L38.7866 25.3848C38.6402 25.4801 38.4693 25.5309 38.2947 25.5308Z" fill="#7A8C98"/>
<path d="M12.7914 41.033C12.602 41.0332 12.4174 40.9741 12.2634 40.8639C12.1094 40.7538 11.9938 40.5981 11.933 40.4188C11.8721 40.2395 11.8689 40.0456 11.924 39.8645C11.9791 39.6833 12.0895 39.524 12.2399 39.4089L15.1655 37.1666L14.3102 33.1827C14.2837 33.0588 14.2834 32.9307 14.3094 32.8068C14.3355 32.6828 14.3872 32.5656 14.4614 32.4629C14.5355 32.3601 14.6304 32.2741 14.7399 32.2103C14.8493 32.1465 14.971 32.1064 15.0969 32.0926L20.2639 31.5265C20.3821 31.5135 20.5017 31.524 20.6159 31.5573C20.73 31.5905 20.8365 31.646 20.9293 31.7204C21.022 31.7948 21.0992 31.8868 21.1564 31.991C21.2136 32.0953 21.2497 32.2097 21.2626 32.3279C21.2756 32.4461 21.2651 32.5657 21.2318 32.6799C21.1986 32.794 21.1432 32.9005 21.0687 32.9933C20.9943 33.086 20.9023 33.1632 20.7981 33.2204C20.6939 33.2776 20.5794 33.3137 20.4612 33.3266L16.2914 33.7835L17.0563 37.3467C17.0923 37.5143 17.0799 37.6887 17.0207 37.8495C16.9615 38.0104 16.8579 38.1511 16.7218 38.2554L13.3416 40.8462C13.1838 40.9674 12.9904 41.0331 12.7914 41.033ZM18.0574 48.396C17.8675 48.3961 17.6823 48.3365 17.5281 48.2256C17.3739 48.1147 17.2585 47.9581 17.1982 47.778C17.1379 47.5979 17.1357 47.4034 17.1921 47.222C17.2484 47.0406 17.3603 46.8815 17.512 46.7672L19.4988 45.2713L17.338 42.4516C17.2591 42.3486 17.2032 42.2298 17.1742 42.1033C17.1452 41.9768 17.1437 41.8455 17.1699 41.7184C17.196 41.5912 17.2492 41.4712 17.3259 41.3664C17.4025 41.2617 17.5008 41.1746 17.614 41.1111L22.2655 38.5035C22.3692 38.4453 22.4834 38.4082 22.6015 38.3942C22.7195 38.3801 22.8392 38.3895 22.9537 38.4217C23.0681 38.4539 23.1751 38.5084 23.2685 38.5819C23.3619 38.6555 23.4399 38.7468 23.4981 38.8505C23.5562 38.9542 23.5934 39.0683 23.6074 39.1864C23.6215 39.3045 23.6121 39.4242 23.5799 39.5386C23.5476 39.6531 23.4932 39.7601 23.4196 39.8535C23.3461 39.9469 23.2548 40.0249 23.1511 40.0831L19.4112 42.1797L21.4918 44.8947C21.5645 44.9896 21.6177 45.0979 21.6483 45.2135C21.6789 45.329 21.6863 45.4495 21.6701 45.5679C21.654 45.6864 21.6145 45.8004 21.554 45.9035C21.4936 46.0067 21.4133 46.0968 21.3178 46.1687L18.6015 48.2139C18.4448 48.3322 18.2538 48.3961 18.0574 48.396ZM21.7042 25.5308C21.5295 25.5309 21.3585 25.4802 21.2121 25.3848L17.157 22.753C16.9719 22.6329 16.8371 22.4494 16.7778 22.2369C16.7185 22.0244 16.7388 21.7976 16.8349 21.5991L19.3196 16.4646L15.6874 14.1694C15.5869 14.1059 15.4999 14.0232 15.4313 13.926C15.3628 13.8289 15.314 13.7192 15.2879 13.6032C15.2617 13.4872 15.2586 13.3672 15.2789 13.25C15.2991 13.1328 15.3422 13.0208 15.4057 12.9203C15.4692 12.8198 15.5519 12.7327 15.6491 12.6642C15.7462 12.5956 15.8559 12.5469 15.9719 12.5207C16.0879 12.4946 16.2079 12.4915 16.3251 12.5117C16.4422 12.5319 16.5543 12.575 16.6548 12.6386L20.9707 15.3657C21.1588 15.4846 21.2965 15.6685 21.3576 15.8824C21.4188 16.0964 21.3989 16.3253 21.302 16.5256L18.8129 21.6689L22.198 23.8658C22.3619 23.9721 22.4871 24.1287 22.5547 24.312C22.6224 24.4953 22.6289 24.6956 22.5734 24.8829C22.5178 25.0702 22.4031 25.2345 22.2465 25.3513C22.0898 25.4681 21.8996 25.5311 21.7042 25.5308Z" fill="#596C76"/>
<path d="M39.6366 27.8157V32.9916C36.3857 32.9923 37.6393 31.2668 35.1759 31.2668H24.8234C22.3601 31.2668 22.4439 32.9916 20.3629 32.9916V27.8157C20.3629 25.3514 22.3591 23.3552 24.8234 23.3552H35.1759C37.6393 23.3552 39.6366 25.3514 39.6366 27.8157Z" fill="#C68D7A"/>
<path d="M39.6362 32.9916C39.6362 37.5707 36.4431 41.4036 32.1609 42.3864C31.4655 42.5445 30.7424 42.6291 29.9987 42.6291C29.255 42.6291 28.5319 42.5446 27.8378 42.3864C23.5556 41.4036 20.3625 37.5707 20.3625 32.9916C20.3625 30.5288 22.3604 28.5308 24.8232 28.5308H35.1753C37.6394 28.5308 39.6362 30.5288 39.6362 32.9916Z" fill="#D1A08F"/>
<path d="M29.5126 23.3552C27.0483 23.3552 25.052 25.3515 25.052 27.8157V28.531H24.8234C22.3601 28.531 20.3629 30.5283 20.3629 32.9916V27.8157C20.3629 25.3514 22.3591 23.3552 24.8234 23.3552H29.5126Z" fill="#BC7C63"/>
<path d="M27.8379 42.3858C23.5565 41.4045 20.3631 37.571 20.3631 32.9918C20.3631 30.5285 22.3603 28.5313 24.8236 28.5313H25.0522V32.9918C25.0522 35.4983 26.0091 37.7816 27.5775 39.4957C28.8334 40.8681 28.5328 42.5451 27.8379 42.3858Z" fill="#C68D7A"/>
<path d="M34.5103 28.5308V32.9916C34.5103 35.6716 34.1155 38.2044 33.3973 40.1239C33.0158 41.1441 32.5921 41.872 32.1611 42.3864C31.4657 42.5445 30.7425 42.6291 29.9988 42.6291C29.2552 42.6291 28.532 42.5446 27.8379 42.3864C27.4069 41.872 26.9844 41.1442 26.6017 40.1239C25.8846 38.2044 25.4886 35.6716 25.4886 32.9916V28.5308H27.2995V32.9916C27.2995 35.4604 27.6545 37.7674 28.298 39.4889C28.875 41.0318 29.5692 41.7236 30.0002 41.7236C31.0747 41.7224 32.6997 38.2406 32.6997 32.9916V28.5308H34.5103Z" fill="#BC7C63"/>
<path d="M30 17.3388C27.4607 17.3388 25.402 19.3973 25.402 21.9368V23.3551H34.598V21.9368C34.598 19.3973 32.5395 17.3388 30 17.3388Z" fill="#7A8C98"/>
<path d="M31.7138 17.6683C30.0225 18.3482 28.8294 20.0025 28.8294 21.9361V23.355H25.402V21.9361C25.402 19.3973 27.46 17.3385 29.9997 17.3385C30.5868 17.3379 31.1687 17.4498 31.7138 17.6683Z" fill="#596C76"/>
<path d="M58.1891 28.1891H58.1415C57.7102 21.338 54.8379 14.9564 49.9406 10.0593C45.0434 5.16199 38.6619 2.28984 31.8108 1.85848V1.8109C31.8109 0.81082 31.0001 0 30 0C28.9999 0 28.1891 0.81082 28.1891 1.8109V1.85848C21.338 2.28984 14.9564 5.16211 10.0593 10.0593C5.16199 14.9565 2.28973 21.338 1.85836 28.1891H1.81078C0.81082 28.1891 0 28.9999 0 30C0 31.0001 0.81082 31.8109 1.8109 31.8109H1.85848C2.28984 38.662 5.16211 45.0436 10.0594 49.9407C14.9566 54.838 21.3381 57.7103 28.1892 58.1416V58.1892C28.1892 59.1893 29 60.0001 30.0001 60.0001C31.0002 60.0001 31.811 59.1893 31.811 58.1892V58.1416C38.6622 57.7103 45.0437 54.838 49.9409 49.9407C54.8381 45.0435 57.7104 38.662 58.1418 31.8109H58.1893C59.1894 31.8109 60.0002 31.0001 60.0002 30C60.0002 28.9999 59.1892 28.1891 58.1891 28.1891ZM31.8109 54.5119V51.2557C31.8109 50.2556 31.0001 49.4448 30 49.4448C28.9999 49.4448 28.1891 50.2556 28.1891 51.2557V54.5119C16.0767 53.6256 6.37441 43.9232 5.48812 31.8108H8.7443C9.74437 31.8108 10.5552 31 10.5552 29.9999C10.5552 28.9998 9.74437 28.189 8.7443 28.189H5.48812C6.37441 16.0766 16.0768 6.3743 28.1891 5.48789V8.74406C28.1891 9.74414 28.9999 10.555 30 10.555C31.0001 10.555 31.8109 9.74414 31.8109 8.74406V5.48812C43.9233 6.37441 53.6256 16.0768 54.5119 28.1892H51.2557C50.2556 28.1892 49.4448 29 49.4448 30.0001C49.4448 31.0002 50.2556 31.811 51.2557 31.811H54.5119C53.6256 43.9232 43.9232 53.6256 31.8109 54.5119Z" fill="#FE646F"/>
</g>
<defs>
<clipPath id="clip0_97_2038">
<rect width="60" height="60" fill="white"/>
</clipPath>
</defs>
</svg>
