<svg width="33" height="33" viewBox="0 0 33 33" fill="none" xmlns="http://www.w3.org/2000/svg">
<g clip-path="url(#clip0_93_758)">
<path fill-rule="evenodd" clip-rule="evenodd" d="M16.7664 29.892C17.1548 30.2025 17.3482 30.3716 17.5416 30.3767C17.7329 30.3671 17.9243 30.1936 18.3054 29.8743L28.3307 19.3692C31.2943 16.1242 31.2338 10.8694 28.1962 7.69174C25.4363 4.80559 20.9668 5.50556 18.1585 8.33234L17.6307 8.86346C17.3249 9.17094 17.266 9.17162 16.9458 8.86397L16.4151 8.35243C13.548 5.58915 9.05804 4.99426 6.36533 7.94323C3.40172 11.19 3.46226 16.4449 6.49985 19.6207L7.73101 20.8537L16.7664 29.892Z" fill="#FD8087"/>
<path fill-rule="evenodd" clip-rule="evenodd" d="M19.3967 7.29576C20.8809 9.39711 21.7567 11.9033 21.7878 14.6017C21.7912 14.8964 21.7835 15.1875 21.7665 15.4751C21.6321 17.8733 20.8257 20.1115 19.5186 22.0295C18.9428 22.8743 18.2706 23.6576 17.5129 24.3663C16.7042 25.1236 15.8005 25.7935 14.8184 26.3593C14.4796 26.5544 14.1334 26.7366 13.7808 26.9054L16.7665 29.8921C17.1549 30.2027 17.3483 30.3718 17.5417 30.3768C17.7331 30.3673 17.9244 30.1937 18.3055 29.8744L21.3726 26.6595L28.3308 19.3692C30.6726 16.8056 31.1257 12.9854 29.7152 9.92901C29.3394 9.11729 28.8336 8.35863 28.1962 7.69174C27.7769 7.25447 27.3181 6.89867 26.8325 6.62062C25.2498 5.71598 23.3764 5.63256 21.6154 6.19438C20.8432 6.44092 20.0908 6.81436 19.3967 7.29576Z" fill="#FE636E"/>
<path d="M20.3948 18.3357L20.3862 18.3357C20.3011 18.3352 20.2176 18.3121 20.1443 18.269C20.071 18.2258 20.0103 18.164 19.9685 18.0899L17.4201 13.5679L15.5992 16.838C15.5586 16.9108 15.4999 16.9719 15.4287 17.0153C15.3575 17.0587 15.2763 17.083 15.193 17.0857C15.1097 17.0884 15.0271 17.0695 14.9533 17.0308C14.8794 16.9921 14.8168 16.935 14.7716 16.8649L13.5961 15.043L12.7417 16.5007C12.6996 16.5725 12.6396 16.6323 12.5676 16.6741C12.4956 16.7159 12.414 16.7384 12.3307 16.7393L9.31354 16.7741C9.04687 16.7772 8.8282 16.5634 8.82513 16.2966C8.82206 16.0298 9.03574 15.811 9.30241 15.8079L12.0467 15.7763L13.1599 13.8772C13.2016 13.806 13.2608 13.7467 13.3319 13.7049C13.403 13.6632 13.4836 13.6403 13.5661 13.6385L13.5708 13.6384C13.6525 13.6375 13.733 13.6573 13.805 13.6959C13.8769 13.7346 13.9378 13.7909 13.9821 13.8595L15.1468 15.6648L16.9958 12.3444C17.0372 12.2701 17.0975 12.208 17.1705 12.1645C17.2436 12.121 17.3269 12.0975 17.412 12.0965L17.4164 12.0965C17.5022 12.0963 17.5865 12.119 17.6607 12.1622C17.7348 12.2054 17.7961 12.2676 17.8382 12.3424L20.3951 16.8795L21.6341 14.743C21.676 14.6707 21.7361 14.6104 21.8083 14.5683C21.8806 14.5261 21.9626 14.5034 22.0462 14.5024L26.0703 14.4561C26.337 14.453 26.5557 14.6668 26.5587 14.9336C26.5618 15.2004 26.3481 15.4192 26.0815 15.4222L22.3318 15.4654L20.8068 18.095C20.7649 18.1674 20.7048 18.2276 20.6326 18.2698C20.5604 18.312 20.4784 18.3347 20.3948 18.3357Z" fill="#F8F2F0"/>
<path fill-rule="evenodd" clip-rule="evenodd" d="M26.8806 10.7999C29.7671 10.7666 32.0945 8.3837 32.0612 5.49383C32.0279 2.60577 29.6463 0.277111 26.7598 0.310363C23.8715 0.343635 21.5442 2.72654 21.5774 5.6146C21.6107 8.50447 23.9923 10.8331 26.8806 10.7999Z" fill="#F8F2F0"/>
<path fill-rule="evenodd" clip-rule="evenodd" d="M24.8843 0.678307C26.7363 1.47121 28.0425 3.29829 28.0671 5.44221C28.0675 5.47533 28.0679 5.50852 28.0665 5.53985C28.0624 6.14962 27.955 6.73484 27.7588 7.27682C27.2522 8.69006 26.1532 9.82455 24.7604 10.3785C25.4098 10.6584 26.1277 10.8085 26.8807 10.7999C27.9281 10.7878 28.902 10.4689 29.7151 9.92902C31.1476 8.97671 32.0824 7.34121 32.0611 5.49383C32.0278 2.5984 29.6536 0.27703 26.7598 0.310367C26.0971 0.318001 25.4652 0.44685 24.8843 0.678307Z" fill="#D6DCEA"/>
<path d="M28.7217 5.04908L27.2974 5.06549L27.281 3.64046C27.2779 3.37366 27.0593 3.15986 26.7926 3.16293C26.5259 3.166 26.3123 3.38479 26.3153 3.65158L26.3318 5.07668L24.9075 5.09308C24.6408 5.09616 24.4271 5.31494 24.4302 5.58174C24.4333 5.84853 24.6519 6.06234 24.9186 6.05927L26.3429 6.04286L26.3593 7.46796C26.3624 7.73475 26.581 7.94856 26.8477 7.94549C27.1144 7.94241 27.3281 7.72363 27.325 7.45683L27.3086 6.03168L28.7328 6.01527C28.9995 6.0122 29.2132 5.79341 29.2101 5.52661C29.2071 5.25982 28.9885 5.04601 28.7217 5.04908Z" fill="#FD8087"/>
<path fill-rule="evenodd" clip-rule="evenodd" d="M4.72187 22.0562L3.68701 25.5571L4.80464 29.2414L9.7721 30.5325L13.8014 31.5785C16.1532 32.2809 17.183 31.8527 19.3307 31.1354L27.2006 28.51C29.4602 27.7563 29.0856 24.6401 25.7788 25.7447L21.3725 26.6594L20.6525 26.8095C19.5835 27.03 19.4372 27.1182 18.3547 26.9631L14.8184 26.3591L14.1764 26.2487C12.7241 25.803 13.2651 23.8589 14.5301 24.0359C15.3855 24.1347 16.5324 24.2762 17.5128 24.3662C17.5331 24.3678 17.5534 24.3694 17.5718 24.371C19.4646 24.5408 20.2068 23.1194 19.5185 22.0294C19.2579 21.6142 18.7878 21.2457 18.0949 21.0345L15.4292 20.577C13.7007 20.2801 12.4792 20.6884 9.80769 21.1594L8.30291 21.4255L4.72187 22.0562Z" fill="#FED1A3"/>
<path fill-rule="evenodd" clip-rule="evenodd" d="M0.243195 21.4833L0.341115 29.9836C0.342346 30.0904 0.455648 30.1757 0.591889 30.1741L4.5645 30.1284C4.70255 30.1268 4.81386 30.0389 4.81263 29.9321L4.71471 21.4318C4.71348 21.325 4.60018 21.2397 4.46212 21.2413L0.489513 21.287C0.353273 21.2887 0.241965 21.3765 0.243195 21.4833Z" fill="#99E6FC"/>
<path fill-rule="evenodd" clip-rule="evenodd" d="M0.326111 28.6777L0.341155 29.9836C0.342385 30.0904 0.455688 30.1757 0.591929 30.1741L4.56454 30.1284C4.70259 30.1268 4.8139 30.0389 4.81267 29.9321L4.79763 28.6262C4.79884 28.7312 4.68755 28.8209 4.5495 28.8225L0.576885 28.8682C0.440644 28.8698 0.32732 28.7827 0.326111 28.6777Z" fill="#62DBFB"/>
<path fill-rule="evenodd" clip-rule="evenodd" d="M4.79755 28.6262L4.80463 29.2414L9.77209 30.5325L13.8014 31.5785C16.1532 32.2809 17.183 31.8527 19.3307 31.1354L27.2006 28.51C28.4753 28.0863 28.911 26.9097 28.4569 26.1615C28.2428 26.5987 27.8184 26.9941 27.1856 27.2041L19.3156 29.8294C17.1679 30.545 16.1382 30.975 13.7864 30.2726L9.75704 29.2266L4.78957 27.9336L4.79755 28.6262ZM14.5151 22.73C13.5119 22.5905 12.9641 23.7813 13.5026 24.5027C13.7107 24.1853 14.0728 23.973 14.5301 24.0359C15.3855 24.1347 16.5323 24.2762 17.5128 24.3662L17.5718 24.371C19.3761 24.5326 20.1346 23.251 19.6069 22.1868C19.4683 22.461 19.2335 22.6977 18.9076 22.858C18.5597 23.0296 18.106 23.1141 17.5568 23.0651L17.4978 23.0603C16.5173 22.9703 15.3705 22.8288 14.5151 22.73Z" fill="#FFBC85"/>
</g>
<defs>
<clipPath id="clip0_93_758">
<rect width="32" height="32" fill="white" transform="translate(0 0.368607) rotate(-0.66)"/>
</clipPath>
</defs>
</svg>
