<svg width="33" height="33" viewBox="0 0 33 33" fill="none" xmlns="http://www.w3.org/2000/svg">
<g clip-path="url(#clip0_93_710)">
<path d="M9.91243 3.82666C9.91243 3.82666 9.83586 6.17051 8.71101 7.99109C8.33131 8.60562 8.71549 9.40556 9.43368 9.48342C9.60006 9.50145 9.76828 9.47649 9.92225 9.41093C10.0762 9.34536 10.2108 9.24139 10.3131 9.10895L13.6073 4.84423L13.3071 2.47521L9.91243 3.82666Z" fill="#80B4FB"/>
<path d="M9.74143 5.18408L12.761 5.93991L13.6073 4.84421L13.3071 2.47526L9.91237 3.82664C9.91243 3.82664 9.89357 4.39277 9.74143 5.18408Z" fill="#61A2F9"/>
<path d="M8.69749 0.268417L17.9725 0.161571C18.1325 0.159726 18.2911 0.191126 18.4383 0.253782C18.5855 0.316439 18.7181 0.408985 18.8276 0.525558L21.4199 3.28363C21.8067 3.69508 21.8393 4.32587 21.4971 4.77503L19.5449 7.33693C19.3889 7.54179 19.3057 7.79293 19.3086 8.05045L19.3377 10.5755L13.9252 10.6378L13.1945 5.14088C13.1832 5.05576 13.1465 4.976 13.0894 4.91195C13.0322 4.8479 12.9571 4.80251 12.8738 4.78167L8.73749 3.74631L8.69743 0.268417L8.69749 0.268417Z" fill="#F9F6F9"/>
<path d="M21.4199 3.28363L18.8276 0.525553C18.718 0.408989 18.5855 0.316449 18.4383 0.253794C18.2911 0.191138 18.1325 0.159733 17.9725 0.161567L16.5147 0.17836C16.8381 0.174634 17.1483 0.306695 17.3698 0.542347L19.9622 3.30042C20.3489 3.71187 20.3815 4.34266 20.0393 4.79182L18.0872 7.35379C17.9311 7.55862 17.8479 7.80973 17.8509 8.06724L17.88 10.5923L19.3377 10.5755L19.3086 8.05045C19.3057 7.79297 19.3889 7.5418 19.5449 7.33699L21.4971 4.77502C21.8393 4.32586 21.8066 3.69507 21.4199 3.28363Z" fill="#DDDAEC"/>
<path d="M13.0565 10.6478L19.9937 10.5679C20.3325 10.564 20.6313 10.7896 20.7201 11.1167L25.5344 28.8295C25.6188 29.1401 25.6309 29.4659 25.5699 29.7819C25.5089 30.0979 25.3763 30.3957 25.1823 30.6525L24.7175 31.2679C24.5235 31.5248 24.2733 31.7338 23.986 31.8789C23.6987 32.024 23.382 32.1014 23.0601 32.1051L10.8525 32.2457C10.5188 32.2495 10.1889 32.174 9.88997 32.0254C9.59108 31.8768 9.33177 31.6593 9.13339 31.3909L8.53306 30.5785C8.27001 30.2225 8.12571 29.7928 8.12063 29.3502L8.01224 19.9409C8.00718 19.5017 8.11721 19.0689 8.33139 18.6855C8.54557 18.3021 8.85643 17.9815 9.23302 17.7556L11.1353 16.6143C11.5119 16.3884 11.8228 16.0677 12.0369 15.6843C12.2511 15.3009 12.3612 14.8681 12.3561 14.429L12.3212 11.4003C12.3164 10.9895 12.6456 10.6526 13.0565 10.6478Z" fill="#80B4FB"/>
<path d="M25.5343 28.8296L20.7201 11.1167C20.6769 10.9577 20.5821 10.8176 20.4507 10.7182C20.3192 10.6189 20.1584 10.5661 19.9937 10.568L18.5938 10.5841C18.9326 10.5802 19.2314 10.8058 19.3202 11.1328L24.1344 28.8457C24.2188 29.1562 24.231 29.482 24.17 29.798C24.109 30.114 23.9764 30.4118 23.7824 30.6686L23.3176 31.2841C23.1236 31.5409 22.8734 31.7499 22.5861 31.895C22.2988 32.0401 21.982 32.1175 21.6602 32.1212L23.0601 32.1051C23.3819 32.1014 23.6987 32.024 23.986 31.8789C24.2733 31.7338 24.5235 31.5248 24.7175 31.2679L25.1823 30.6525C25.3763 30.3957 25.5089 30.0979 25.5699 29.7819C25.6309 29.4659 25.6188 29.1401 25.5343 28.8296Z" fill="#61A2F9"/>
<path d="M8.69749 0.26841L8.73755 3.74637L7.05997 3.34735C6.97474 3.32708 6.89873 3.2789 6.84402 3.21047C6.78931 3.14204 6.75905 3.05728 6.75804 2.96968L6.73639 1.09049C6.73538 1.00289 6.76369 0.91746 6.8168 0.847788C6.86992 0.778116 6.9448 0.728196 7.02954 0.705964L8.69749 0.26841Z" fill="#80B4FB"/>
<path d="M13.938 18.3426L11.6413 20.2984C11.5174 20.4039 11.4183 20.5353 11.3509 20.6834C11.2835 20.8316 11.2496 20.9927 11.2514 21.1554L11.3365 28.5401C11.3436 29.1525 11.8457 29.6432 12.4581 29.6361L21.3143 29.5341C22.0325 29.5258 22.5534 28.8474 22.3761 28.1515L20.0097 18.8637C19.9483 18.6228 19.8077 18.4095 19.6105 18.258C19.4133 18.1066 19.171 18.0258 18.9224 18.0287L14.6442 18.078C14.3851 18.0809 14.1352 18.1746 13.938 18.3426Z" fill="#FFE07D"/>
<path d="M22.3761 28.1516L20.0097 18.8637C19.9483 18.6228 19.8077 18.4095 19.6105 18.258C19.4133 18.1066 19.171 18.0258 18.9224 18.0287L17.5673 18.0443C17.816 18.0414 18.0583 18.1222 18.2555 18.2736C18.4527 18.4251 18.5933 18.6384 18.6547 18.8793L21.021 28.1672C21.1984 28.8631 20.6774 29.5415 19.9593 29.5498L21.3143 29.5341C22.0325 29.5259 22.5534 28.8475 22.3761 28.1516Z" fill="#FFD064"/>
<path d="M16.99 5.61313L16.059 5.62385C15.9309 5.62533 15.8075 5.57587 15.7159 5.48636C15.6243 5.39685 15.572 5.27463 15.5706 5.14657C15.5691 5.01851 15.6186 4.89511 15.7081 4.80352C15.7976 4.71193 15.9198 4.65964 16.0479 4.65816L16.9789 4.64744C17.1069 4.64596 17.2303 4.69542 17.3219 4.78493C17.4135 4.87444 17.4658 4.99666 17.4673 5.12472C17.4687 5.25278 17.4193 5.37618 17.3298 5.46777C17.2403 5.55937 17.118 5.61165 16.99 5.61313ZM17.0079 7.17271L16.0769 7.18343C16.0135 7.18416 15.9506 7.1724 15.8917 7.14881C15.8329 7.12522 15.7792 7.09027 15.7339 7.04595C15.6885 7.00163 15.6524 6.94881 15.6274 6.89051C15.6025 6.8322 15.5893 6.76956 15.5885 6.70615C15.5878 6.64275 15.5996 6.57982 15.6232 6.52095C15.6468 6.46209 15.6817 6.40846 15.726 6.3631C15.7703 6.31775 15.8232 6.28157 15.8815 6.25663C15.9398 6.23169 16.0024 6.21848 16.0658 6.21775L16.9968 6.20702C17.0602 6.20629 17.1232 6.21806 17.182 6.24165C17.2409 6.26524 17.2945 6.30019 17.3399 6.34451C17.3852 6.38883 17.4214 6.44165 17.4463 6.49995C17.4713 6.55825 17.4845 6.6209 17.4852 6.6843C17.486 6.74771 17.4742 6.81064 17.4506 6.8695C17.427 6.92836 17.3921 6.982 17.3477 7.02736C17.3034 7.07271 17.2506 7.10889 17.1923 7.13383C17.134 7.15877 17.0714 7.17198 17.0079 7.17271ZM17.0259 8.73223L16.0949 8.74296C16.0315 8.74369 15.9686 8.73192 15.9097 8.70833C15.8508 8.68474 15.7972 8.64979 15.7519 8.60547C15.7065 8.56115 15.6703 8.50833 15.6454 8.45003C15.6204 8.39173 15.6072 8.32908 15.6065 8.26567C15.6058 8.20227 15.6175 8.13934 15.6411 8.08048C15.6647 8.02162 15.6997 7.96798 15.744 7.92262C15.7883 7.87727 15.8411 7.84109 15.8994 7.81615C15.9577 7.79121 16.0204 7.778 16.0838 7.77727L17.0148 7.76655C17.0782 7.76582 17.1411 7.77758 17.2 7.80117C17.2588 7.82476 17.3125 7.85971 17.3578 7.90403C17.4032 7.94835 17.4394 8.00117 17.4643 8.05947C17.4892 8.11778 17.5025 8.18042 17.5032 8.24383C17.5039 8.30723 17.4922 8.37016 17.4686 8.42903C17.445 8.48789 17.41 8.54152 17.3657 8.58688C17.3214 8.63223 17.2686 8.66841 17.2103 8.69335C17.152 8.71829 17.0893 8.7315 17.0259 8.73223Z" fill="#DDDAEC"/>
<path d="M17.2723 22.1341C17.2784 22.6604 16.8566 23.0919 16.3303 23.098C15.8041 23.1041 15.3725 22.6823 15.3664 22.156C15.3604 21.6298 15.7747 20.5544 16.301 20.5483C16.8272 20.5422 17.2662 21.6078 17.2723 22.1341Z" fill="#80B4FB"/>
<path d="M14.947 25.7969L12.8466 25.8211C12.7185 25.8225 12.5951 25.7731 12.5036 25.6836C12.412 25.5941 12.3597 25.4718 12.3582 25.3438C12.3567 25.2157 12.4062 25.0923 12.4957 25.0007C12.5852 24.9091 12.7074 24.8568 12.8355 24.8554L14.9358 24.8312C15.0639 24.8297 15.1873 24.8792 15.2789 24.9687C15.3705 25.0582 15.4228 25.1804 15.4242 25.3085C15.4257 25.4365 15.3763 25.5599 15.2868 25.6515C15.1973 25.7431 15.075 25.7954 14.947 25.7969ZM14.9668 27.5219L12.8665 27.5461C12.7384 27.5475 12.615 27.4981 12.5234 27.4086C12.4318 27.3191 12.3795 27.1968 12.3781 27.0688C12.3766 26.9407 12.4261 26.8173 12.5156 26.7257C12.6051 26.6341 12.7273 26.5819 12.8554 26.5804L14.9557 26.5562C15.0838 26.5547 15.2072 26.6042 15.2988 26.6937C15.3904 26.7832 15.4426 26.9054 15.4441 27.0335C15.4456 27.1615 15.3961 27.2849 15.3066 27.3765C15.2171 27.4681 15.0949 27.5204 14.9668 27.5219ZM19.8758 25.7401L17.7755 25.7643C17.6474 25.7658 17.524 25.7163 17.4324 25.6268C17.3408 25.5373 17.2885 25.4151 17.2871 25.287C17.2856 25.1589 17.335 25.0355 17.4245 24.9439C17.5141 24.8524 17.6363 24.8001 17.7643 24.7986L19.8647 24.7744C19.9928 24.7729 20.1162 24.8224 20.2078 24.9119C20.2993 25.0014 20.3516 25.1236 20.3531 25.2517C20.3546 25.3797 20.3051 25.5031 20.2156 25.5947C20.1261 25.6863 20.0039 25.7386 19.8758 25.7401ZM19.8957 27.4651L17.7953 27.4893C17.6673 27.4908 17.5439 27.4413 17.4523 27.3518C17.3607 27.2623 17.3084 27.1401 17.3069 27.012C17.3055 26.8839 17.3549 26.7605 17.4444 26.669C17.5339 26.5774 17.6562 26.5251 17.7842 26.5236L19.8846 26.4994C20.0126 26.4979 20.136 26.5474 20.2276 26.6369C20.3192 26.7264 20.3715 26.8486 20.373 26.9767C20.3745 27.1047 20.325 27.2281 20.2355 27.3197C20.146 27.4113 20.0238 27.4636 19.8957 27.4651Z" fill="#F9F6F9"/>
<path d="M18.0237 13.333L15.3444 13.3638C15.2163 13.3653 15.0929 13.3159 15.0014 13.2264C14.9098 13.1368 14.8575 13.0146 14.856 12.8866C14.8545 12.7585 14.904 12.6351 14.9935 12.5435C15.083 12.4519 15.2052 12.3996 15.3333 12.3982L18.0125 12.3673C18.2793 12.3642 18.4979 12.5779 18.5009 12.8446C18.504 13.1112 18.2904 13.3299 18.0237 13.333ZM18.0445 15.1379L15.3652 15.1687C15.2371 15.1702 15.1137 15.1207 15.0221 15.0312C14.9305 14.9417 14.8783 14.8195 14.8768 14.6914C14.8753 14.5634 14.9248 14.44 15.0143 14.3484C15.1038 14.2568 15.226 14.2045 15.3541 14.203L18.0333 14.1722C18.3001 14.1691 18.5187 14.3828 18.5217 14.6495C18.5248 14.9161 18.3112 15.1348 18.0445 15.1379Z" fill="#61A2F9"/>
</g>
<defs>
<clipPath id="clip0_93_710">
<rect width="32" height="32" fill="white" transform="translate(0 0.368607) rotate(-0.66)"/>
</clipPath>
</defs>
</svg>
