<svg width="33" height="33" viewBox="0 0 33 33" fill="none" xmlns="http://www.w3.org/2000/svg">
<g clip-path="url(#clip0_93_748)">
<path d="M27.7354 32.0512L1.47378 32.3537C0.753574 32.362 0.218737 31.6901 0.386935 30.9901L1.55068 26.1649C1.72383 25.4466 2.06919 24.7812 2.55696 24.2262C3.04472 23.6711 3.66023 23.2431 4.35036 22.9791L10.7473 20.5322C10.8319 20.4999 10.9226 20.4868 11.0129 20.4938C11.1031 20.5007 11.1907 20.5277 11.2693 20.5726L14.492 22.4145L17.6402 20.4906C17.718 20.443 17.8055 20.4134 17.8963 20.404C17.9871 20.3946 18.0788 20.4056 18.1647 20.4363L24.6436 22.7454C25.3397 22.9934 25.9649 23.4071 26.4653 23.9507C26.9658 24.4944 27.3264 25.1516 27.516 25.8658L28.7906 30.6629C28.9751 31.3589 28.4558 32.0429 27.7354 32.0512Z" fill="#868491"/>
<path d="M10.8279 22.4567L12.6344 21.3529L11.2693 20.5726C11.1907 20.5277 11.1031 20.5007 11.0129 20.4938C10.9226 20.4868 10.8319 20.4999 10.7473 20.5322L8.77862 21.2852L10.8279 22.4567ZM28.7908 30.6629L27.5161 25.8658C27.3264 25.1516 26.9658 24.4944 26.4653 23.9507C25.9649 23.4071 25.3396 22.9934 24.6436 22.7454L18.1647 20.4363C18.0788 20.4057 17.9871 20.3947 17.8964 20.404C17.8057 20.4134 17.7182 20.4429 17.6404 20.4905L16.4962 21.1897L20.9797 22.7875C21.6758 23.0355 22.301 23.4492 22.8015 23.9929C23.3019 24.5366 23.6625 25.1938 23.8522 25.908L25.1267 30.7052C25.3112 31.4011 24.792 32.0851 24.0716 32.0934L27.7357 32.0512C28.4558 32.0429 28.9751 31.3589 28.7908 30.6629L28.7908 30.6629Z" fill="#787784"/>
<path d="M10.7472 20.5322L8.61112 21.3491L11.6184 24.2719C11.7228 24.3734 11.8619 24.4315 12.0074 24.4344C12.153 24.4373 12.2942 24.3848 12.4026 24.2876L14.492 22.4143L11.2691 20.5723C11.1905 20.5274 11.1029 20.5005 11.0126 20.4936C10.9224 20.4866 10.8317 20.4998 10.7472 20.5322ZM18.1645 20.4363L20.3467 21.214L17.3153 24.2098C17.2114 24.3125 17.0723 24.3717 16.9263 24.3755C16.7802 24.3793 16.6382 24.3273 16.5291 24.2301L14.492 22.4143L17.6402 20.4907C17.718 20.4431 17.8055 20.4136 17.8962 20.4041C17.9869 20.3947 18.0786 20.4057 18.1645 20.4363ZM14.588 30.7516C14.5217 30.7524 14.4559 30.74 14.3943 30.7153C14.3328 30.6907 14.2767 30.6541 14.2293 30.6077C14.1819 30.5614 14.144 30.5061 14.118 30.4451C14.0919 30.3842 14.0781 30.3186 14.0774 30.2523L14.0153 24.8694C14.0159 24.7368 14.0686 24.6098 14.1619 24.5158C14.2553 24.4217 14.3819 24.3681 14.5145 24.3666C14.647 24.3651 14.7748 24.4157 14.8703 24.5076C14.9659 24.5995 15.0214 24.7253 15.025 24.8577L15.087 30.2407C15.0878 30.307 15.0755 30.3728 15.0509 30.4344C15.0262 30.496 14.9897 30.5521 14.9433 30.5995C14.897 30.6469 14.8418 30.6848 14.7808 30.7109C14.7198 30.737 14.6543 30.7508 14.588 30.7516Z" fill="#4F495B"/>
<path d="M14.4667 19.4176C13.1273 19.4587 12.0177 18.3491 12.0023 17.0093L11.9679 14.0205C11.9487 12.3605 13.1279 10.9535 14.7718 10.675C16.1781 10.4369 17.2007 9.17787 17.1506 7.74648C17.0978 6.24161 15.8301 5.00276 14.3244 4.98448C13.5432 4.97585 12.8115 5.27286 12.2614 5.82292C11.7108 6.3733 11.4123 7.10479 11.4213 7.8828C11.4365 9.1989 10.3851 10.2786 9.07056 10.3C7.72384 10.3218 6.64113 9.19163 6.64149 7.8446C6.64191 5.80346 7.43553 3.88819 8.88241 2.44218C10.3507 0.974547 12.3048 0.181672 14.3819 0.204936C16.3476 0.228607 18.21 1.00339 19.6254 2.38681C21.0411 3.77028 21.8587 5.61398 21.9275 7.57888C21.993 9.44694 21.376 11.2689 20.1899 12.7086C19.3637 13.7124 18.2954 14.4893 17.0858 14.9658C16.8911 15.0424 16.7619 15.2288 16.7643 15.438L16.7823 17.0013C16.7973 18.3057 15.7646 19.378 14.4667 19.4175L14.4667 19.4176Z" fill="#FFD782"/>
<path d="M11.4213 7.88279C11.4123 7.10478 11.7108 6.37329 12.2614 5.82298C12.7243 5.36011 13.3164 5.07709 13.9577 5.00401C13.4885 4.6542 12.9133 4.443 12.2982 4.43546C11.5173 4.42689 10.7855 4.72391 10.2352 5.27397C9.68461 5.82428 9.38632 6.55583 9.39529 7.33384C9.40874 8.50195 8.58162 9.48323 7.47646 9.70423C7.90246 10.0817 8.45907 10.3099 9.07056 10.3C10.3851 10.2787 11.4365 9.19889 11.4213 7.88279ZM21.9275 7.57888C21.8585 5.61423 21.0411 3.77027 19.6254 2.3868C18.4198 1.20873 16.8902 0.472365 15.2488 0.265197C16.1121 0.633715 16.909 1.16313 17.5994 1.83785C19.0148 3.22133 19.8325 5.06528 19.9012 7.02993C19.967 8.89823 19.3498 10.7199 18.1636 12.1599C17.582 12.8664 16.8784 13.4629 16.0864 13.9213C15.6766 14.1583 15.3373 14.5001 15.1032 14.9116C14.8691 15.323 14.7486 15.7893 14.7541 16.2627L14.7563 16.4524C14.7698 17.6207 13.9424 18.6023 12.8367 18.8228C13.2731 19.2075 13.8451 19.4367 14.4667 19.4176C15.7647 19.3777 16.7973 18.3054 16.7823 17.0014L16.7643 15.4382C16.7619 15.2288 16.8911 15.0424 17.0858 14.9658C18.2953 14.4892 19.3635 13.7125 20.1899 12.7089C21.376 11.2688 21.993 9.44693 21.9275 7.57888Z" fill="#FFC36F"/>
</g>
<defs>
<clipPath id="clip0_93_748">
<rect width="32" height="32" fill="white" transform="translate(0 0.368607) rotate(-0.66)"/>
</clipPath>
</defs>
</svg>
