<svg width="24" height="24" viewBox="0 0 24 24" fill="none" xmlns="http://www.w3.org/2000/svg">
<path d="M12 24C18.6274 24 24 18.6274 24 12C24 5.37258 18.6274 0 12 0C5.37258 0 0 5.37258 0 12C0 18.6274 5.37258 24 12 24Z" fill="#59AAE7"/>
<path d="M12 0C11.4695 0 10.9471 0.034875 10.4348 0.101578C16.3226 0.868594 20.8696 5.90311 20.8696 12C20.8696 18.0969 16.3226 23.1314 10.4348 23.8984C10.9538 23.966 11.4766 24 12 24C18.6274 24 24 18.6274 24 12C24 5.37262 18.6274 0 12 0Z" fill="#3D9AE3"/>
<path d="M7.7198 14.5847L3.8497 12.6497C3.74362 12.5966 3.74259 12.4456 3.84792 12.3911L18.5508 4.78618C18.6588 4.7303 18.7835 4.82419 18.7597 4.94344L16.2282 17.6005C16.224 17.6217 16.2151 17.6416 16.2022 17.6589C16.1892 17.6762 16.1726 17.6904 16.1535 17.7004C16.1344 17.7105 16.1133 17.7161 16.0917 17.717C16.0702 17.7178 16.0487 17.7139 16.0289 17.7053L12.5886 16.231C12.5682 16.2223 12.5461 16.2183 12.524 16.2194C12.5019 16.2206 12.4804 16.2268 12.461 16.2375L8.01544 18.7073C7.91878 18.7609 7.79995 18.6911 7.79995 18.5805V14.7145C7.79998 14.6875 7.7925 14.6611 7.77834 14.6382C7.76418 14.6153 7.7439 14.5968 7.7198 14.5847Z" fill="#FCFCFC"/>
<path d="M9.38953 15.8891L9.36548 12.0253C9.3654 12.0131 9.36847 12.0012 9.37438 11.9905C9.3803 11.9799 9.38886 11.971 9.39923 11.9647L15.6757 8.13039C15.7469 8.08693 15.8213 8.18115 15.7626 8.24031L10.986 13.0508C10.9807 13.0561 10.9763 13.0623 10.973 13.0689L10.1559 14.7029L9.5227 15.9211C9.48871 15.9865 9.39 15.9627 9.38953 15.8891Z" fill="#D8D7DA"/>
</svg>
