<svg width="54" height="54" viewBox="0 0 54 54" fill="none" xmlns="http://www.w3.org/2000/svg">
<g clip-path="url(#clip0_93_815)">
<path d="M26.0731 0.03953C18.2498 0.53344 12.2033 7.11912 12.2033 14.9581V34.1357C12.2033 34.7883 12.7323 35.3173 13.3849 35.3173H41.0193C41.2414 35.3173 41.4544 35.2291 41.6115 35.0721C41.7685 34.915 41.8567 34.702 41.8567 34.4799V14.8361C41.8566 6.34382 34.68 -0.503845 26.0731 0.03953Z" fill="#647892"/>
<path d="M19.5894 34.1356V14.958C19.5894 8.06187 24.2694 2.13642 30.7216 0.474447C21.2852 -1.9526 12.2033 5.24332 12.2033 14.958V34.1356C12.2033 34.7883 12.7323 35.3173 13.3849 35.3173H20.7711C20.1185 35.3173 19.5894 34.7883 19.5894 34.1356Z" fill="#4D6682"/>
<path d="M45.998 51.2574L44.4502 43.4841C43.9849 41.1532 42.2724 40.2055 41.3289 39.8535L40.6943 39.6663C40.6756 39.6617 37.6549 38.9132 35.0417 38.267L29.7217 44.5155C28.1757 46.3315 25.8693 46.3277 24.3265 44.5066L19.0259 38.2501C18.2735 38.4375 16.4698 38.8821 13.3056 39.6663C13.4916 39.6114 10.2172 40.1415 9.54977 43.4841L8.00202 51.2574C7.72854 52.6335 8.73735 53.918 10.1155 53.996L10.1229 53.9999H43.877L43.8844 53.996C45.2632 53.918 46.2714 52.6331 45.998 51.2574ZM22.6307 33.5016H22.6266C22.6329 33.5045 22.5931 33.5115 22.5775 33.514L22.6309 33.5143L22.6307 33.5016Z" fill="#3997EE"/>
<path d="M10.9348 51.2576C10.9348 51.2576 12.3035 43.5147 12.4825 42.6152C12.8634 40.7074 14.0797 39.7267 15.0259 39.2402L13.3056 39.6664C13.4916 39.6115 10.2172 40.1416 9.54977 43.4842L8.00202 51.2576C7.72811 52.6389 8.74199 53.9184 10.1155 53.9962L10.1229 54.0001H13.0557L13.0483 53.9962C11.6746 53.9184 10.6609 52.6386 10.9348 51.2576Z" fill="#1E88D8"/>
<path d="M32.0128 37.5193C31.8152 37.4705 31.6396 37.3569 31.5141 37.1966C31.3886 37.0363 31.3204 36.8386 31.3204 36.635V33.5017H30.5298C28.2968 34.3204 25.7818 34.369 23.4219 33.5017H22.6306V36.7066C22.6307 36.8899 22.5694 37.0679 22.4566 37.2124C22.3438 37.3569 22.186 37.4595 22.0082 37.5039L18.874 38.2883L24.3264 44.7241C25.8692 46.5452 28.1756 46.549 29.7216 44.733L35.1938 38.3057L32.0128 37.5193Z" fill="#EDB87E"/>
<path d="M29.0816 45.3494L26.9776 42.9874C26.0668 41.9649 25.5635 40.6433 25.5635 39.274V34.0351C24.8326 33.9346 24.1146 33.7556 23.422 33.5015H22.6307V36.7063C22.6307 36.8896 22.5695 37.0676 22.4567 37.2121C22.3439 37.3566 22.1861 37.4592 22.0083 37.5037L18.8741 38.2881L24.3265 44.7239C25.6682 46.3077 27.5872 46.5162 29.0816 45.3494Z" fill="#E4A970"/>
<path d="M16.6024 49.4379C16.6024 49.2219 16.5165 49.0147 16.3638 48.8619C16.211 48.7091 16.0038 48.6233 15.7877 48.6233C15.5717 48.6233 15.3645 48.7091 15.2117 48.8619C15.0589 49.0147 14.9731 49.2219 14.9731 49.4379V54H16.6024V49.4379ZM38.9782 54V49.4379C38.9782 49.2219 38.8924 49.0147 38.7396 48.8619C38.5868 48.7091 38.3796 48.6233 38.1636 48.6233C37.9475 48.6233 37.7403 48.7091 37.5875 48.8619C37.4347 49.0147 37.3489 49.2219 37.3489 49.4379V54H38.9782Z" fill="#1E88D8"/>
<path d="M24.3265 44.7239C25.8693 46.545 28.1757 46.5488 29.7217 44.7327L32.5594 41.3999H21.5104L24.3265 44.7239Z" fill="#FAC149"/>
<path d="M24.3265 44.7239C24.9617 45.4734 25.8251 46.0152 26.8151 46.0841C27.6496 46.142 28.4346 45.8544 29.0816 45.3493C27.3201 43.2707 26.5578 42.7884 25.9857 41.3999H21.5104L24.3265 44.7239Z" fill="#F8A748"/>
<path d="M18.1259 20.6284C17.3286 20.5802 16.6567 21.217 16.6567 22.0157V23.9625C16.6567 29.907 21.5837 34.749 27.5216 34.4719C33.0222 34.2153 37.4032 29.675 37.4032 24.11V17.4763C37.4032 16.7967 36.8986 16.2254 36.2248 16.137C35.3374 16.0206 34.1484 15.5485 33.391 13.9884C33.1928 13.5802 32.6312 13.5275 32.3626 13.8932C30.7722 16.0584 26.1682 21.1144 18.1259 20.6284Z" fill="#F4C48B"/>
<path d="M19.5894 24.1102V20.6568C19.1148 20.6676 18.627 20.6588 18.126 20.6285C17.3287 20.5803 16.6568 21.2172 16.6568 22.0159V23.9626C16.6568 29.9072 21.5838 34.7491 27.5218 34.4721C27.8479 34.4567 28.1731 34.4261 28.4964 34.3802C23.4618 33.6679 19.5894 29.3421 19.5894 24.1102Z" fill="#EDB87E"/>
<path d="M27 31.7871H21.1694C17.5669 31.7871 14.4065 29.4119 14.4065 25.7352V24.0657C14.4065 23.8497 14.4923 23.6424 14.6451 23.4897C14.7979 23.3369 15.0051 23.2511 15.2211 23.2511C15.4372 23.2511 15.6444 23.3369 15.7972 23.4897C15.95 23.6424 16.0358 23.8497 16.0358 24.0657V25.7352C16.0358 28.4628 18.4294 30.1578 21.1694 30.1578H27C27.2161 30.1578 27.4233 30.2436 27.576 30.3964C27.7288 30.5492 27.8146 30.7564 27.8146 30.9724C27.8146 31.1885 27.7288 31.3957 27.576 31.5485C27.4233 31.7012 27.2161 31.7871 27 31.7871ZM38.9239 17.9923C38.7078 17.9923 38.5006 17.9065 38.3478 17.7537C38.1951 17.6009 38.1092 17.3937 38.1092 17.1776V14.9626C38.1092 8.76736 33.0785 3.69083 26.8857 3.79925C20.9409 3.90451 16.0592 8.76272 16.0592 14.8224V17.1776C16.0592 17.3937 15.9734 17.6009 15.8206 17.7537C15.6678 17.9065 15.4606 17.9923 15.2446 17.9923C15.0285 17.9923 14.8213 17.9065 14.6685 17.7537C14.5157 17.6009 14.4299 17.3937 14.4299 17.1776V14.8224C14.4299 7.97888 19.9185 2.29306 26.8569 2.17008C33.9653 2.04879 39.7386 7.85537 39.7386 14.9625V17.1775C39.7386 17.3936 39.6527 17.6008 39.5 17.7536C39.3472 17.9064 39.14 17.9923 38.9239 17.9923Z" fill="#EFEFEF"/>
<path d="M40.3277 17.7478V24.6999C43.4407 23.4295 43.4476 19.0209 40.3277 17.7478Z" fill="#FAC149"/>
<path d="M40.3277 20.871V24.6998C42.474 23.824 43.3061 21.2608 42.142 19.3093C41.7224 20.0127 41.0857 20.5608 40.3277 20.871Z" fill="#F8A748"/>
<path d="M13.7409 17.7478V24.6999C10.6164 23.4295 10.6093 19.0209 13.7409 17.7478Z" fill="#FAC149"/>
<path d="M12.0015 19.1809C10.7165 21.142 11.5343 23.8027 13.7409 24.6998V20.6192C13.0284 20.3276 12.4217 19.8259 12.0015 19.1809Z" fill="#F8A748"/>
<path d="M26.0216 32.3844H27.9847C28.7768 32.3844 29.4607 31.7758 29.4955 30.9843C29.5325 30.1443 28.8625 29.4517 28.0306 29.4517H25.9756C25.1438 29.4517 24.4736 30.1443 24.5106 30.9843C24.5455 31.7758 25.2294 32.3844 26.0216 32.3844Z" fill="#3997EE"/>
<path d="M27.0046 30.9843C26.9709 30.2198 27.5236 29.5792 28.2501 29.4699C28.1775 29.4584 28.1042 29.4523 28.0306 29.4517H25.9756C25.1438 29.4517 24.4736 30.1443 24.5106 30.9843C24.5454 31.7758 25.2294 32.3844 26.0216 32.3844H27.9847C28.0749 32.3844 28.1634 32.3756 28.25 32.3604C27.5763 32.2424 27.0355 31.6856 27.0046 30.9843Z" fill="#1E88D8"/>
<path d="M13.7307 24.6994V17.7485C13.7307 16.9563 14.3393 16.2725 15.1308 16.2375C15.9708 16.2005 16.6634 16.8706 16.6634 17.7025V24.7454C16.6634 25.5772 15.9708 26.2474 15.1308 26.2104C14.3393 26.1754 13.7307 25.4916 13.7307 24.6994Z" fill="#F8A748"/>
<path d="M15.1308 21.9196C14.3393 21.8848 13.7307 21.2009 13.7307 20.4087V24.6992C13.7307 25.4913 14.3393 26.1752 15.1308 26.2101C15.9708 26.2471 16.6634 25.5771 16.6634 24.7451V20.4547C16.6634 21.2866 15.9708 21.9567 15.1308 21.9196Z" fill="#F38D1A"/>
<path d="M37.4009 24.6994V17.7485C37.4009 16.9563 38.0101 16.2725 38.8022 16.2375C39.6429 16.2005 40.3361 16.8706 40.3361 17.7025V24.7454C40.3361 25.5772 39.643 26.2473 38.8022 26.2104C38.01 26.1754 37.4009 25.4916 37.4009 24.6994Z" fill="#F8A748"/>
<path d="M38.8021 21.9196C38.01 21.8848 37.4008 21.201 37.4008 20.4087V24.6992C37.4008 25.4913 38.01 26.1752 38.8021 26.2101C39.6427 26.2471 40.336 25.5771 40.336 24.7451V20.4547C40.336 21.2866 39.6427 21.9567 38.8021 21.9196Z" fill="#F38D1A"/>
</g>
<defs>
<clipPath id="clip0_93_815">
<rect width="54" height="54" fill="white"/>
</clipPath>
</defs>
</svg>
